<?xml version="1.0" encoding="utf-8"?>
<!-- Generator: Adobe Illustrator 16.0.0, SVG Export Plug-In . SVG Version: 6.00 Build 0)  -->
<!DOCTYPE svg PUBLIC "-//W3C//DTD SVG 1.1 Tiny//EN" "http://www.w3.org/Graphics/SVG/1.1/DTD/svg11-tiny.dtd">
<svg version="1.1" baseProfile="tiny" id="Layer_1" xmlns="http://www.w3.org/2000/svg" xmlns:xlink="http://www.w3.org/1999/xlink"
	 x="0px" y="0px" width="275px" height="114px" viewBox="0 0 275 114" xml:space="preserve">
<g>
	<path fill="#F69221" d="M202.423,60.249l-4.025,2.288c-0.396,0.224-0.897,0.087-1.12-0.309c-0.227-0.394-0.088-0.895,0.308-1.12
		l0.733-0.418c0.074-0.109,0.17-0.204,0.293-0.269l3.015-1.609l1.188-0.676l-30.791-16.8v0.04l-0.014-0.024
		c0,0-0.556-0.586-1.631-0.007v-0.009l-30.831,16.822l5.251,2.813c0.399,0.213,0.55,0.711,0.336,1.11
		c-0.146,0.275-0.432,0.435-0.724,0.435c-0.131,0-0.266-0.032-0.39-0.098l-5.381-2.881v16.629v16.818l1.339-0.714l4.025-2.289
		c0.396-0.223,0.898-0.086,1.119,0.31c0.225,0.396,0.087,0.897-0.307,1.121l-0.735,0.419c-0.073,0.106-0.169,0.199-0.293,0.269
		l-3.015,1.609l-1.188,0.675l30.792,16.796v-6.309v-0.005v-0.157c0-0.457,0.369-0.824,0.822-0.824c0.456,0,0.822,0.367,0.822,0.824
		v6.471l30.833-16.817l-5.253-2.811c-0.4-0.215-0.552-0.714-0.337-1.113c0.148-0.278,0.433-0.436,0.725-0.436
		c0.132,0,0.265,0.031,0.389,0.097l5.381,2.882V76.354V59.536L202.423,60.249z"/>
	<path fill="#EB2054" d="M267.543,60.249l-4.025,2.288c-0.395,0.224-0.897,0.087-1.121-0.309c-0.223-0.394-0.087-0.895,0.309-1.12
		l0.734-0.418c0.073-0.109,0.169-0.204,0.293-0.269l3.015-1.609l1.187-0.676l-30.791-16.8v0.04l-0.014-0.024
		c0,0-0.554-0.586-1.63-0.007v-0.009l-30.833,16.822l5.253,2.813c0.399,0.213,0.55,0.711,0.336,1.11
		c-0.147,0.275-0.433,0.435-0.725,0.435c-0.132,0-0.265-0.032-0.389-0.098l-5.38-2.881v16.629v16.818l1.336-0.714l4.026-2.289
		c0.396-0.223,0.896-0.086,1.121,0.31c0.224,0.396,0.087,0.897-0.308,1.121l-0.735,0.419c-0.074,0.106-0.171,0.199-0.292,0.269
		l-3.016,1.609l-1.187,0.675l30.791,16.796v-6.309v-0.005v-0.157c0-0.457,0.368-0.824,0.821-0.824c0.456,0,0.822,0.367,0.822,0.824
		v6.471l30.833-16.817l-5.254-2.811c-0.399-0.215-0.548-0.714-0.333-1.113c0.146-0.278,0.43-0.436,0.725-0.436
		c0.129,0,0.263,0.031,0.386,0.097l5.383,2.882V76.354V59.536L267.543,60.249z"/>
	<path fill="#7C702C" d="M72.181,60.249l-4.025,2.288c-0.395,0.224-0.897,0.087-1.121-0.309c-0.225-0.394-0.087-0.895,0.309-1.12
		l0.734-0.418c0.073-0.109,0.168-0.204,0.292-0.269l3.014-1.609l1.188-0.676l-30.79-16.8v0.04l-0.016-0.024
		c0,0-0.553-0.586-1.629-0.007v-0.009L9.305,58.158l5.252,2.813c0.4,0.213,0.551,0.711,0.337,1.11
		c-0.149,0.275-0.434,0.435-0.726,0.435c-0.131,0-0.265-0.032-0.388-0.098L8.4,59.537v16.629v16.818l1.337-0.714l4.025-2.289
		c0.396-0.223,0.898-0.086,1.122,0.31s0.085,0.897-0.309,1.121l-0.735,0.419c-0.074,0.106-0.169,0.199-0.292,0.269l-3.014,1.609
		l-1.188,0.675l30.791,16.796v-6.309v-0.005v-0.157c0-0.457,0.368-0.824,0.823-0.824c0.454,0,0.822,0.367,0.822,0.824v6.471
		l30.831-16.817l-5.251-2.811c-0.399-0.215-0.552-0.714-0.336-1.113c0.147-0.278,0.431-0.436,0.724-0.436
		c0.131,0,0.264,0.031,0.387,0.097l5.383,2.882V76.354V59.536L72.181,60.249z"/>
	<path fill="#396AB1" d="M137.303,60.249l-4.027,2.288c-0.396,0.224-0.897,0.087-1.12-0.309c-0.225-0.394-0.086-0.895,0.307-1.12
		l0.736-0.418c0.073-0.109,0.168-0.204,0.292-0.269l3.015-1.609l1.188-0.676l-30.792-16.8v0.04l-0.014-0.024
		c0,0-0.555-0.586-1.631-0.007v-0.009L74.426,58.158l5.251,2.813c0.4,0.213,0.551,0.711,0.336,1.11
		c-0.148,0.275-0.432,0.435-0.724,0.435c-0.132,0-0.264-0.032-0.388-0.098l-5.382-2.881v16.629v16.818l1.338-0.714l4.025-2.289
		c0.395-0.223,0.897-0.086,1.122,0.31c0.224,0.396,0.086,0.897-0.307,1.121l-0.735,0.419c-0.074,0.106-0.17,0.199-0.294,0.269
		l-3.013,1.609l-1.189,0.675l30.791,16.796v-6.309v-0.005v-0.157c0-0.457,0.368-0.824,0.822-0.824c0.455,0,0.823,0.367,0.823,0.824
		v6.471l30.831-16.817l-5.251-2.811c-0.4-0.215-0.551-0.714-0.336-1.113c0.148-0.278,0.431-0.436,0.724-0.436
		c0.132,0,0.264,0.031,0.388,0.097l5.382,2.882V76.354V59.536L137.303,60.249z"/>
	<path fill="#6FBE46" d="M72.181,24.099l-4.025,2.288c-0.395,0.225-0.897,0.086-1.121-0.309c-0.225-0.396-0.087-0.899,0.309-1.122
		l0.734-0.416c0.073-0.11,0.168-0.206,0.292-0.273l3.014-1.607l1.188-0.675L41.782,5.187v0.031l-0.016-0.024
		c0,0-0.558-0.593-1.644,0c-0.002,0-0.005,0.002-0.006,0.002L9.305,22.005l5.252,2.812c0.4,0.215,0.551,0.712,0.337,1.113
		c-0.149,0.276-0.434,0.435-0.726,0.435c-0.131,0-0.265-0.032-0.388-0.098L8.4,23.386v16.628v16.817l1.337-0.714l4.025-2.289
		c0.396-0.223,0.898-0.085,1.122,0.309c0.224,0.396,0.085,0.897-0.309,1.121l-0.735,0.418c-0.074,0.109-0.169,0.205-0.292,0.27
		l-3.014,1.609L9.346,58.23l30.791,16.798V68.72v-0.004v-0.16c0-0.455,0.368-0.821,0.823-0.821c0.454,0,0.822,0.366,0.822,0.821
		v6.473l30.831-16.82l-5.251-2.81c-0.399-0.215-0.552-0.715-0.336-1.113c0.147-0.277,0.431-0.436,0.724-0.436
		c0.131,0,0.264,0.032,0.387,0.1l5.383,2.878V40.203V23.386L72.181,24.099z"/>
	<path fill="#66C9DB" d="M137.303,24.099l-4.027,2.288c-0.396,0.225-0.897,0.086-1.12-0.309c-0.225-0.396-0.086-0.899,0.307-1.122
		l0.736-0.416c0.073-0.11,0.168-0.206,0.292-0.273l3.015-1.607l1.188-0.675L106.902,5.187v0.031l-0.014-0.024
		c0,0-0.56-0.593-1.645,0c-0.003,0-0.005,0.002-0.006,0.002L74.426,22.005l5.251,2.812c0.4,0.215,0.551,0.712,0.336,1.113
		c-0.148,0.276-0.432,0.435-0.724,0.435c-0.132,0-0.264-0.032-0.388-0.098l-5.382-2.881v16.628v16.817l1.338-0.714l4.025-2.289
		c0.395-0.223,0.897-0.085,1.122,0.309c0.224,0.396,0.086,0.897-0.307,1.121l-0.735,0.418c-0.074,0.109-0.17,0.205-0.294,0.27
		l-3.013,1.609l-1.189,0.676l30.791,16.798V68.72v-0.004v-0.16c0-0.455,0.368-0.821,0.822-0.821c0.455,0,0.823,0.366,0.823,0.821
		v6.473l30.831-16.82l-5.251-2.81c-0.4-0.215-0.551-0.715-0.336-1.113c0.148-0.277,0.431-0.436,0.724-0.436
		c0.132,0,0.264,0.032,0.388,0.1l5.382,2.878V40.203V23.386L137.303,24.099z"/>
	<path fill="#F8CA15" d="M202.423,24.099l-4.025,2.288c-0.396,0.225-0.897,0.086-1.12-0.309c-0.227-0.396-0.088-0.899,0.308-1.122
		l0.733-0.416c0.074-0.11,0.17-0.206,0.293-0.273l3.015-1.607l1.188-0.675L172.022,5.187v0.031l-0.014-0.024c0,0-0.56-0.593-1.645,0
		c-0.003,0-0.005,0.002-0.005,0.002l-30.812,16.809l5.251,2.812c0.399,0.215,0.55,0.712,0.336,1.113
		c-0.146,0.276-0.432,0.435-0.724,0.435c-0.131,0-0.266-0.032-0.39-0.098l-5.381-2.881v16.628v16.817l1.339-0.714l4.025-2.289
		c0.396-0.223,0.898-0.085,1.119,0.309c0.225,0.396,0.087,0.897-0.307,1.121l-0.735,0.418c-0.073,0.109-0.169,0.205-0.293,0.27
		l-3.015,1.609l-1.188,0.676l30.792,16.798V68.72v-0.004v-0.16c0-0.455,0.369-0.821,0.822-0.821c0.456,0,0.822,0.366,0.822,0.821
		v6.473l30.833-16.82l-5.253-2.81c-0.4-0.215-0.552-0.715-0.337-1.113c0.148-0.277,0.433-0.436,0.725-0.436
		c0.132,0,0.265,0.032,0.389,0.1l5.381,2.878V40.203V23.386L202.423,24.099z"/>
	<path fill="#A2509E" d="M267.543,24.099l-4.025,2.288c-0.395,0.225-0.897,0.086-1.121-0.309c-0.223-0.396-0.087-0.899,0.309-1.122
		l0.734-0.416c0.073-0.11,0.169-0.206,0.293-0.273l3.015-1.607l1.187-0.675L237.143,5.187v0.031l-0.014-0.024
		c0,0-0.56-0.593-1.645,0c-0.003,0-0.007,0.002-0.007,0.002l-30.812,16.809l5.253,2.812c0.399,0.215,0.55,0.712,0.336,1.113
		c-0.147,0.276-0.433,0.435-0.725,0.435c-0.132,0-0.265-0.032-0.389-0.098l-5.38-2.881v16.628v16.817l1.336-0.714l4.026-2.289
		c0.396-0.223,0.896-0.085,1.121,0.309c0.224,0.396,0.087,0.897-0.308,1.121l-0.735,0.418c-0.074,0.109-0.171,0.205-0.292,0.27
		l-3.016,1.609l-1.187,0.676l30.791,16.798V68.72v-0.004v-0.16c0-0.455,0.368-0.821,0.821-0.821c0.456,0,0.822,0.366,0.822,0.821
		v6.473l30.833-16.82l-5.254-2.81c-0.399-0.215-0.548-0.715-0.333-1.113c0.146-0.277,0.43-0.436,0.725-0.436
		c0.129,0,0.263,0.032,0.386,0.1l5.383,2.878V40.203V23.386L267.543,24.099z"/>
	<path fill="#375226" d="M40.959,67.733c0.455,0,0.822,0.369,0.822,0.821v6.474l26.306-14.352c0.072-0.102,0.165-0.194,0.284-0.256
		l3.013-1.609l1.14-0.648l-5.163-2.765c-0.12-0.065-0.215-0.156-0.286-0.262l-25.294-13.8v0.041l-0.015-0.026
		c0,0-0.553-0.586-1.629-0.007v-0.008l-26.306,14.35c-0.072,0.105-0.166,0.195-0.284,0.26l-3.014,1.608l-1.14,0.649l5.163,2.765
		c0.12,0.064,0.214,0.156,0.286,0.262l25.295,13.798v-6.307v-0.005v-0.162C40.137,68.103,40.505,67.733,40.959,67.733"/>
	<path fill="#1053A0" d="M106.08,67.733c0.455,0,0.823,0.369,0.823,0.821v6.474l26.305-14.352c0.073-0.102,0.165-0.194,0.283-0.256
		l3.013-1.609l1.142-0.648l-5.164-2.765c-0.12-0.065-0.214-0.156-0.286-0.262l-25.293-13.8v0.041l-0.016-0.026
		c0,0-0.554-0.586-1.629-0.007v-0.008l-26.306,14.35c-0.072,0.105-0.166,0.195-0.284,0.26l-3.014,1.608l-1.139,0.649l5.162,2.765
		c0.12,0.064,0.215,0.156,0.286,0.262l25.295,13.798v-6.307v-0.005v-0.162C105.258,68.103,105.625,67.733,106.08,67.733"/>
	<path fill="#EB7823" d="M171.198,67.733c0.458,0,0.824,0.369,0.824,0.821v6.474l26.307-14.352c0.071-0.102,0.164-0.194,0.282-0.256
		l3.015-1.609l1.141-0.648l-5.164-2.765c-0.119-0.065-0.213-0.156-0.286-0.262l-25.294-13.8v0.041l-0.017-0.026
		c0,0-0.553-0.586-1.628-0.007v-0.008l-26.307,14.35c-0.071,0.105-0.163,0.195-0.283,0.26l-3.013,1.608l-1.142,0.649l5.164,2.765
		c0.12,0.064,0.214,0.156,0.286,0.262l25.294,13.798v-6.307v-0.005v-0.162C170.378,68.103,170.747,67.733,171.198,67.733"/>
	<path fill="#971A39" d="M236.321,67.733c0.455,0,0.821,0.369,0.821,0.821v6.474l26.307-14.352c0.071-0.102,0.164-0.194,0.283-0.256
		l3.015-1.609l1.14-0.648l-5.164-2.765c-0.119-0.065-0.216-0.156-0.286-0.262l-25.294-13.8v0.041l-0.014-0.026
		c0,0-0.554-0.586-1.631-0.007v-0.008l-26.306,14.35c-0.071,0.105-0.165,0.195-0.283,0.26l-3.014,1.608l-1.14,0.649l5.163,2.765
		c0.118,0.064,0.213,0.156,0.285,0.262l25.294,13.798v-6.307v-0.005v-0.162C235.498,68.103,235.867,67.733,236.321,67.733"/>
	<path fill="#F4F1E8" d="M53.658,53.905c-0.152,0.418-0.443,0.728-0.872,0.928c-0.43,0.204-0.861,0.229-1.292,0.077
		c-0.43-0.151-0.746-0.443-0.948-0.871l-2.998-6.452h-7.626c-0.482,0-0.882-0.159-1.197-0.475c-0.317-0.316-0.475-0.714-0.475-1.195
		c0-0.456,0.158-0.848,0.475-1.176c0.315-0.328,0.715-0.496,1.197-0.496h6.032l-5.312-11.383L31.267,54
		c-0.151,0.33-0.366,0.577-0.644,0.741c-0.279,0.165-0.584,0.246-0.913,0.246c-0.227,0-0.453-0.038-0.682-0.114
		c-0.43-0.201-0.727-0.518-0.89-0.947c-0.166-0.431-0.145-0.862,0.057-1.292l10.89-24.478c0.127-0.305,0.328-0.543,0.608-0.72
		c0.276-0.178,0.582-0.266,0.911-0.266c0.328,0,0.632,0.082,0.911,0.246c0.278,0.166,0.479,0.4,0.607,0.703l11.462,24.515
		C53.785,53.063,53.81,53.487,53.658,53.905"/>
	<path fill="#F4F1E8" d="M52.156,66.136c0.315,0.318,0.474,0.713,0.474,1.197c0,0.453-0.159,0.846-0.474,1.175
		C51.84,68.837,51.439,69,50.96,69h-8.159v22.772c0,0.481-0.161,0.875-0.48,1.192c-0.321,0.317-0.725,0.477-1.209,0.477
		c-0.462,0-0.856-0.159-1.191-0.477c-0.333-0.317-0.498-0.711-0.498-1.192V69h-8.16c-0.454,0-0.849-0.163-1.176-0.492
		c-0.329-0.329-0.493-0.722-0.493-1.175c0-0.484,0.164-0.879,0.493-1.197c0.327-0.317,0.722-0.477,1.176-0.477H50.96
		C51.439,65.659,51.84,65.819,52.156,66.136"/>
	<path fill="#F4F1E8" d="M114.974,55.009c-0.488,0-0.978-0.201-1.33-0.594l-8.15-9.079c-0.446-0.497-0.577-1.2-0.343-1.827
		c0.239-0.626,0.803-1.065,1.467-1.143c0.241-0.032,6.07-0.812,6.07-5.677c0-4.12-3.899-5.864-5.451-5.864
		c-1.63,0-5.848,0.05-8.263,0.079v22.317c0,0.988-0.8,1.788-1.787,1.788c-0.986,0-1.79-0.8-1.79-1.788V29.138
		c0-0.981,0.789-1.777,1.766-1.791c0.313-0.003,7.717-0.098,10.074-0.098c3.05,0,9.029,2.851,9.029,9.44
		c0,4.687-3.193,7.24-6.162,8.428l6.2,6.91c0.66,0.734,0.6,1.865-0.136,2.525C115.826,54.857,115.398,55.009,114.974,55.009"/>
	<path fill="#F4F1E8" d="M114.974,93.794c-0.489,0-0.98-0.198-1.333-0.592l-8.147-9.078c-0.447-0.498-0.58-1.203-0.343-1.829
		c0.236-0.624,0.803-1.065,1.464-1.144c0.243-0.029,6.073-0.812,6.073-5.676c0-4.12-3.901-5.86-5.452-5.86
		c-1.632,0-5.848,0.046-8.263,0.075v22.317c0,0.991-0.799,1.787-1.789,1.787c-0.985,0-1.787-0.796-1.787-1.787V67.924
		c0-0.98,0.786-1.776,1.765-1.79c0.314-0.004,7.718-0.097,10.074-0.097c3.05,0,9.03,2.849,9.03,9.438
		c0,4.687-3.193,7.238-6.162,8.429l6.2,6.91c0.66,0.731,0.598,1.864-0.136,2.522C115.826,93.646,115.396,93.794,114.974,93.794"/>
	<path fill="#F4F1E8" d="M179.549,52.142c0.328,0.318,0.494,0.718,0.494,1.198c0,0.454-0.166,0.847-0.494,1.176
		s-0.719,0.493-1.177,0.493h-14.324c-0.462,0-0.859-0.164-1.191-0.493c-0.333-0.329-0.5-0.722-0.5-1.176V28.899
		c0-0.456,0.167-0.846,0.5-1.176c0.332-0.33,0.729-0.494,1.191-0.494h14.324c0.458,0,0.849,0.164,1.177,0.494
		s0.494,0.72,0.494,1.176c0,0.479-0.166,0.879-0.494,1.197c-0.328,0.316-0.719,0.472-1.177,0.472h-12.637v8.881h4.972
		c0.456,0,0.847,0.165,1.176,0.493c0.33,0.329,0.495,0.721,0.495,1.178c0,0.456-0.165,0.846-0.495,1.176
		c-0.329,0.328-0.72,0.492-1.176,0.492h-4.972v8.88h12.637C178.83,51.668,179.221,51.828,179.549,52.142"/>
	<path fill="#F4F1E8" d="M179.549,90.94c0.328,0.316,0.494,0.716,0.494,1.195c0,0.455-0.166,0.849-0.494,1.176
		c-0.328,0.328-0.719,0.494-1.177,0.494h-14.324c-0.462,0-0.859-0.166-1.191-0.494c-0.333-0.327-0.5-0.721-0.5-1.176V67.694
		c0-0.454,0.167-0.847,0.5-1.176c0.332-0.327,0.729-0.495,1.191-0.495h14.324c0.458,0,0.849,0.168,1.177,0.495
		c0.328,0.329,0.494,0.722,0.494,1.176c0,0.482-0.166,0.881-0.494,1.198s-0.719,0.472-1.177,0.472h-12.637v8.881h4.972
		c0.456,0,0.847,0.166,1.176,0.494c0.33,0.329,0.495,0.722,0.495,1.179c0,0.454-0.165,0.845-0.495,1.174
		c-0.329,0.329-0.72,0.494-1.176,0.494h-4.972v8.88h12.637C178.83,90.466,179.221,90.623,179.549,90.94"/>
	<path fill="#F4F1E8" d="M249.086,53.905c-0.149,0.418-0.441,0.728-0.871,0.93c-0.43,0.204-0.86,0.228-1.29,0.075
		c-0.431-0.151-0.746-0.441-0.95-0.873l-2.997-6.45h-7.629c-0.479,0-0.878-0.159-1.195-0.474c-0.316-0.317-0.473-0.716-0.473-1.197
		c0-0.455,0.156-0.846,0.473-1.176c0.317-0.328,0.717-0.492,1.195-0.492h6.035l-5.312-11.386L226.699,54
		c-0.154,0.328-0.368,0.576-0.647,0.738c-0.278,0.166-0.582,0.248-0.911,0.248c-0.228,0-0.456-0.038-0.685-0.114
		c-0.428-0.201-0.726-0.517-0.891-0.947c-0.163-0.432-0.146-0.86,0.058-1.292l10.892-24.477c0.126-0.303,0.329-0.543,0.608-0.72
		c0.279-0.178,0.581-0.267,0.91-0.267c0.328,0,0.631,0.082,0.911,0.248c0.278,0.164,0.48,0.396,0.605,0.699l11.461,24.517
		C249.215,53.065,249.24,53.486,249.086,53.905"/>
	<path fill="#F4F1E8" d="M236.985,93.794h-0.645c-1.192,0-2.369-0.176-3.537-0.531c-1.165-0.354-2.219-0.891-3.154-1.611
		c-0.939-0.72-1.701-1.637-2.282-2.753c-0.584-1.112-0.875-2.427-0.875-3.944c0-0.458,0.165-0.85,0.493-1.177
		c0.326-0.331,0.734-0.496,1.214-0.496c0.457,0,0.848,0.165,1.176,0.496c0.329,0.327,0.494,0.719,0.494,1.177
		c0,0.884,0.146,1.639,0.436,2.256c0.291,0.623,0.659,1.135,1.103,1.537c0.441,0.405,0.923,0.722,1.441,0.947
		c0.519,0.229,1.019,0.4,1.5,0.516c0.479,0.113,0.904,0.182,1.271,0.209c0.366,0.025,0.601,0.036,0.702,0.036h0.645
		c0.685,0,1.367-0.116,2.049-0.339c0.686-0.229,1.302-0.548,1.86-0.95c0.556-0.405,1.012-0.879,1.368-1.425
		c0.353-0.543,0.53-1.132,0.53-1.762c0-1.015-0.489-1.894-1.461-2.643c-0.974-0.741-2.627-1.482-4.954-2.217l-0.682-0.229
		c-1.063-0.378-2.145-0.783-3.245-1.215c-1.102-0.428-2.088-0.959-2.962-1.595c-0.871-0.631-1.586-1.383-2.143-2.255
		c-0.557-0.873-0.835-1.943-0.835-3.209c0-1.062,0.234-2.041,0.702-2.94c0.472-0.898,1.124-1.676,1.959-2.334
		c0.838-0.656,1.826-1.17,2.966-1.537c1.141-0.367,2.37-0.55,3.688-0.55c0.686,0,1.428,0.037,2.226,0.114
		c0.798,0.076,1.599,0.24,2.396,0.493c0.799,0.252,1.57,0.621,2.318,1.101c0.749,0.481,1.413,1.127,1.997,1.935
		c0.15,0.229,0.317,0.506,0.495,0.835c0.176,0.329,0.329,0.671,0.455,1.023c0.127,0.356,0.234,0.697,0.322,1.027
		c0.092,0.327,0.133,0.619,0.133,0.871c0,0.456-0.158,0.849-0.477,1.178c-0.321,0.328-0.724,0.493-1.209,0.493
		c-0.464,0-0.858-0.165-1.19-0.493c-0.332-0.329-0.499-0.722-0.499-1.178c-0.027-0.125-0.121-0.397-0.288-0.815
		c-0.161-0.417-0.334-0.751-0.508-1.004c-1.039-1.493-3.101-2.24-6.188-2.24c-0.731,0-1.449,0.089-2.145,0.265
		c-0.697,0.177-1.328,0.436-1.897,0.778c-0.57,0.342-1.024,0.759-1.366,1.252c-0.342,0.495-0.513,1.07-0.513,1.726
		c0,0.635,0.159,1.184,0.478,1.651c0.315,0.468,0.772,0.897,1.368,1.29c0.594,0.393,1.323,0.753,2.187,1.082
		c0.863,0.33,1.826,0.684,2.892,1.062l0.647,0.229c0.759,0.255,1.639,0.562,2.642,0.928c1.003,0.369,1.953,0.862,2.855,1.479
		c0.897,0.621,1.658,1.39,2.279,2.297c0.623,0.912,0.932,2.024,0.932,3.343c0,1.137-0.271,2.189-0.815,3.148
		c-0.546,0.961-1.257,1.787-2.13,2.484c-0.876,0.697-1.855,1.234-2.944,1.614C239.167,93.607,238.076,93.794,236.985,93.794"/>
</g>
</svg>
