<?xml version="1.0" encoding="utf-8"?>
<!-- Generator: Adobe Illustrator 16.0.0, SVG Export Plug-In . SVG Version: 6.00 Build 0)  -->
<!DOCTYPE svg PUBLIC "-//W3C//DTD SVG 1.1 Tiny//EN" "http://www.w3.org/Graphics/SVG/1.1/DTD/svg11-tiny.dtd">
<svg version="1.1" baseProfile="tiny" id="Layer_1" xmlns="http://www.w3.org/2000/svg" xmlns:xlink="http://www.w3.org/1999/xlink"
	 x="0px" y="0px" width="287px" height="125px" viewBox="0 0 287 125" xml:space="preserve">
<g>
	<g>
		<g>
			<path fill="#43A1DA" d="M29.646,37.877c0.016,0.172,0.039,0.35,0.066,0.527c0.014,0.104,0.029,0.193,0.047,0.283
				c0.043,0.219,0.09,0.434,0.152,0.652l0.037,0.148c0.158,0.551,0.379,1.096,0.656,1.621l0.143,0.293
				c8.738,16.85,5.09,30.993,2.324,37.654c0.225-0.138,0.459-0.267,0.693-0.386c0.014-0.006,0.025-0.015,0.037-0.021
				c0.551-0.277,1.104-0.537,1.658-0.801c0.264-0.123,0.523-0.257,0.787-0.379c0.393-0.18,0.787-0.348,1.182-0.521
				c0.438-0.191,0.873-0.391,1.311-0.573c0.371-0.155,0.742-0.296,1.113-0.442c0.465-0.186,0.928-0.377,1.395-0.554
				c0.369-0.138,0.742-0.266,1.113-0.397c0.467-0.164,0.934-0.338,1.404-0.496c0.377-0.126,0.756-0.239,1.135-0.359
				c0.465-0.146,0.93-0.295,1.395-0.434c0.379-0.11,0.76-0.209,1.139-0.313c0.469-0.128,0.938-0.263,1.406-0.38
				c0.373-0.093,0.744-0.176,1.115-0.264c0.482-0.113,0.963-0.227,1.445-0.331c0.354-0.071,0.707-0.138,1.059-0.206
				c0.398-0.078,0.797-0.162,1.195-0.233c0.473-3.028,0.711-6.103,0.711-9.141c0-3.401-0.297-6.846-0.887-10.236
				c-0.109-0.637-0.238-1.27-0.369-1.902c-0.039-0.189-0.07-0.381-0.111-0.572c-1.246-5.768-3.357-11.506-6.293-17.094
				c-0.197-0.371-0.422-0.721-0.666-1.059c-0.596-0.822-1.322-1.543-2.184-2.135l0,0c-0.121-0.066-0.244-0.139-0.303-0.176
				c-1.463-0.922-3.152-1.408-4.891-1.408c-3.074,0-5.916,1.5-7.592,4.018c-0.322,0.484-0.602,1.01-0.828,1.564
				c-0.125,0.316-0.203,0.543-0.27,0.768l-0.074,0.26c-0.041,0.164-0.084,0.355-0.125,0.547l-0.059,0.348
				c-0.025,0.148-0.047,0.309-0.064,0.467l-0.035,0.568c-0.004,0.086-0.006,0.176-0.006,0.262c0,0.15,0.002,0.299,0.014,0.449
				C29.626,37.635,29.634,37.756,29.646,37.877z"/>
			<path fill="#3991CC" d="M47.735,31.707c0.137,0.225,0.264,0.457,0.385,0.693c0.006,0.012,0.016,0.023,0.023,0.035
				c0.275,0.551,0.535,1.107,0.799,1.66c0.123,0.264,0.258,0.523,0.379,0.785c0.18,0.393,0.346,0.787,0.52,1.182
				c0.193,0.438,0.393,0.873,0.576,1.311c0.154,0.369,0.295,0.74,0.441,1.115c0.186,0.463,0.377,0.926,0.553,1.393
				c0.139,0.371,0.266,0.742,0.396,1.111c0.17,0.471,0.34,0.938,0.496,1.406c0.127,0.377,0.242,0.756,0.359,1.137
				c0.148,0.463,0.299,0.926,0.434,1.393c0.113,0.381,0.211,0.76,0.316,1.139c0.127,0.471,0.26,0.936,0.379,1.408
				c0.094,0.371,0.176,0.742,0.264,1.113c0.111,0.484,0.227,0.965,0.33,1.447c0.072,0.352,0.137,0.705,0.207,1.059
				c0.076,0.396,0.164,0.795,0.232,1.195c3.031,0.469,6.102,0.709,9.141,0.709c3.402,0,6.847-0.297,10.24-0.885
				c0.634-0.111,1.266-0.24,1.9-0.371c0.193-0.039,0.383-0.072,0.572-0.111c5.007-1.082,9.989-2.816,14.871-5.176
				c1.06-0.475,2.119-0.969,3.174-1.5c1.334-0.674,2.451-1.639,3.282-2.811c0.09-0.15,0.153-0.254,0.18-0.293
				c0.321-0.488,0.587-0.998,0.803-1.525c0.011-0.023,0.019-0.051,0.028-0.074c0.088-0.225,0.169-0.451,0.239-0.686
				c0.028-0.096,0.051-0.191,0.075-0.287c0.046-0.17,0.091-0.344,0.125-0.518c0.025-0.127,0.045-0.256,0.064-0.389
				c0.021-0.146,0.047-0.295,0.061-0.445c0.014-0.137,0.019-0.277,0.025-0.42c0.008-0.141,0.018-0.281,0.018-0.426
				c0-0.148-0.01-0.295-0.019-0.441c-0.006-0.135-0.011-0.27-0.024-0.402c-0.018-0.17-0.043-0.338-0.07-0.508
				c-0.016-0.104-0.031-0.211-0.052-0.316c-0.044-0.225-0.099-0.449-0.163-0.674c-0.009-0.035-0.018-0.07-0.028-0.107
				c-0.161-0.543-0.375-1.072-0.646-1.584c-1.557-2.965-4.645-4.807-8.061-4.807c-0.115,0-0.225,0.018-0.337,0.02l-0.212-0.012
				c-0.088-0.006-0.176-0.008-0.265-0.008c-0.148,0-0.298,0.002-0.448,0.014c-0.141,0.004-0.262,0.012-0.387,0.023
				c-0.17,0.016-0.35,0.039-0.523,0.066c-0.105,0.016-0.195,0.029-0.285,0.049c-0.218,0.041-0.435,0.09-0.651,0.148l-0.149,0.039
				c-0.551,0.158-1.096,0.379-1.622,0.654l-0.29,0.145c-3.98,2.066-7.811,3.432-11.428,4.287c-3.27,0.715-6.562,1.092-9.857,1.092
				c-7.111,0-12.771-1.643-16.371-3.086c0.01,0.016,0.016,0.029,0.023,0.041C47.753,31.713,47.743,31.709,47.735,31.707z"/>
			<path fill="#2674B0" d="M80.793,91.995c-0.243-0.473-0.484-0.948-0.716-1.424c-0.15-0.307-0.293-0.613-0.438-0.922
				c-0.217-0.462-0.428-0.924-0.633-1.387c-0.121-0.273-0.244-0.545-0.361-0.819c-0.281-0.658-0.555-1.318-0.816-1.98
				c-0.029-0.074-0.061-0.147-0.089-0.221c-0.298-0.763-0.577-1.527-0.845-2.294c-0.06-0.172-0.117-0.344-0.175-0.516
				c-0.211-0.619-0.413-1.241-0.605-1.863c-0.054-0.176-0.107-0.353-0.161-0.529c-0.47-1.575-0.879-3.157-1.228-4.742
				c-0.019-0.086-0.034-0.17-0.052-0.257c-0.129-0.598-0.249-1.198-0.357-1.8c-2.883-0.431-6.015-0.703-9.357-0.703
				c-3.475,0-7.004,0.293-10.494,0.873c-1.688,0.281-3.371,0.631-5.051,1.051h-0.002c-0.41,0.102-0.82,0.221-1.23,0.331
				c-0.43,0.116-0.861,0.225-1.291,0.351c-0.129,0.035-0.256,0.08-0.385,0.119c-4.057,1.205-8.07,2.799-12.002,4.783
				c-0.393,0.197-0.766,0.422-1.121,0.67c-0.955,0.667-1.75,1.523-2.377,2.503c-0.074,0.116-0.162,0.22-0.23,0.339
				c-0.049,0.088-0.096,0.178-0.133,0.268c-1.357,2.604-1.359,5.617-0.039,8.128c1.557,2.964,4.646,4.806,8.055,4.806
				c1.451,0,2.848-0.332,4.146-0.986c7.275-3.668,14.781-5.529,22.31-5.529c7.169,0,12.866,1.68,16.444,3.119
				c-0.142-0.225-0.299-0.445-0.424-0.683C81.017,92.454,80.909,92.224,80.793,91.995z"/>
			<path fill="#154D8A" d="M85.479,50.508c-0.499,0.166-1,0.318-1.499,0.475c-0.331,0.105-0.663,0.213-0.993,0.309
				c-0.598,0.176-1.199,0.338-1.799,0.496c-0.229,0.062-0.455,0.125-0.684,0.182c-0.646,0.164-1.292,0.314-1.939,0.457
				c-0.194,0.045-0.386,0.09-0.578,0.133c-0.808,0.17-1.615,0.332-2.427,0.473c-0.435,2.818-0.702,5.868-0.702,9.117
				c0,0.858,0.025,1.714,0.064,2.571c0,0.018,0.001,0.036,0.002,0.055c0.035,0.753,0.082,1.506,0.146,2.257
				c0.019,0.228,0.041,0.454,0.062,0.682c0.053,0.526,0.106,1.056,0.173,1.585c0.039,0.332,0.08,0.664,0.125,0.996
				c0.018,0.128,0.031,0.254,0.049,0.385c0.005-0.003,0.006-0.006,0.01-0.009c0.082,0.58,0.162,1.163,0.264,1.743
				c0.063,0.365,0.141,0.729,0.215,1.094h-0.002c0.002,0.019,0.008,0.037,0.01,0.055c0.051,0.251,0.096,0.502,0.146,0.754
				c0.039,0.19,0.07,0.382,0.111,0.57c0.047,0.207,0.099,0.412,0.145,0.616c0,0.006,0.002,0.009,0.004,0.012
				c0.143,0.634,0.294,1.265,0.46,1.898c0.006,0.03,0.013,0.06,0.02,0.087c0.031,0.119,0.067,0.239,0.099,0.359
				c0.02,0.071,0.041,0.143,0.061,0.212c0.152,0.556,0.307,1.108,0.475,1.665c0.057,0.191,0.115,0.383,0.175,0.574
				c0.02,0.06,0.04,0.119,0.06,0.178c0.164,0.525,0.336,1.05,0.515,1.574c0.001,0.003,0.005,0.01,0.006,0.016
				c0.054,0.159,0.108,0.322,0.165,0.482c0.023,0.074,0.055,0.148,0.082,0.222c0.195,0.554,0.4,1.104,0.613,1.655
				c0.037,0.102,0.07,0.201,0.111,0.301c0.036,0.092,0.073,0.184,0.111,0.274c0.237,0.604,0.488,1.206,0.746,1.809
				c0.007,0.016,0.013,0.03,0.019,0.046c0.007,0.013,0.013,0.027,0.017,0.041c0.734,1.7,1.531,3.395,2.413,5.071
				c0.196,0.374,0.421,0.724,0.665,1.061c0.039,0.055,0.092,0.101,0.131,0.154c0.198,0.257,0.408,0.501,0.633,0.734
				c0.138,0.146,0.275,0.288,0.425,0.427c0.235,0.213,0.479,0.416,0.737,0.605c0.091,0.067,0.166,0.148,0.26,0.213l-0.002,0.001
				c0.12,0.067,0.246,0.139,0.305,0.176c0.051,0.032,0.107,0.055,0.159,0.086c0.021,0.013,0.039,0.028,0.06,0.04
				c0.098,0.056,0.17,0.095,0.25,0.14c0.146,0.081,0.295,0.154,0.445,0.228c0.006,0.002,0.008,0.002,0.016,0.004
				c1.23,0.59,2.576,0.912,3.958,0.912c0.079,0,0.155-0.013,0.235-0.014c0.004,0,0.01-0.002,0.016-0.002
				c0.225-0.005,0.447-0.017,0.67-0.037c0.012-0.003,0.027-0.004,0.039-0.006c0.164-0.018,0.322-0.043,0.484-0.066
				c0.145-0.023,0.291-0.048,0.436-0.078c0.023-0.006,0.051-0.012,0.074-0.017c0.287-0.062,0.566-0.14,0.845-0.227
				c0.019-0.007,0.037-0.011,0.056-0.017c0.015-0.006,0.027-0.01,0.043-0.015c0.619-0.204,1.209-0.47,1.768-0.798
				c0.006-0.003,0.012-0.006,0.016-0.009c0.03-0.019,0.064-0.038,0.094-0.056l0.223-0.132c0.023-0.015,0.044-0.032,0.068-0.048
				l0.002-0.001c0.152-0.101,0.299-0.207,0.443-0.316l0.168-0.122c0.057-0.046,0.097-0.084,0.148-0.127
				c0.158-0.131,0.314-0.263,0.464-0.404c0.032-0.03,0.067-0.06,0.099-0.09c0.066-0.062,0.113-0.116,0.162-0.17l0.122-0.131
				c0.114-0.119,0.226-0.238,0.331-0.365l0,0l0.209-0.268c0.039-0.051,0.074-0.105,0.115-0.157c0.088-0.116,0.184-0.226,0.264-0.348
				c0.323-0.483,0.602-1.011,0.828-1.565c0.126-0.316,0.202-0.543,0.268-0.767l0.076-0.262c0.041-0.161,0.086-0.354,0.126-0.546
				l0.058-0.346c0.025-0.148,0.047-0.31,0.064-0.469l0.035-0.566c0.003-0.088,0.008-0.176,0.008-0.264
				c0-0.148-0.005-0.298-0.014-0.448c-0.005-0.142-0.014-0.263-0.023-0.387c-0.019-0.171-0.039-0.35-0.066-0.525
				c-0.016-0.103-0.031-0.193-0.049-0.284c-0.002-0.016-0.008-0.03-0.012-0.046c-0.002-0.019-0.006-0.039-0.008-0.058l-0.09-0.371
				c-0.016-0.059-0.025-0.116-0.042-0.176l-0.038-0.15c-0.01-0.035-0.025-0.068-0.035-0.104l-0.002-0.002
				c-0.045-0.158-0.092-0.293-0.142-0.43l-0.048-0.126c-0.006-0.021-0.016-0.04-0.023-0.061c-0.019-0.047-0.033-0.096-0.053-0.143
				c-0.008-0.017-0.014-0.032-0.021-0.049c-0.061-0.154-0.129-0.292-0.197-0.43c0,0.003,0,0.006,0,0.009
				c-0.047-0.096-0.085-0.193-0.133-0.287l-0.145-0.291c-0.844-1.627-1.57-3.229-2.195-4.802c0.027,0.06,0.056,0.126,0.081,0.183
				c-1.114-2.771-1.906-5.451-2.442-8.017c-0.002-0.006-0.002-0.012-0.005-0.021c-0.177-0.847-0.326-1.684-0.448-2.506
				c-0.004-0.012-0.004-0.021-0.005-0.033c-0.236-1.588-0.374-3.121-0.437-4.602c-0.003-0.09-0.008-0.182-0.012-0.271
				c-0.022-0.637-0.025-1.259-0.021-1.875c0-0.179,0.002-0.358,0.006-0.535c0.012-0.543,0.033-1.076,0.066-1.602
				c0.015-0.242,0.029-0.484,0.048-0.725c0.034-0.46,0.075-0.911,0.122-1.356c0.035-0.301,0.07-0.602,0.107-0.896
				c0.027-0.201,0.056-0.398,0.086-0.596c0.079-0.553,0.166-1.094,0.264-1.619c0.01-0.061,0.02-0.117,0.029-0.174
				c0.634-3.357,1.574-6.145,2.431-8.207c-0.006,0.002-0.012,0.006-0.019,0.012c0.002-0.006,0.006-0.01,0.006-0.012
				c-0.199,0.119-0.401,0.232-0.605,0.344c-0.025,0.012-0.052,0.025-0.076,0.041c-0.012,0.006-0.021,0.012-0.031,0.018
				c-0.002,0-0.004,0-0.006,0.004c-0.55,0.275-1.104,0.537-1.658,0.799c-0.261,0.125-0.523,0.26-0.785,0.379
				c-0.394,0.182-0.788,0.346-1.182,0.52c-0.438,0.195-0.873,0.393-1.311,0.574c-0.371,0.156-0.742,0.297-1.113,0.445
				c-0.463,0.186-0.928,0.377-1.391,0.551c-0.432,0.162-0.863,0.311-1.297,0.461C86.287,50.227,85.885,50.373,85.479,50.508z"/>
			<path fill="#154D8A" d="M109.177,74.452c6.748,0,12.238-5.367,12.238-11.966c0-6.6-5.49-11.967-12.238-11.967
				s-12.24,5.367-12.24,11.967C96.937,69.085,102.429,74.452,109.177,74.452z"/>
			<path fill="#3991CC" d="M64.612,30.84c6.748,0,12.235-5.371,12.235-11.967c0-6.602-5.487-11.971-12.235-11.971
				s-12.238,5.369-12.238,11.971C52.374,25.469,57.864,30.84,64.612,30.84z"/>
			<path fill="#43A1DA" d="M19.978,74.452c6.746,0,12.236-5.367,12.236-11.966c0-6.6-5.49-11.967-12.236-11.967
				c-6.75,0-12.24,5.367-12.24,11.967C7.737,69.085,13.228,74.452,19.978,74.452z"/>
			<path fill="#2674B0" d="M64.544,94.159c-6.748,0-12.238,5.369-12.238,11.969s5.49,11.97,12.238,11.97
				c6.747,0,12.236-5.37,12.236-11.97S71.291,94.159,64.544,94.159z"/>
		</g>
	</g>
	<g>
		<path fill="#154D8A" d="M162.291,74.949h-12.842l-2.294,7.918h-9.512l13.148-40.734h10.156l13.177,40.734h-9.512L162.291,74.949z
			 M151.548,67.676h8.645L155.94,53.1h-0.168L151.548,67.676z"/>
		<path fill="#154D8A" d="M198.633,72.068c0-1.437-0.476-2.546-1.427-3.329c-0.951-0.784-2.657-1.613-5.12-2.49
			c-5.147-1.623-8.962-3.361-11.442-5.218c-2.48-1.855-3.721-4.537-3.721-8.044c0-3.413,1.478-6.173,4.435-8.28
			c2.956-2.108,6.709-3.162,11.261-3.162c4.514,0,8.211,1.161,11.093,3.483s4.275,5.312,4.183,8.967l-0.056,0.168h-9.177
			c0-1.623-0.551-2.942-1.65-3.959c-1.102-1.017-2.621-1.524-4.561-1.524c-1.902,0-3.395,0.419-4.477,1.259
			c-1.082,0.839-1.622,1.874-1.622,3.105c0,1.193,0.545,2.149,1.636,2.867c1.092,0.719,3.139,1.618,6.142,2.7
			c4.625,1.38,8.108,3.077,10.449,5.092c2.341,2.014,3.511,4.784,3.511,8.309c0,3.581-1.395,6.384-4.183,8.407
			c-2.788,2.024-6.486,3.036-11.093,3.036c-4.626,0-8.626-1.161-12.002-3.483s-5.018-5.665-4.924-10.03l0.056-0.167h9.205
			c0,2.35,0.634,4.028,1.902,5.035c1.268,1.008,3.189,1.511,5.763,1.511c1.959,0,3.418-0.392,4.379-1.175
			C198.152,74.362,198.633,73.337,198.633,72.068z"/>
		<path fill="#154D8A" d="M238.64,65.438h-15.975v10.155h18.828v7.274h-28.312V42.133h28.368v7.273h-18.884v8.757h15.975V65.438z"/>
		<path fill="#154D8A" d="M267.429,74.949h-12.842l-2.294,7.918h-9.512l13.148-40.734h10.156l13.177,40.734h-9.512L267.429,74.949z
			 M256.686,67.676h8.645L261.078,53.1h-0.168L256.686,67.676z"/>
	</g>
</g>
</svg>
