<?xml version="1.0" encoding="utf-8"?>
<!-- Generator: Adobe Illustrator 19.0.0, SVG Export Plug-In . SVG Version: 6.00 Build 0)  -->
<svg version="1.1" id="Layer_1" xmlns="http://www.w3.org/2000/svg" xmlns:xlink="http://www.w3.org/1999/xlink" x="0px" y="0px"
	 viewBox="0 0 480 240" style="enable-background:new 0 0 480 240;" xml:space="preserve">
<style type="text/css">
	.st0{fill:#424242;}
	.st1{font-family:'Chalet-NewYorkNineteenEighty';}
	.st2{font-size:57.0514px;}
	.st3{letter-spacing:-1;}
	.st4{fill:url(#XMLID_17_);}
	.st5{fill:#414042;}
</style>
<g id="XMLID_10_">
	<text id="XMLID_116_" transform="matrix(1 0 0 1 216.6454 82.2298)"><tspan x="0" y="0" class="st0 st1 st2 st3">Buenos</tspan><tspan x="0" y="53.1" class="st0 st1 st2 st3">Aires</tspan><tspan x="0" y="106.2" class="st0 st1 st2 st3">Ciudad</tspan></text>
	<g id="XMLID_11_">
		<g id="XMLID_680_">
			<path id="XMLID_730_" class="st0" d="M131.9,65.3c-0.4,0-0.7,0.3-0.7,0.7c0,0.4,0.3,0.7,0.7,0.7c0.4,0,0.7-0.3,0.7-0.7
				C132.6,65.7,132.2,65.3,131.9,65.3"/>
			<path id="XMLID_725_" class="st0" d="M167.1,76.1l-0.1,0c-3.6-0.1-7.1-1.5-10.5-2.7c-1.4-0.5-2.8-1-4.2-1.5
				c-2.8-0.9-5.2-1.4-7.5-1.5c-0.6,0-1.2,0-1.8,0c-1.5,0-3.7,0.2-5.1,1.5c-0.4-1.7-0.8-3.6-1.6-5.5c-0.7-1.7-1.7-3.8-3.6-4.3
				c-0.3-0.1-0.6-0.1-0.9-0.1c-1.8,0-3.2,1.6-3.9,2.6l-0.3,0.4c-0.8,1.1-1.2,1.7-1.1,2.3c0.1,0.5,0.8,1,2.3,1.8
				c0.6,0.4,0.8,1.3,0.9,2v0.1c0.1,1,0.2,2,0.2,3c-2.1-2.2-5.3-3-8.3-3.6c-0.8-0.1-1.6-0.2-2.4-0.2c-3.3,0-6.6,1.3-8.8,2.2
				c-1.2,0.5-2.5,1.1-3.7,1.7c-2.3,1.1-4.7,2.2-7.1,3c-0.8,0.2-1.5,0.4-2.5,0.6h-0.1c0,0,0,0-0.1,0l-0.1,0c-0.4,0.1-1,0.3-1.1,0.8
				c-0.1,0.6,0,1,0.7,1.6c1.8,1,4,1.5,6.7,1.5c0.6,0,1.1,0,1.7-0.1c0.8,0,1.6-0.1,2.5-0.3c1.3-0.2,2.5-0.3,3.7-0.3
				c0.8,0,1.6,0.1,2.3,0.2c2,0.5,3.2,2.4,4.2,4.2c0.3,0.4,0.5,0.9,0.8,1.2l0,0c0.5,0.7,1.3,1.9,1.2,2.9c0,0.9-1.3,1.6-2.2,2.2
				c-0.2,0.2-0.5,0.3-0.6,0.4c-0.3,0.2-0.6,0.4-1,0.6c-2,1.3-4.8,3-4.4,5.4c0.1,1.2,1.1,2.1,2.3,2.2c0.1,0,0.2,0,0.3,0
				c0.8,0,1.6-0.4,2.3-0.8c0.3-0.2,0.6-0.3,0.9-0.5c1-0.4,1.9-0.6,2.9-0.6c1.6,0,3.2,0.5,4.6,1.6c0.5,0.4,0.9,0.8,1.3,1.2
				c0.5,0.5,0.9,0.9,1.4,1.3c0.4,0.3,1.2,0.6,1.9,0.6c0.7,0,1.1-0.3,1.2-0.9c0.2-1.2,0.2-2.4,0.2-3.6c0-0.9,0-1.9,0.1-2.9
				c0.1-0.6,0.2-1.7,1-2.1c0.2-0.1,0.5-0.2,0.9-0.2c0.4,0,0.8,0.1,1.2,0.1c0.5,0.1,1.1,0.2,1.5,0.1c2.1-0.3,3.9-2,4.7-4.6
				c0.4-0.9,0.9-1.3,1.8-1.5c1.1-0.3,1.7-1.1,2.4-2c0.2-0.2,0.3-0.4,0.5-0.6c1.3-1.6,3-2.3,5.3-2.3c0.4,0,0.9,0,1.4,0.1
				c0.5,0,0.9,0.1,1.4,0.2c1.2,0.1,2.4,0.3,3.6,0.3c1.3,0,2.4-0.2,3.5-0.5c2.7-0.9,5.2-2.7,7.4-4.5l0.3-0.3c0.6-0.5,0.8-0.9,0.6-1.4
				C168.2,76.3,167.4,76.2,167.1,76.1 M119.7,84.3c-0.5-0.9-1.1-1.8-1.8-2.7c-1.6-2-3.7-2.8-6.9-2.8c-1.3,0-2.7,0.2-4.1,0.3
				c-1.3,0.1-2.7,0.3-4,0.3c-0.7,0-1.3,0-1.9-0.1c2.3-0.8,4.5-1.8,6.6-2.8c2.3-1.1,4.6-2.2,7.1-3c1.5-0.5,3.1-0.7,4.7-0.7
				c2.9,0,5.7,0.8,7.9,2.3c1.9,1.2,2.4,2.5,1.8,4.3c-0.7,1.9-1.8,3.8-3.4,5.6c-0.1,0.1-0.2,0.3-0.4,0.4c-0.7,0.8-1.9,2.2-2.9,2.2
				c-0.3,0-0.6-0.1-0.8-0.4C120.9,86.4,120.3,85.3,119.7,84.3 M138.3,87c-0.2,1.6-0.9,3-1.8,3.9c-0.9,0.8-1.8,1-3.1,1
				c-0.2,0-0.4,0-0.6,0c-0.2,0-0.5,0-0.7,0c-0.8,0-1.5,0.3-2,0.8c-1.5,1.6-1.5,4.9-1.5,7.2v0.7l-0.2-0.1c-1.9-1.8-3.7-3.5-6.5-3.9
				c-0.4-0.1-0.9-0.1-1.3-0.1c-0.8,0-1.7,0.1-2.6,0.3c-0.8,0.2-1.4,0.5-2.1,0.8c-0.3,0.1-0.5,0.2-0.8,0.4c-0.3,0.1-0.8,0.3-1,0.3
				c-0.1,0-0.1,0-0.2,0c0,0,0-0.1,0-0.2c0.2-0.9,1.3-1.6,2-2.1l0.2-0.1c2-1.4,3.9-2.7,5.8-4.2c3.4-2.7,7.2-6,9.1-10.5
				c1.1-2.5,1.5-5.4,1.3-8.4l0-0.2c-0.1-1.2-0.2-2.5-0.7-3.6c-0.4-0.9-1.1-1.4-1.9-1.8c-0.2-0.1-0.3-0.2-0.4-0.3
				c0.4-0.7,1.4-2.5,2.5-2.5c0.4,0,0.9,0.3,1.3,0.8c1.4,1.9,2,4.1,2.5,6.1c0.1,0.3,0.2,0.7,0.3,1.1C137.1,76.1,138.9,82.5,138.3,87
				 M161.7,79.8c-1.9,1.1-3.5,1.6-5.1,1.6h-0.1c-1,0-2.1-0.2-3.1-0.3c-0.9-0.1-1.8-0.2-2.6-0.3c-2.2-0.1-3.9,0.3-5.3,1.1
				c-0.9,0.6-1.6,1.4-2.2,2.2c-0.5,0.6-0.9,1.1-1.5,1.6c-0.2,0.1-0.4,0.3-0.6,0.3h0c-0.3,0-0.3-0.2-0.3-0.5c0-0.1,0-0.2,0-0.2
				c0-0.8-0.2-1.6-0.3-2.4l-0.1-0.4c-0.2-1.4-0.4-2.9-0.7-4.3c0-0.2-0.1-0.5-0.3-0.9c-0.4-1.3-0.9-2.8,0.1-3.6
				c0.6-0.5,1.6-0.6,2.3-0.6c0,0,0.7-0.1,1.6-0.1h0.3c0.9,0,1.9,0.1,2.8,0.2c1.7,0.2,3.6,0.7,5.8,1.4c1.2,0.4,2.4,0.8,3.5,1.3
				c2.7,1,5.4,2,8.3,2.5C163.3,78.8,162.5,79.4,161.7,79.8"/>
			<path id="XMLID_681_" class="st0" d="M191.5,101.1c-0.8-5.1-2.1-10.1-3.8-14.9c-1.6-4.6-3.7-9.2-6.2-13.4
				c-1.9-3.3-4.1-6.5-6.5-9.4c-3.1-3.8-6.6-7.2-10.5-10.2c-3.8-2.9-7.9-5.4-12.3-7.3c-4.4-1.9-9-3.1-13.7-3.8
				c-4.8-0.6-9.7-0.6-14.4,0.2c-4.7,0.7-9.3,2.1-13.6,4.1c-4.3,2-8.4,4.6-12.1,7.6c-3.8,3.1-7.2,6.6-10.2,10.4
				c-3,3.8-5.5,7.8-7.7,12.1c-2.3,4.4-4.1,9.1-5.5,13.9c-1.5,5-2.5,10.1-3,15.3c-0.6,5.4-0.6,10.8-0.2,16.2
				c0.4,5.2,1.3,10.4,2.6,15.5c1.3,4.9,3,9.6,5.1,14.1c2.1,4.4,4.5,8.5,7.4,12.4c3.2,4.4,11.4,12.1,11.4,12.1
				c9.6,7.9,21.3,12.5,33.8,12.5h0c4.8,0,9.6-0.7,14.2-2c4.6-1.3,8.9-3.3,13-5.7c4.1-2.5,7.9-5.5,11.3-9c3.4-3.4,6.4-7.2,9.1-11.2
				c2.7-4.1,4.9-8.4,6.8-12.9c1.9-4.7,3.4-9.6,4.4-14.6c1.1-5.2,1.7-10.5,1.8-15.8C192.7,111.8,192.3,106.4,191.5,101.1 M84.2,136.2
				h-1.5l1.4-5.2c0.1-0.4,0.2-0.4,0.3-0.2C84.3,132.6,84.3,134.4,84.2,136.2 M85,121.9l-3.1-1.4c-0.2-0.1-0.2-0.1,0-0.1h6.7
				c0.2,0,0.2,0.1,0,0.1l-3,1.4C85.5,122,85.2,122,85,121.9 M81.1,119l3.5-2.5c0,0.8,0,1.6,0,2.5H81.1z M82.3,110.6h5.9
				c0.2,0,0.2,0.1,0,0.1l-2.7,1.2c-0.2,0.1-0.4,0.1-0.6,0l-2.8-1.3C82.1,110.7,82.1,110.6,82.3,110.6 M81.5,109.4l3.2-2.1
				c0,0.7,0,1.4,0,2.1H81.5z M85.9,107.3l3.1,2.1h-3.1C85.9,108.7,85.9,108,85.9,107.3 M86,116.5l3.5,2.5H86
				C86,118.1,86,117.3,86,116.5 M86.3,136.2c0-1.7-0.1-3.6-0.1-5.4c0-0.1,0.1-0.2,0.2,0.1l1.4,5.3H86.3z M132,183.1
				c-9.2,0-17.9-2.8-25.6-7.8c6,0,11.9,0.8,17.7,1.6c5.9,0.9,11.8,1.9,17.7,2.5c2.3,0.2,4.6,0.4,6.9,0.5
				C143.4,182,137.8,183.1,132,183.1 M159.1,174.4c-5.8,0.6-11.8,0.3-17.6-0.3c-5.8-0.6-11.6-1.6-17.4-2.5c-6-0.9-12-1.6-18.1-1.6
				c-2.1,0-4.1,0.1-6.1,0.3c-1.9-1.7-3.7-3.6-5.5-5.5c6.1-0.9,12.3-0.9,18.4-0.4c6.1,0.4,12.2,1.3,18.3,2.2c3.1,0.5,6.1,0.9,9.2,1.3
				c1.5,0.2,7.6,0.7,9.1,0.7c6.1,0,12.2-0.5,18.3-1.4C164.9,169.9,162.1,172.3,159.1,174.4 M173,160.7c-5.9,1.4-11.9,2.2-17.9,2.5
				c-3,0.2-6,0.2-9,0.1c-3-0.1-6.1-0.6-9.1-1.1c-6.1-0.9-12.1-1.8-18.2-2.5c-6.1-0.7-12.2-1-18.3-0.7c-3.3,0.2-6.6,0.5-9.9,1.2
				c-1.1-1.6-2.2-3.2-3.2-4.9c5.4-1.1,10.8-1.8,16.4-2c5.6-0.2,11.1,0.2,16.6,0.9c5.3,0.7,10.6,1.7,16,2.4c4.9,0.7,9.8,1.1,14.7,1.1
				h0c5.1,0,10.2-0.4,15.3-1.3c3.7-0.6,7.3-1.4,10.9-2.3C176,156.4,174.5,158.6,173,160.7 M91.7,142c-2.5-1.7-2.9-4.4-2.7-5
				l7.9-18.6c0.2-0.3,0.2-0.2,0.2,0L91.7,142z M96.9,124.4c-0.1,8.3-0.2,16.1-0.3,19.8c-1.4-0.4-2.9-0.9-4.1-1.7l4.2-18.5
				C96.8,123.9,96.9,124.1,96.9,124.4 M94.8,108.1h5.9c0.1,0,0.2,0.1,0,0.1l-2.7,1.3c-0.1,0.1-0.4,0.1-0.5,0l-2.8-1.3
				C94.6,108.2,94.6,108.1,94.8,108.1 M94.1,106.9l3.1-2.1c0,0.7,0,1.4,0,2.1H94.1z M98.4,104.9l3.1,2h-3.1
				C98.5,106.2,98.4,105.5,98.4,104.9 M104.8,132.2c-0.1,4-0.2,8-0.3,11.1c0,0-0.1,0-0.1,0.1l-2.6-11.5l1.4-3.4L104.8,132.2z
				 M103.7,127.2l1-2.5c0.1-0.2,0.2-0.1,0.2,0c0,1.6-0.1,3.3-0.1,5.1L103.7,127.2z M101.1,133.4l2.6,10.5c-0.9,0.4-2,0.6-3,0.7
				c-0.3,0-0.7,0.1-1,0.1c-0.2,0-0.4,0-0.6,0c0-1.4,0-3.5-0.1-6.1L101.1,133.4z M98.9,136.1c0-3.5-0.1-7.5-0.2-11.7
				c0-0.3,0.1-0.6,0.3-0.1l1.7,7.4L98.9,136.1z M101.4,130.2l-2.7-11.7c0-0.2,0-0.3,0.2,0l3.8,8.8L101.4,130.2z M106.6,133.8v-1.7
				c-0.1-3.1-0.2-4.5-0.2-7.3c0-0.2,0.1-0.3,0.2-0.1l4.7,11.8c-0.8,1.5-0.9,2.1-2.1,3.3L106.6,133.8z M108.4,140.6
				c-0.5,0.5-1.1,1.1-1.6,1.5c0-1.6-0.1-3.7-0.1-5.5L108.4,140.6z M113.2,136l5.4-11.6c-0.1,3.3-0.2,8.1-0.3,11.6h-2.2
				C115.3,136,114,136.1,113.2,136 M151.8,121.2h7.8c0.2,0,0.2,0.1,0.1,0.1c0,0-3.6,1.7-3.6,1.7c-0.2,0.1-0.5,0.1-0.7,0l-3.6-1.7
				C151.5,121.3,151.6,121.2,151.8,121.2 M150.9,119.7l4.1-2.9c0,0.9,0,2.8,0,2.9H150.9z M152.4,108.2c0,0,0.1,0,0.1,0h6.5
				c0.1,0,0.1,0,0.1,0h0h0c0,0,0,0.1-0.1,0.1l-2.9,1.4c-0.2,0.1-0.4,0.1-0.6,0l-3-1.4C152.4,108.3,152.3,108.2,152.4,108.2
				 M151.7,106.8l3.5-2.5c0,0.8,0,1.6,0,2.5H151.7z M156.3,104.4l3.5,2.4h-3.4C156.4,106,156.4,105.2,156.3,104.4 M156.5,116.8
				l4.1,2.9h-4C156.6,118.7,156.5,117.7,156.5,116.8 M168.3,113.6h6.7c0.2,0,0.2,0,0,0.1l-3,1.4c-0.2,0.1-0.4,0.1-0.6,0l-3.1-1.4
				C168.1,113.7,168.1,113.6,168.3,113.6 M167.5,112.3l3.5-2.5c0,0.8,0,1.6,0,2.5H167.5z M172.3,109.8l3.5,2.5h-3.5
				C172.4,111.4,172.4,110.6,172.3,109.8 M170.8,124.1c-0.1,8.1-0.3,16.7-0.3,22.8c-2,0.7-3.7,0.9-5.1,0.7l3.3-14.8l2-8.7
				C170.7,124,170.8,123.8,170.8,124.1 M170.4,120.7l-5.8,25.6l-2.5-6.9l0,0l7.9-19C170.2,120,170.5,119.8,170.4,120.7 M164,147.4
				c-1.8-0.4-3.3-1.3-4.3-2.2l1.9-4.5L164,147.4z M158.9,144.5c-1.1-1.2-1.8-2.4-2-2.9c0-3.9-0.1-9.7-0.2-15.9l4.4,13.5L158.9,144.5
				z M149.4,141.4h-9.5l14.2-16L149.4,141.4z M154.8,125.8c-0.1,3.6-0.2,15.2-0.2,15.6h-4.3L154.8,125.8z M172.5,124.1
				c0-0.3,0.1-0.2,0.2,0.1l4,17.2c-0.9,2-2.6,3.5-3.9,4.4C172.8,142.6,172.5,124.2,172.5,124.1 M177.7,141.3l-4.9-20.4
				c-0.1-1.2,0.2-0.8,0.4-0.3l8.9,20.7H177.7z M185.7,131.3c-0.7,3.3-1.5,6.5-2.6,9.6l-10.7-25.3l4.7-2.1c0.5-0.2,0.5-0.9,0-1.2
				c0,0-4.6-3.3-4.9-3.4l-0.1-7.8c0.6-0.1,1.1-0.3,1.7-0.4c0.6-0.1,1.2,0,1.8,0.1c0.6,0.1,1.1,0.1,1.7,0c0.5-0.1,1-0.4,1.4-0.8
				c-1.2,0-2.2-0.8-3.3-1.3c-0.5-0.3-1.1-0.4-1.7-0.5c-0.6-0.1-1.3-0.1-1.8,0.1c-0.1-0.4-0.1-0.9-0.2-1.4h-0.3
				c-0.4,2.1-0.3,4.4-0.4,6.6c0,1.5,0,3,0,4.5c0,0.3,0,0.5,0,0.8l-4.8,3.4c-0.5,0.2-0.5,0.9,0,1.2v0l4.5,2.1l-9.2,22.3l-4.7-14.4
				l5.2-2.5c0.5-0.3,0.6-1.1,0-1.4c0,0-4.9-3.5-5.6-3.9c0-1.8-0.1-3.8-0.1-5.5l4.8-2.3v0c0.5-0.2,0.5-0.9,0-1.2c0,0-4.3-3-4.9-3.5
				c0-3.5-0.1-7-0.1-10.6c0.3,0,0.5-0.1,0.8-0.2c0.3-0.1,0.6-0.2,0.9-0.3c0.6-0.1,1.2,0,1.8,0.1c0.6,0.1,1.2,0.2,1.7,0
				c0.5-0.1,1-0.4,1.4-0.8c-1.2,0-2.2-0.8-3.3-1.3c-0.5-0.3-1.1-0.4-1.7-0.5c-0.6-0.1-1.3-0.1-1.8,0.1c0-0.4-0.1-0.9-0.2-1.4h-0.2v0
				c-0.3,1.9-0.4,3.9-0.4,5.9c0,1.8,0,3.6-0.1,5.4c0,1.2,0,2.3-0.1,3.5l-4.9,3.5c-0.5,0.3-0.5,1,0,1.2l4.8,2.2l0,0
				c0,1.7,0,3.7-0.1,5.5l-5.6,3.9c-0.6,0.3-0.6,1.1,0,1.4l5.1,2.5l-16,17.8c-0.3,0-2.3,0-2.6,0.4c-0.4,0.3-0.4,0.8-0.3,1.3
				c0.2,0.6,0.7,1,1.3,1.3c0.3,0.2,0.6,0.3,0.9,0.4c0,0,0.1,0,0.1,0.1c0,0,1.4,4.8,7.6,7h0c0,0,0.2,0.1,0.1,0.2c0,0,0,0.1,0,0.1
				c0,0-0.1,0-0.2,0c-5.9-0.4-11.7-1.3-17.5-2.2c-2.2-0.4-4.5-0.7-6.7-1c-1.5-0.2-3-0.4-4.5-0.6c-0.1-0.1-0.2-0.1-0.2-0.2v0
				c0,0,0,0,0,0v0c0,0,0,0,0,0c0,0,0-0.1,0.1-0.1c0,0,0,0,0,0c8.2-2.4,9.9-8.4,9.9-8.4c0.1-0.1,0.2-0.1,0.3-0.2
				c0.2-0.1,0.5-0.2,0.7-0.3c0.5-0.3,1-0.7,1.3-1.3c0.2-0.4,0.2-0.9-0.2-1.3c-0.3-0.4-2.6-0.4-2.6-0.4l0,0h-0.4c0-1.3,0-4.6-0.1-6.7
				c0.2,0.1,0.5,0,0.8,0c0.3-0.1,0.6-0.2,0.9-0.3c0.6-0.2,1.2-0.1,1.9,0c0.6,0.1,1.2,0.2,1.8,0c0.6-0.1,1-0.4,1.5-0.8
				c-1.2,0-2.2-0.8-3.3-1.3c-0.6-0.3-1.2-0.4-1.8-0.4c-0.6,0-1.3-0.1-1.9,0.2c0-0.5-0.1-1-0.1-1.3h-0.2c-0.3,1.8-0.3,8.2-0.3,10.7
				l-4.1,0c-0.1-4.5-0.3-10.5-0.4-14.3l3.6-7.6c0.5,0.2,1,0.2,1.5,0.4c0.6,0.2,1,0.5,1.5,0.9c0.4,0.4,0.9,0.7,1.4,0.9
				c0.6,0.2,1.2,0.2,1.8,0.1c-1-0.6-1.5-1.7-2.1-2.7c-0.3-0.5-0.8-0.9-1.2-1.2c-0.5-0.4-1.1-0.7-1.7-0.9c0.1-0.4,0.3-1,0.3-1.3
				c0,0,0-0.1-0.1-0.2c0,0-0.1,0-0.1,0c-0.2,0-0.2,0.1-0.3,0.3c-0.3,0.4-0.8,1.1-0.8,1.3l-3.8,8.2c0-1.3-0.1-2.6-0.1-3.9
				c0-1.6-0.1-3.2-0.3-4.8h-0.2c-0.3,1.9-0.3,3.9-0.4,5.9c0,1.8-0.1,3.5-0.1,5.3l-6.6,13.6l-5.9-14.4c-0.1-1.8-0.1-3.6-0.1-5.3
				c0-2,0-4-0.4-6h-0.2c-0.3,2-0.3,4-0.4,5.9c0,1.8-0.1,3.6-0.1,5.4l-1.9,4.4l-4.6-10.7c0-1.8,0-3.5-0.1-5.2l4.2-2
				c0.4-0.2,0.4-0.8,0-1c0,0-3.5-2.5-4.3-3.1c-0.1-3.7-0.1-7.4-0.1-11c0.3,0,0.5-0.1,0.8-0.2c0.3-0.1,0.6-0.2,0.9-0.3
				c0.6-0.1,1.2,0,1.8,0.1c0.6,0.1,1.2,0.2,1.7,0c0.5-0.1,1-0.4,1.4-0.8c-1.2,0-2.2-0.8-3.2-1.3c-0.5-0.3-1.1-0.4-1.7-0.5
				c-0.6-0.1-1.3-0.1-1.9,0.1c0-0.5-0.1-1-0.2-1.4h-0.2c-0.4,2.4-0.4,4.7-0.4,7.1c0,2.3-0.1,4.6-0.1,6.9c0,0.4,0,0.9,0,1.3l-4.3,3.1
				c-0.4,0.2-0.4,0.8,0,1.1l4.2,2c0,1.9-0.1,5-0.1,5.2l-8.5,20l-1.3-4.6h1.1l0,0h0.6c0.2,0,0.5-0.1,0.7-0.2c0.2,0,0.5-0.2,0.5-0.4
				c0-0.2-0.3-0.3-0.5-0.4c-0.2-0.1-0.5-0.2-0.8-0.2h-2l-0.8-3.2c0-1.3,0-2.6-0.1-3.9l4.7-2.2c0.5-0.2,0.5-0.9,0-1.2
				c0,0-4.5-3.2-4.8-3.4c0-0.9,0-2.2,0-3.1l4.2-2c0.4-0.2,0.4-0.8,0-1.1c0,0-3.8-2.7-4.4-3.1c0-3.1-0.1-5.1-0.1-5.4
				c0.5,0,1-0.2,1.5-0.3c0.5-0.1,1.1,0,1.6,0c0.5,0.1,1,0.2,1.5,0.1c0.5-0.1,0.9-0.4,1.3-0.7c-1.1,0-2-0.7-2.9-1.1
				c-0.5-0.2-1-0.4-1.5-0.4c-0.5-0.1-1.2-0.1-1.6,0.1c-0.1-0.4-0.1-0.8-0.2-1.3h-0.2c-0.3,1.7-0.3,3.4-0.4,5.1c0,1.5,0,2.5-0.1,3.9
				l-4.3,3.1c-0.4,0.2-0.4,0.9,0,1.1l4.2,2c0,0.9,0,2.2,0,3.1l-4.8,3.4c-0.5,0.2-0.5,0.9,0,1.2l4.6,2.2c0,1.3,0,2.6-0.1,3.9
				l-0.8,3.2h-1.9c-0.3,0-0.5,0.1-0.7,0.1c-0.2,0.1-0.5,0.2-0.5,0.4c0,0.2,0.3,0.3,0.5,0.4c0.2,0.1,0.5,0.2,0.8,0.2h0.5c0,0,0,0,0,0
				h1.1l-1.5,5.6h-2.3c-1.4-5.4-2.3-10.9-2.6-16.4c-0.3-5.5-0.1-11.1,0.7-16.6c0.7-5.1,1.9-10.1,3.6-15c1.6-4.6,3.7-9.1,6.2-13.3
				c1.3-2.2,2.8-4.4,4.3-6.4c6.4,2.1,14.6,0.2,14.6,0.2c7.4-1.3,12-1.1,14.7-0.7l1.4,0.3c0.2-0.9,0.3-1.6,0.5-2.4
				c-7.8-2.5-16.5-1.3-16.5-1.3C101.2,65,98,63.9,96.3,63c0,0,3.3-3.5,6.1-5.5c2.4,1.7,5.4,2.6,8.2,3.1c1.9,0.3,3.8,0.5,5.6,0.9
				c1.9,0.4,3.8,1,5.6,1.6c0.6,0.2,1.5,0.6,1.9,0.8c0.3-0.8,0.8-1.4,1.3-2.1l-1.2-0.8c-2.4-1.4-4.7-2.1-7.2-2.9
				c-1.7-0.5-3.3-1.1-4.9-1.9c-2.2-1.1-3.5-2.6-3.6-2.7c0,0,3.7-2.3,7.2-3.6c1.6,2.3,4.6,3.6,6.6,5.3c2.9,2.5,4.4,4.7,4.5,5
				c0.7-0.5,1.3-0.9,2.2-1.2c-1.2-2.5-2.8-5.4-4.8-7.3c-0.9-0.8-2.2-2.3-2.6-3.7c0,0,4.6-1.2,8.2-1.2l1.3,11.7
				c0.5-0.1,1.2-0.1,1.2-0.1s0.5,0,1.2,0.1l1.3-11.7c0,0,3.1,0.2,5.7,0.7c1.4,0.3,2.5,0.6,2.5,0.6c-0.4,1.4-1.7,2.9-2.6,3.7
				c-2,1.9-3.6,4.7-4.7,7.3c0.7,0.3,1.4,0.6,2.2,1.2c1.3-2,3-3.7,4.5-5c2-1.7,5-3.1,6.6-5.3c0.4,0.2,2.2,0.8,5.1,2.3l2.1,1.2
				c-0.1,0.1-2.4,2-3.6,2.7c-1.6,0.9-3.2,1.4-4.9,1.9c-2.5,0.8-4.8,1.5-7.2,2.9l-1.2,0.7c0.5,0.6,0.9,1.3,1.3,2.1
				c0.4-0.2,1.3-0.6,1.9-0.8c1.8-0.6,3.7-1.2,5.6-1.6c1.8-0.4,3.7-0.6,5.6-0.9c2.8-0.5,5.8-1.4,8.2-3.1c3,2.3,6.1,5.5,6.1,5.5
				c-1.7,0.9-4.9,2-10.2,1.5c0,0-8.7-1.2-16.5,1.2c0.2,0.7,0.3,1.2,0.5,2.4l1.5-0.2c2.8-0.4,7.3-0.6,14.7,0.8c0,0,8.2,2,14.6-0.2
				c0.6,0.8,1.2,1.7,1.8,2.5c2.7,4,5,8.2,6.9,12.7c2,4.7,3.5,9.5,4.5,14.5c1.1,5.2,1.6,10.5,1.7,15.9
				C187.3,119.8,186.8,125.6,185.7,131.3"/>
		</g>
	</g>
</g>
<g id="XMLID_62_">
	<g id="XMLID_117_">
		<linearGradient id="XMLID_17_" gradientUnits="userSpaceOnUse" x1="738.1178" y1="162.1154" x2="738.1178" y2="65.3567">
			<stop  offset="0" style="stop-color:#00B9F2"/>
			<stop  offset="3.984272e-02" style="stop-color:#00BDE9"/>
			<stop  offset="0.1181" style="stop-color:#5FC8DA"/>
			<stop  offset="0.2124" style="stop-color:#AADAC3"/>
			<stop  offset="0.3156" style="stop-color:#CBE4B6"/>
			<stop  offset="0.4164" style="stop-color:#EDEFA6"/>
			<stop  offset="0.5203" style="stop-color:#EFE995"/>
			<stop  offset="0.7311" style="stop-color:#F4DE6B"/>
			<stop  offset="1" style="stop-color:#FAD012"/>
			<stop  offset="1" style="stop-color:#FFD200"/>
		</linearGradient>
		<path id="XMLID_118_" class="st4" d="M864.8,140.8L815.3,35.5c-4.3-9.3-13-15.7-23.2-15.7h0h0c-10.2,0-18.9,6.4-23.2,15.7
			l-34.9,74.1C730,102,723.8,96,716.3,92.8c8.4-6.6,13.8-17.5,13.8-29.7c0-14.2-7.3-26.5-18-32.5c-9.4-5.5-20.2-8.5-31.6-8.5h-52.2
			c-10.7,0-19.4,9.5-19.4,21.3V150c0,11.8,8.7,21.3,19.4,21.3h18.8h37.6c10.9,0,21.2-2.5,30.6-6.9l3.6-1.9c0.2-0.1,0.4-0.2,0.6-0.3
			c3.4,6.2,9.5,10.3,16.6,10.3c7.8,0,14.6-5.1,17.7-12.5c1.5-3.9,4.9-6.7,9-6.9h58.5c4.1,0.2,7.5,3,9,6.9c3,7.4,9.8,12.5,17.7,12.5
			c10.7,0,19.4-9.6,19.4-21.3C867.3,147.4,866.4,143.9,864.8,140.8z"/>
	</g>
	<g id="XMLID_63_">
		<text id="XMLID_30_" transform="matrix(1 0 0 1 608.9005 203.041)" class="st5 st1" style="font-size:27.5975px;">Vamos Buenos Aires</text>
	</g>
</g>
</svg>
