<?xml version="1.0" encoding="utf-8"?>
<!-- Generator: Adobe Illustrator 16.0.3, SVG Export Plug-In . SVG Version: 6.00 Build 0)  -->
<!DOCTYPE svg PUBLIC "-//W3C//DTD SVG 1.1//EN" "http://www.w3.org/Graphics/SVG/1.1/DTD/svg11.dtd">
<svg version="1.1" id="Layer_1" xmlns="http://www.w3.org/2000/svg" xmlns:xlink="http://www.w3.org/1999/xlink" x="0px" y="0px"
	 width="857.195px" height="892.913px" viewBox="166.677 252.568 857.195 892.913"
	 enable-background="new 166.677 252.568 857.195 892.913" xml:space="preserve">
<g>
	<path fill="#53A6DB" d="M1000.062,526.394v595.275H190.488V526.394H1000.062 M1023.872,502.584H166.677v642.896h857.195V502.584
		L1023.872,502.584z"/>
</g>
<g>
	<path fill="#53A6DB" d="M1000.062,324.001v130.961H190.488V324.001H1000.062 M1023.872,300.19H166.677v178.583h857.195V300.19
		L1023.872,300.19z"/>
</g>
<g>
	<g>
		<rect x="369.071" y="657.355" fill="#53A6DB" width="23.811" height="404.786"/>
	</g>
	<g>
		<rect x="226.204" y="657.355" fill="#53A6DB" width="23.812" height="404.786"/>
	</g>
	<g>
		<rect x="940.534" y="657.355" fill="#53A6DB" width="23.811" height="404.786"/>
	</g>
	<g>
		<rect x="511.936" y="657.355" fill="#53A6DB" width="23.812" height="404.786"/>
	</g>
	<g>
		<rect x="654.802" y="657.355" fill="#53A6DB" width="23.812" height="404.786"/>
	</g>
	<g>
		<rect x="797.668" y="657.355" fill="#53A6DB" width="23.811" height="404.786"/>
	</g>
	<g>
		<rect x="250.016" y="776.41" fill="#53A6DB" width="690.519" height="23.812"/>
	</g>
	<g>
		<rect x="226.204" y="633.545" fill="#53A6DB" width="738.141" height="23.811"/>
	</g>
	<g>
		<rect x="226.204" y="1062.142" fill="#53A6DB" width="738.141" height="23.812"/>
	</g>
	<g>
		<rect x="250.016" y="919.276" fill="#53A6DB" width="690.519" height="23.812"/>
	</g>
</g>
<g>
	<rect x="369.071" y="252.568" fill="#53A6DB" width="23.811" height="119.055"/>
</g>
<g>
	<rect x="797.668" y="252.568" fill="#53A6DB" width="23.811" height="119.055"/>
</g>
</svg>
