<?xml version="1.0" encoding="utf-8"?>
<!-- Generator: Adobe Illustrator 16.0.3, SVG Export Plug-In . SVG Version: 6.00 Build 0)  -->
<!DOCTYPE svg PUBLIC "-//W3C//DTD SVG 1.1//EN" "http://www.w3.org/Graphics/SVG/1.1/DTD/svg11.dtd">
<svg version="1.1" id="Layer_1" xmlns="http://www.w3.org/2000/svg" xmlns:xlink="http://www.w3.org/1999/xlink" x="0px" y="0px"
	 width="1071.498px" height="844.018px" viewBox="59.523 271.069 1071.498 844.018"
	 enable-background="new 59.523 271.069 1071.498 844.018" xml:space="preserve">
<g>
	<path fill="#53A6DB" d="M634.265,432.366c-1.035-1.895-1.82-4.275-1.82-5.311c0-3.834-1.869-6.989-5.607-9.322
		c-2.084-1.333-4.061-2.417-4.369-2.417s-5-1.715-10.357-3.847c-5.369-2.119-10.775-4.06-11.988-4.32
		c-1.203-0.263-3.549-2.25-5.215-4.417c-1.68-2.19-3.75-4.19-4.598-4.452c-4.5-1.536-5.57-8.43-2.416-15.37
		c0.941-2.096,1.727-4.524,1.738-5.405c0-0.846,1.154-3.013,2.561-4.786c3.715-4.715,5.939-14.894,3.57-16.335
		c-0.5-0.31-0.869-4.417-0.869-9.44c0-6.727-0.381-9.62-1.535-11.87c-2.285-4.548-7.035-7.881-12.299-8.715
		c-2.666-0.429-5.393-1.488-6.547-2.596c-1.549-1.44-3.061-1.856-6.738-1.833c-9.369,0-19.441,5.44-24.67,13.286
		c-3.701,5.584-4.82,11.62-4.654,24.823c0.107,6.846,0.404,8.382,2.084,10.668c1.084,1.44,1.965,3.047,1.965,3.512
		c0,0.477,0.738,1.583,1.654,2.44c0.918,0.846,1.939,3.321,2.285,5.488c0.357,2.167,1.191,4.691,1.846,5.691
		c0.668,0.893,1.203,3.131,1.203,4.881c0,2.81-0.346,3.357-2.715,4.203c-1.477,0.512-4.145,2.478-5.904,4.357
		c-3.656,3.987-11.121,6.737-28.026,10.203c-5.5,1.179-10.453,2.57-11.001,3.201c-1.298,1.394-3.477,8.383-4.667,14.918
		c-0.5,2.785-1.131,5.357-1.381,5.785c-0.702,1.154-4.821,22.418-4.821,24.941v2.168h74.314h74.312l-0.463-3.703
		C636.931,441.319,635.849,435.424,634.265,432.366z"/>
	<path fill="#53A6DB" d="M490.018,952.04c-1.56-3-2.82-6.701-2.82-8.357c0-5.965-2.952-10.93-8.774-14.596
		c-3.25-2.084-6.334-3.762-6.822-3.762c-0.5,0-7.82-2.703-16.215-6.014c-8.417-3.334-16.846-6.355-18.728-6.799
		c-1.894-0.402-5.561-3.521-8.19-6.916c-2.606-3.381-5.856-6.512-7.18-6.939c-7.036-2.406-8.728-13.191-3.785-24.062
		c1.477-3.287,2.702-7.084,2.727-8.43c0-1.393,1.81-4.773,4.013-7.547c5.821-7.334,9.298-23.24,5.584-25.525
		c-0.763-0.5-1.357-6.965-1.357-14.775c0-10.549-0.584-15.049-2.404-18.596c-3.597-7.084-11.001-12.299-19.251-13.621
		c-4.167-0.654-8.431-2.334-10.264-4.047c-2.404-2.25-4.798-2.93-10.523-2.883c-14.681,0-30.432,8.514-38.599,20.812
		c-5.773,8.738-7.536,18.145-7.273,38.787c0.167,10.717,0.644,13.145,3.25,16.717c1.703,2.273,3.072,4.75,3.072,5.5
		s1.166,2.477,2.595,3.82c1.417,1.348,3.023,5.217,3.584,8.584c0.548,3.406,1.856,7.369,2.881,8.857
		c1.048,1.439,1.881,4.93,1.881,7.691c0,4.416-0.547,5.227-4.226,6.535c-2.334,0.811-6.489,3.869-9.229,6.848
		c-5.75,6.215-17.404,10.5-43.883,15.977c-8.596,1.773-16.358,4.035-17.204,4.977c-2.012,2.215-5.44,13.145-7.298,23.312
		c-0.773,4.369-1.75,8.453-2.154,9.084c-1.084,1.773-7.549,35.096-7.549,38.99v3.416h116.281h116.269l-0.75-5.797
		C494.209,966.006,492.531,956.815,490.018,952.04z"/>
	<path fill="#53A6DB" d="M352.664,658.51c10.727-0.678,18.93-9.939,18.228-20.799c-0.667-10.762-9.977-18.941-20.799-18.24
		c-89.887,5.859-175.511,59.445-220.014,137.617c-5.31,9.441-2.048,21.334,7.334,26.764c6.465,3.582,14.144,3.227,20.061-0.43
		c2.655-1.654,4.977-3.988,6.644-6.939C202.131,709.428,275.576,663.534,352.664,658.51z"/>
	<path fill="#53A6DB" d="M347.712,580.422c10.702-0.727,18.989-9.93,18.239-20.764c-0.667-10.785-9.93-18.965-20.74-18.287
		c-115.613,7.406-225.81,76.338-283.124,176.928c-5.346,9.395-2.06,21.383,7.322,26.717c6.464,3.68,14.144,3.285,20.013-0.404
		c2.715-1.645,5.024-4,6.679-6.881C146.997,648.249,244.92,586.958,347.712,580.422z"/>
	<path fill="#53A6DB" d="M1031.863,638.616c-1.561-2.977-2.812-6.715-2.812-8.334c0-5.988-2.951-10.953-8.762-14.607
		c-3.262-2.07-6.346-3.773-6.846-3.773s-7.785-2.691-16.217-5.988c-8.404-3.334-16.82-6.357-18.715-6.811
		c-1.893-0.393-5.572-3.512-8.178-6.93c-2.621-3.381-5.859-6.486-7.191-6.939c-7.061-2.381-8.715-13.191-3.787-24.062
		c1.467-3.262,2.717-7.084,2.729-8.428c0-1.369,1.797-4.752,4-7.525c5.809-7.346,9.311-23.252,5.596-25.523
		c-0.762-0.525-1.346-6.965-1.346-14.799c0-10.549-0.596-15.025-2.418-18.598c-3.582-7.096-11.012-12.311-19.25-13.633
		c-4.154-0.631-8.43-2.332-10.25-4.035c-2.406-2.262-4.787-2.939-10.525-2.904c-14.68,0.023-30.43,8.549-38.598,20.822
		c-5.762,8.727-7.535,18.168-7.273,38.787c0.154,10.717,0.654,13.156,3.262,16.717c1.689,2.285,3.061,4.762,3.061,5.512
		s1.18,2.465,2.596,3.811s3.049,5.215,3.584,8.607c0.547,3.381,1.846,7.346,2.881,8.846c1.035,1.441,1.893,4.941,1.893,7.691
		c0,4.416-0.57,5.227-4.227,6.535c-2.346,0.811-6.488,3.869-9.238,6.846c-5.762,6.215-17.418,10.502-43.883,16.002
		c-8.607,1.773-16.359,4-17.203,4.953c-2.037,2.215-5.453,13.143-7.299,23.334c-0.762,4.369-1.75,8.43-2.166,9.084
		c-1.084,1.773-7.525,35.098-7.525,38.99v3.416h116.281h116.27l-0.736-5.809C1036.041,652.581,1034.384,643.389,1031.863,638.616z"
		/>
	<path fill="#53A6DB" d="M923.283,386.183c-79.623,0-148.818,45.073-183.689,111.007l-56.039-34.24
		c8.916-17.834,14.061-37.871,14.061-59.122c0-73.207-59.553-132.759-132.771-132.759c-73.207,0-132.781,59.552-132.781,132.759
		c0,73.208,59.574,132.793,132.781,132.793c46.062,0,86.686-23.607,110.508-59.324l57.039,34.848
		c-10.799,25.119-16.834,52.766-16.834,81.789c0,34.99,8.773,67.934,24.107,96.889L572.322,825.497
		C540.486,751.54,466.934,699.62,381.44,699.62c-114.542,0-207.75,93.16-207.75,207.727c0,114.543,93.208,207.74,207.75,207.74
		c114.543,0,207.75-93.197,207.75-207.74c0-16.631-2.18-32.752-5.893-48.275L757.63,718.762
		c37.953,50.242,97.982,82.91,165.652,82.91c114.543,0,207.738-93.184,207.738-207.75
		C1131.021,479.379,1037.826,386.183,923.283,386.183z M564.843,515.477c-61.575,0-111.685-50.074-111.685-111.661
		c0-61.564,50.109-111.663,111.685-111.663c61.588,0,111.688,50.098,111.688,111.663
		C676.531,465.403,626.431,515.477,564.843,515.477z M381.44,1082.061c-96.339,0-174.726-78.363-174.726-174.715
		s78.374-174.713,174.726-174.713s174.737,78.361,174.737,174.713S477.78,1082.061,381.44,1082.061z M923.283,768.661
		c-96.352,0-174.713-78.375-174.713-174.738c0-96.326,78.361-174.712,174.713-174.712s174.736,78.386,174.736,174.712
		C1098.019,690.286,1019.634,768.661,923.283,768.661z"/>
</g>
</svg>
