<?xml version="1.0" encoding="utf-8"?>
<!-- Generator: Adobe Illustrator 16.0.3, SVG Export Plug-In . SVG Version: 6.00 Build 0)  -->
<!DOCTYPE svg PUBLIC "-//W3C//DTD SVG 1.1//EN" "http://www.w3.org/Graphics/SVG/1.1/DTD/svg11.dtd">
<svg version="1.1" id="Layer_1" xmlns="http://www.w3.org/2000/svg" xmlns:xlink="http://www.w3.org/1999/xlink" x="0px" y="0px"
	 width="35px" height="35px" viewBox="0 0 35 35" enable-background="new 0 0 35 35" xml:space="preserve">
<path fill="#FFFFFF" d="M17.5,0.461c-9.647,0-17.47,7.822-17.47,17.47c0,7.72,5.005,14.267,11.948,16.576
	c0.874,0.159,1.192-0.379,1.192-0.84c0-0.416-0.016-1.794-0.024-3.252c-4.859,1.056-5.885-2.061-5.885-2.061
	c-0.795-2.018-1.94-2.555-1.94-2.555c-1.587-1.083,0.121-1.062,0.121-1.062c1.754,0.122,2.678,1.8,2.678,1.8
	c1.559,2.67,4.09,1.898,5.084,1.451c0.158-1.126,0.611-1.898,1.109-2.334c-3.878-0.441-7.958-1.94-7.958-8.634
	c0-1.909,0.681-3.465,1.797-4.688c-0.179-0.443-0.78-2.221,0.172-4.625c0,0,1.465-0.469,4.805,1.792
	c1.393-0.389,2.886-0.581,4.372-0.587c1.484,0.007,2.979,0.2,4.373,0.589c3.334-2.262,4.801-1.791,4.801-1.791
	c0.956,2.406,0.354,4.182,0.175,4.623c1.12,1.224,1.796,2.78,1.796,4.688c0,6.711-4.086,8.189-7.979,8.623
	c0.629,0.542,1.187,1.604,1.187,3.233c0,2.335-0.023,4.218-0.023,4.793c0,0.466,0.317,1.009,1.202,0.838
	c6.938-2.312,11.938-8.86,11.938-16.576C34.97,8.283,27.147,0.461,17.5,0.461z"/>
</svg>
