<?xml version="1.0" encoding="utf-8"?>
<!-- Generator: Adobe Illustrator 16.0.3, SVG Export Plug-In . SVG Version: 6.00 Build 0)  -->
<!DOCTYPE svg PUBLIC "-//W3C//DTD SVG 1.1//EN" "http://www.w3.org/Graphics/SVG/1.1/DTD/svg11.dtd">
<svg version="1.1" id="Layer_1" xmlns="http://www.w3.org/2000/svg" xmlns:xlink="http://www.w3.org/1999/xlink" x="0px" y="0px"
	 width="437.64px" height="120.063px" viewBox="0 0 437.64 120.063" enable-background="new 0 0 437.64 120.063"
	 xml:space="preserve">
<g>
	<path fill="#2A398B" d="M75.725,44.683c0.746-4.371,2.174-8.576,5.943-9.924c4.756-1.693,9.863-0.688,14.689-0.122
		c0.1,0.015,0.158,0.083,0.185,0.169c6.813,0.289,13.627,0.573,20.465,0.493c10.205-0.125,20.406-0.578,30.609-0.925
		c10.426-0.358,20.861-1.013,31.293-1.061c0.039-3.64-0.145-7.249-0.711-10.708c-1.281-7.856-5.328-12.704-10.566-15.259
		c-6.258-3.049-13.557-3.882-20.133-4.903c-16.379-2.547-33.07-0.965-49.544-1.817c-16.786-0.867-33.621-0.578-50.43-0.58
		c-8.038-0.002-16.09,0.425-24.083,2.058c-4.64,0.948-9.269,2.008-13.65,4.573C5.873,8.974,2.56,12.853,0.969,18.478
		c-2.392,8.466,0.328,18.414,0.9,26.898c0.346,5.126,1.517,10.046,1.9,15.175c0.273,3.695,0.848,7.316,1.788,10.761
		c1.729,6.347,5.282,10.706,9.948,12.421c3.506,1.291,7.358,0.852,10.97,0.941c2.722,0.066,5.454,1,8.15,0.323
		c0.44,0.139,0.861,0.329,1.271,0.576c-0.586,18.053,9.12,33.127,21.95,34.487c0.321,0.036,0.355-0.636,0.041-0.693
		c-0.084-0.015-0.162-0.036-0.244-0.053c-1.786-6.462-1.01-13.357,1.293-19.443c1.942-5.131,5.339-12.286,9.766-13.191
		c0.083-0.017,0.139-0.069,0.177-0.136c0.028,0.021,0.06,0.041,0.104,0.042c1.733,0.204,3.485,0.291,5.244,0.314
		c0.147-3.73,0.606-7.436,0.846-10.454C75.901,65.912,73.938,55.117,75.725,44.683z"/>
	<path fill="#53A6DB" d="M205.255,53.098c-0.533-5.363-1.197-11.271-4.158-15.502c-2.881-4.119-8.615-3.977-12.633-4.134
		c-3.184-0.125-6.369-0.164-9.555-0.149c-0.051,5.064-0.539,10.19-1.066,15.066c-0.889,8.246-2.297,17.475-6.154,24.208
		c-3.848,6.714-9.379,8.365-15.057,9.756c-6.934,1.7-13.916,1.953-20.898,2.509c-4.432,1.552-9.393,1.005-13.822,0.744
		c-5.83-0.348-11.758,0.151-17.604,0.262c-5.936,0.11-11.871,0.41-17.808,0.643c-4.059,0.156-8.184,0.46-12.274,0.403
		c-0.269,6.781,0.498,13.637,5.541,16.562c3.99,2.315,8.834,2.403,13.157,2.257c3.747-0.122,7.582-0.609,11.279-1.581
		c13.287-1.909,26.635-1.324,40.002-1.022c1.152,0.026,2.307,0.048,3.455,0.065c1.273,9.422,9.062,16.931,16.801,16.881
		c0.393-0.003,0.758-0.545,0.521-1.013c-2.049-4.102-2.451-8.408-1.025-12.922c0.287-0.909,0.641-1.749,1.051-2.533
		c1.074,0.056,2.15,0.12,3.223,0.199c5.629,0.417,12.322,1.718,17.959-0.276c6.021-0.622,12.062-2.622,15.752-8.441
		c3.484-5.491,4.303-12.656,4.533-19.414C206.734,68.133,205.996,60.558,205.255,53.098z"/>
	<path fill="#134B58" d="M86.5,86.499c5.938-0.232,11.872-0.533,17.808-0.643c5.846-0.111,11.773-0.61,17.604-0.262
		c4.43,0.262,9.391,0.808,13.822-0.744c6.982-0.557,13.965-0.809,20.898-2.509c5.678-1.392,11.209-3.042,15.057-9.756
		c3.857-6.733,5.266-15.961,6.154-24.208c0.527-4.875,1.016-10.001,1.066-15.066c-10.432,0.048-20.867,0.703-31.293,1.061
		c-10.203,0.347-20.404,0.801-30.609,0.925c-6.838,0.081-13.652-0.204-20.465-0.493c-0.026-0.085-0.085-0.154-0.185-0.169
		c-4.826-0.565-9.934-1.571-14.689,0.122c-3.77,1.348-5.197,5.554-5.943,9.924c-1.786,10.435,0.177,21.229-0.653,31.765
		c-0.239,3.018-0.698,6.724-0.846,10.454C78.316,86.959,82.441,86.654,86.5,86.499z"/>
	<path fill="#145DA9" d="M86.5,86.499c5.938-0.232,11.872-0.533,17.808-0.643c5.846-0.111,11.773-0.61,17.604-0.262
		c4.43,0.262,9.391,0.808,13.822-0.744c6.982-0.557,13.965-0.809,20.898-2.509c5.678-1.392,11.209-3.042,15.057-9.756
		c3.857-6.733,5.266-15.961,6.154-24.208c0.527-4.875,1.016-10.001,1.066-15.066c-10.432,0.048-20.867,0.703-31.293,1.061
		c-10.203,0.347-20.404,0.801-30.609,0.925c-6.838,0.081-13.652-0.204-20.465-0.493c-0.026-0.085-0.085-0.154-0.185-0.169
		c-4.826-0.565-9.934-1.571-14.689,0.122c-3.77,1.348-5.197,5.554-5.943,9.924c-1.786,10.435,0.177,21.229-0.653,31.765
		c-0.239,3.018-0.698,6.724-0.846,10.454C78.316,86.959,82.441,86.654,86.5,86.499z"/>
</g>
<g>
	<g>
		<path fill="#29A8E0" d="M222.618,33.38V6.032h8.721c1.675,0,3.125,0.167,4.342,0.498c1.214,0.329,2.21,0.8,2.996,1.409
			c0.78,0.614,1.362,1.359,1.735,2.245c0.377,0.884,0.563,1.877,0.563,2.986c0,0.675-0.105,1.325-0.314,1.948
			c-0.208,0.623-0.531,1.2-0.955,1.733c-0.424,0.539-0.961,1.013-1.604,1.435c-0.639,0.421-1.395,0.762-2.259,1.031
			c1.994,0.391,3.503,1.113,4.523,2.155c1.015,1.043,1.525,2.417,1.525,4.122c0,1.16-0.216,2.215-0.64,3.168
			c-0.426,0.952-1.047,1.777-1.87,2.46c-0.818,0.688-1.823,1.224-3.014,1.598c-1.192,0.37-2.548,0.559-4.076,0.559H222.618z
			 M226.321,18.287h4.881c1.045,0,1.948-0.116,2.711-0.348c0.763-0.224,1.396-0.543,1.898-0.95c0.506-0.409,0.876-0.903,1.118-1.482
			c0.238-0.578,0.364-1.208,0.364-1.896c0-1.603-0.484-2.781-1.451-3.533c-0.964-0.748-2.474-1.123-4.504-1.123h-5.018V18.287z
			 M226.321,20.917v9.523h5.912c1.059,0,1.966-0.12,2.722-0.363c0.756-0.241,1.378-0.58,1.871-1.019
			c0.488-0.438,0.85-0.958,1.073-1.566c0.232-0.603,0.348-1.27,0.348-1.994c0-1.413-0.502-2.531-1.499-3.351
			c-0.996-0.818-2.51-1.23-4.531-1.23H226.321z"/>
		<path fill="#29A8E0" d="M249.717,14.051v12.325c0,1.465,0.336,2.598,1.009,3.397c0.676,0.802,1.69,1.204,3.056,1.204
			c0.991,0,1.925-0.235,2.803-0.706c0.88-0.472,1.688-1.126,2.424-1.966V14.051h3.4V33.38h-2.025c-0.483,0-0.788-0.234-0.912-0.707
			l-0.27-2.08c-0.84,0.93-1.78,1.674-2.823,2.243c-1.045,0.566-2.242,0.852-3.591,0.852c-1.054,0-1.984-0.18-2.795-0.527
			c-0.807-0.347-1.484-0.845-2.034-1.478c-0.548-0.637-0.955-1.407-1.229-2.31c-0.275-0.905-0.407-1.902-0.407-2.997V14.051H249.717
			z"/>
		<path fill="#29A8E0" d="M275.648,13.742c1.157,0,2.229,0.196,3.209,0.58c0.979,0.392,1.826,0.952,2.536,1.685
			c0.713,0.729,1.27,1.629,1.671,2.71c0.4,1.07,0.599,2.295,0.599,3.672c0,0.529-0.055,0.892-0.173,1.067
			c-0.107,0.18-0.326,0.266-0.645,0.266h-12.863c0.023,1.223,0.19,2.286,0.493,3.191c0.309,0.9,0.727,1.656,1.261,2.262
			c0.537,0.6,1.173,1.056,1.907,1.354c0.74,0.298,1.566,0.448,2.487,0.448c0.848,0,1.583-0.1,2.199-0.296
			c0.618-0.192,1.151-0.41,1.591-0.642c0.452-0.224,0.818-0.44,1.122-0.639c0.299-0.196,0.553-0.295,0.772-0.295
			c0.276,0,0.493,0.108,0.646,0.324l0.955,1.243c-0.419,0.506-0.924,0.951-1.509,1.326c-0.583,0.374-1.209,0.682-1.879,0.923
			c-0.667,0.242-1.36,0.422-2.073,0.544c-0.707,0.124-1.413,0.183-2.116,0.183c-1.333,0-2.565-0.227-3.692-0.677
			c-1.123-0.453-2.098-1.111-2.916-1.984c-0.826-0.872-1.462-1.948-1.92-3.238c-0.46-1.284-0.686-2.759-0.686-4.424
			c0-1.351,0.206-2.609,0.616-3.78c0.413-1.172,1.008-2.185,1.788-3.045c0.772-0.858,1.723-1.53,2.846-2.025
			C272.992,13.988,274.25,13.742,275.648,13.742z M275.725,16.241c-1.641,0-2.933,0.474-3.874,1.426
			c-0.941,0.949-1.527,2.261-1.753,3.941h10.513c0-0.792-0.106-1.512-0.324-2.167c-0.22-0.655-0.532-1.224-0.951-1.701
			c-0.421-0.473-0.932-0.845-1.542-1.102C277.191,16.374,276.502,16.241,275.725,16.241z"/>
		<path fill="#29A8E0" d="M287.998,33.38V14.051h2.022c0.484,0,0.792,0.229,0.923,0.703l0.26,2.097
			c0.843-0.928,1.778-1.678,2.819-2.25c1.032-0.574,2.234-0.859,3.598-0.859c1.055,0,1.984,0.176,2.793,0.524
			c0.808,0.355,1.482,0.848,2.022,1.491c0.54,0.641,0.955,1.414,1.233,2.316c0.278,0.906,0.422,1.904,0.422,2.997v12.31h-3.397
			V21.07c0-1.465-0.339-2.598-1.005-3.403c-0.67-0.812-1.69-1.216-3.062-1.216c-1.003,0-1.945,0.244-2.817,0.725
			c-0.868,0.485-1.677,1.14-2.413,1.965V33.38H287.998z"/>
		<path fill="#29A8E0" d="M317.042,13.742c1.415,0,2.691,0.236,3.829,0.707c1.14,0.474,2.106,1.14,2.901,2.002
			c0.794,0.868,1.406,1.911,1.826,3.141c0.432,1.23,0.646,2.602,0.646,4.113c0,1.529-0.214,2.9-0.646,4.124
			c-0.42,1.219-1.032,2.263-1.826,3.128c-0.795,0.867-1.762,1.532-2.901,1.996c-1.138,0.463-2.414,0.696-3.829,0.696
			c-1.409,0-2.688-0.232-3.825-0.696c-1.14-0.464-2.107-1.129-2.913-1.996c-0.799-0.865-1.414-1.909-1.85-3.128
			c-0.43-1.224-0.646-2.595-0.646-4.124c0-1.511,0.216-2.883,0.646-4.113c0.436-1.23,1.051-2.273,1.85-3.141
			c0.806-0.862,1.773-1.528,2.913-2.002C314.353,13.978,315.632,13.742,317.042,13.742z M317.042,30.999
			c1.909,0,3.335-0.644,4.278-1.922c0.94-1.283,1.411-3.062,1.411-5.354c0-2.305-0.471-4.096-1.411-5.381
			c-0.943-1.285-2.369-1.928-4.278-1.928c-0.968,0-1.807,0.166-2.518,0.497c-0.712,0.332-1.308,0.81-1.785,1.431
			c-0.473,0.624-0.833,1.39-1.068,2.299c-0.235,0.91-0.353,1.938-0.353,3.082c0,1.146,0.117,2.169,0.353,3.074
			c0.235,0.901,0.596,1.664,1.068,2.28c0.478,0.617,1.073,1.09,1.785,1.419C315.235,30.831,316.074,30.999,317.042,30.999z"/>
		<path fill="#29A8E0" d="M341.511,17.235c-0.153,0.282-0.388,0.418-0.712,0.418c-0.188,0-0.403-0.069-0.644-0.209
			c-0.24-0.139-0.54-0.295-0.89-0.466c-0.348-0.173-0.766-0.333-1.253-0.478c-0.482-0.146-1.056-0.222-1.718-0.222
			c-0.571,0-1.085,0.076-1.543,0.222c-0.456,0.145-0.848,0.349-1.174,0.603c-0.324,0.257-0.57,0.55-0.744,0.887
			c-0.172,0.335-0.256,0.7-0.256,1.094c0,0.497,0.142,0.912,0.43,1.24c0.285,0.336,0.664,0.621,1.135,0.861
			c0.473,0.24,1.003,0.455,1.604,0.641c0.594,0.181,1.21,0.38,1.841,0.589c0.629,0.21,1.24,0.445,1.846,0.696
			c0.593,0.255,1.128,0.576,1.601,0.956c0.47,0.381,0.849,0.852,1.132,1.402c0.288,0.555,0.437,1.22,0.437,1.995
			c0,0.892-0.167,1.717-0.484,2.472c-0.318,0.761-0.787,1.414-1.41,1.965c-0.625,0.554-1.388,0.988-2.29,1.306
			c-0.904,0.319-1.946,0.481-3.127,0.481c-1.353,0-2.574-0.223-3.668-0.66c-1.099-0.44-2.025-1.002-2.786-1.69l0.804-1.299
			c0.101-0.162,0.221-0.292,0.36-0.376c0.142-0.093,0.323-0.136,0.554-0.136c0.229,0,0.473,0.089,0.725,0.265
			c0.255,0.18,0.562,0.375,0.925,0.595c0.362,0.212,0.804,0.416,1.318,0.59c0.515,0.18,1.162,0.265,1.937,0.265
			c0.661,0,1.241-0.083,1.738-0.255c0.491-0.175,0.906-0.404,1.24-0.701c0.331-0.291,0.571-0.625,0.732-1.011
			c0.162-0.38,0.239-0.79,0.239-1.222c0-0.532-0.144-0.975-0.43-1.322c-0.283-0.351-0.666-0.65-1.135-0.897
			c-0.468-0.25-1.008-0.469-1.61-0.651c-0.606-0.184-1.226-0.378-1.854-0.582c-0.627-0.203-1.245-0.44-1.85-0.697
			c-0.603-0.26-1.143-0.587-1.611-0.985c-0.472-0.39-0.854-0.877-1.137-1.453c-0.285-0.582-0.432-1.286-0.432-2.113
			c0-0.735,0.151-1.448,0.458-2.128c0.308-0.683,0.754-1.278,1.337-1.792c0.583-0.517,1.305-0.927,2.154-1.23
			c0.856-0.308,1.831-0.46,2.923-0.46c1.274,0,2.414,0.203,3.429,0.6c1.009,0.401,1.884,0.955,2.621,1.652L341.511,17.235z"/>
		<path fill="#29A8E0" d="M377.409,33.38h-2.862c-0.329,0-0.595-0.083-0.802-0.245c-0.199-0.166-0.354-0.379-0.455-0.628
			l-2.561-6.608H358.46l-2.561,6.608c-0.086,0.224-0.243,0.425-0.458,0.607c-0.212,0.178-0.482,0.265-0.8,0.265h-2.865
			l10.935-27.348h3.761L377.409,33.38z M359.494,23.228H369.7l-4.291-11.125c-0.283-0.691-0.557-1.544-0.823-2.576
			c-0.139,0.521-0.275,0.998-0.41,1.439c-0.134,0.44-0.262,0.825-0.391,1.156L359.494,23.228z"/>
		<path fill="#29A8E0" d="M384.875,7.979c0,0.332-0.07,0.64-0.206,0.927c-0.13,0.286-0.308,0.538-0.531,0.763
			c-0.225,0.223-0.481,0.395-0.774,0.525c-0.295,0.125-0.605,0.191-0.936,0.191c-0.331,0-0.639-0.066-0.927-0.191
			c-0.285-0.13-0.538-0.302-0.766-0.525c-0.219-0.226-0.392-0.478-0.522-0.763c-0.127-0.287-0.194-0.595-0.194-0.927
			c0-0.331,0.067-0.646,0.194-0.945c0.131-0.298,0.304-0.557,0.522-0.783c0.228-0.22,0.48-0.393,0.766-0.523
			c0.288-0.127,0.596-0.192,0.927-0.192c0.33,0,0.641,0.064,0.936,0.192c0.293,0.13,0.55,0.303,0.774,0.523
			c0.224,0.226,0.401,0.485,0.531,0.783C384.804,7.333,384.875,7.648,384.875,7.979z M384.107,14.051V33.38h-3.396V14.051H384.107z"
			/>
		<path fill="#29A8E0" d="M390.1,33.38V14.051h1.951c0.367,0,0.619,0.065,0.763,0.204c0.133,0.144,0.231,0.381,0.281,0.73
			l0.232,3.013c0.66-1.35,1.481-2.401,2.45-3.158c0.974-0.755,2.116-1.136,3.425-1.136c0.537,0,1.021,0.061,1.451,0.185
			c0.434,0.116,0.837,0.284,1.205,0.503l-0.442,2.539c-0.088,0.317-0.283,0.476-0.59,0.476c-0.176,0-0.453-0.064-0.823-0.183
			c-0.367-0.118-0.885-0.183-1.54-0.183c-1.186,0-2.174,0.348-2.974,1.031c-0.791,0.69-1.459,1.685-1.989,2.997v12.31H390.1z"/>
		<path fill="#29A8E0" d="M413.134,13.742c1.156,0,2.224,0.196,3.206,0.58c0.981,0.392,1.828,0.952,2.54,1.685
			c0.711,0.729,1.265,1.629,1.67,2.71c0.401,1.07,0.599,2.295,0.599,3.672c0,0.529-0.054,0.892-0.171,1.067
			c-0.113,0.18-0.331,0.266-0.646,0.266h-12.866c0.024,1.223,0.188,2.286,0.497,3.191c0.307,0.9,0.722,1.656,1.259,2.262
			c0.533,0.6,1.174,1.056,1.908,1.354c0.738,0.298,1.564,0.448,2.485,0.448c0.85,0,1.582-0.1,2.2-0.296
			c0.615-0.192,1.15-0.41,1.592-0.642c0.449-0.224,0.815-0.44,1.12-0.639c0.295-0.196,0.553-0.295,0.771-0.295
			c0.278,0,0.497,0.108,0.647,0.324l0.955,1.243c-0.419,0.506-0.921,0.951-1.506,1.326c-0.591,0.374-1.217,0.682-1.882,0.923
			c-0.667,0.242-1.356,0.422-2.071,0.544c-0.71,0.124-1.417,0.183-2.118,0.183c-1.33,0-2.562-0.227-3.691-0.677
			c-1.127-0.453-2.095-1.111-2.92-1.984c-0.822-0.872-1.458-1.948-1.919-3.238c-0.456-1.284-0.683-2.759-0.683-4.424
			c0-1.351,0.207-2.609,0.615-3.78c0.415-1.172,1.01-2.185,1.783-3.045c0.779-0.858,1.729-1.53,2.851-2.025
			C410.473,13.988,411.737,13.742,413.134,13.742z M413.21,16.241c-1.637,0-2.93,0.474-3.873,1.426
			c-0.938,0.949-1.528,2.261-1.756,3.941h10.518c0-0.792-0.11-1.512-0.331-2.167c-0.214-0.655-0.528-1.224-0.946-1.701
			c-0.422-0.473-0.936-0.845-1.543-1.102C414.676,16.374,413.984,16.241,413.21,16.241z"/>
		<path fill="#29A8E0" d="M436.551,17.235c-0.151,0.282-0.392,0.418-0.71,0.418c-0.189,0-0.406-0.069-0.646-0.209
			c-0.242-0.139-0.538-0.295-0.888-0.466c-0.351-0.173-0.766-0.333-1.248-0.478c-0.484-0.146-1.057-0.222-1.723-0.222
			c-0.569,0-1.085,0.076-1.543,0.222c-0.457,0.145-0.85,0.349-1.171,0.603c-0.327,0.257-0.573,0.55-0.751,0.887
			c-0.169,0.335-0.257,0.7-0.257,1.094c0,0.497,0.146,0.912,0.435,1.24c0.282,0.336,0.662,0.621,1.134,0.861
			c0.473,0.24,1.001,0.455,1.599,0.641c0.603,0.181,1.221,0.38,1.845,0.589c0.629,0.21,1.243,0.445,1.844,0.696
			c0.595,0.255,1.128,0.576,1.6,0.956c0.473,0.381,0.853,0.852,1.14,1.402c0.286,0.555,0.43,1.22,0.43,1.995
			c0,0.892-0.158,1.717-0.481,2.472c-0.315,0.761-0.787,1.414-1.413,1.965c-0.619,0.554-1.385,0.988-2.29,1.306
			c-0.896,0.319-1.941,0.481-3.126,0.481c-1.347,0-2.572-0.223-3.667-0.66c-1.095-0.44-2.022-1.002-2.784-1.69l0.802-1.299
			c0.104-0.162,0.222-0.292,0.365-0.376c0.135-0.093,0.323-0.136,0.55-0.136c0.234,0,0.477,0.089,0.725,0.265
			c0.256,0.18,0.563,0.375,0.924,0.595c0.364,0.212,0.807,0.416,1.321,0.59c0.515,0.18,1.16,0.265,1.937,0.265
			c0.662,0,1.241-0.083,1.735-0.255c0.496-0.175,0.907-0.404,1.24-0.701c0.331-0.291,0.576-0.625,0.737-1.011
			c0.155-0.38,0.235-0.79,0.235-1.222c0-0.532-0.142-0.975-0.426-1.322c-0.29-0.351-0.669-0.65-1.142-0.897
			c-0.466-0.25-1.003-0.469-1.609-0.651c-0.604-0.184-1.222-0.378-1.854-0.582c-0.631-0.203-1.245-0.44-1.848-0.697
			c-0.606-0.26-1.142-0.587-1.615-0.985c-0.473-0.39-0.849-0.877-1.134-1.453c-0.288-0.582-0.43-1.286-0.43-2.113
			c0-0.735,0.151-1.448,0.461-2.128c0.305-0.683,0.746-1.278,1.333-1.792c0.584-0.517,1.306-0.927,2.158-1.23
			c0.852-0.308,1.821-0.46,2.92-0.46c1.27,0,2.414,0.203,3.424,0.6c1.013,0.401,1.886,0.955,2.625,1.652L436.551,17.235z"/>
	</g>
	<g>
		<path fill="#2E358F" d="M242.175,113.478c-0.57,0-0.954-0.383-0.954-0.955V59.345c0-0.377-0.191-0.57-0.572-0.57h-16.966
			c-0.567,0-0.949-0.38-0.949-0.952V49.63c0-0.572,0.382-0.954,0.949-0.954h46.319c0.569,0,0.95,0.382,0.95,0.954v8.193
			c0,0.572-0.381,0.952-0.95,0.952h-16.964c-0.382,0-0.571,0.192-0.571,0.57v53.177c0,0.572-0.382,0.955-0.957,0.955H242.175z"/>
		<path fill="#2E358F" d="M280.196,49.63c0-0.572,0.383-0.954,0.955-0.954h40.6c0.567,0,0.947,0.382,0.947,0.954v8.193
			c0,0.572-0.38,0.952-0.947,0.952h-29.735c-0.379,0-0.572,0.192-0.572,0.57v15.823c0,0.378,0.193,0.568,0.572,0.568h25.062
			c0.573,0,0.955,0.383,0.955,0.955v8.197c0,0.571-0.382,0.955-0.955,0.955h-25.062c-0.379,0-0.572,0.189-0.572,0.568v16.392
			c0,0.379,0.193,0.569,0.572,0.569h29.735c0.567,0,0.947,0.383,0.947,0.956v8.194c0,0.572-0.38,0.955-0.947,0.955h-40.6
			c-0.572,0-0.955-0.383-0.955-0.955V49.63z"/>
		<path fill="#2E358F" d="M332.62,81.076c0-10.291,0.378-13.532,1.713-17.535c3.334-10.576,11.533-15.915,22.489-15.915
			c10.386,0,18.199,5.339,21.918,13.913c0.189,0.479,0,0.954-0.476,1.145l-8.104,3.906c-0.571,0.285-1.047,0-1.235-0.473
			c-2.098-4.578-5.721-8.387-12.104-8.387c-6.193,0-9.817,3.335-11.622,8.573c-0.864,2.668-1.148,5.244-1.148,14.773
			c0,9.53,0.284,12.102,1.148,14.772c1.805,5.238,5.429,8.575,11.622,8.575c6.383,0,10.006-3.81,12.104-8.384
			c0.188-0.48,0.664-0.765,1.235-0.48l8.104,3.908c0.476,0.192,0.665,0.666,0.476,1.146c-3.719,8.572-11.532,13.913-21.918,13.913
			c-10.956,0-19.155-5.34-22.489-15.916C332.998,94.609,332.62,91.365,332.62,81.076z"/>
		<path fill="#2E358F" d="M389.324,49.63c0-0.572,0.38-0.954,0.949-0.954h9.342c0.571,0,0.953,0.382,0.953,0.954v25.539
			c0,0.378,0.189,0.568,0.572,0.568h24.684c0.378,0,0.57-0.19,0.57-0.568V49.63c0-0.572,0.381-0.954,0.951-0.954h9.34
			c0.573,0,0.955,0.382,0.955,0.954v62.893c0,0.572-0.382,0.955-0.955,0.955h-9.34c-0.57,0-0.951-0.383-0.951-0.955v-26.11
			c0-0.379-0.192-0.568-0.57-0.568H401.14c-0.383,0-0.572,0.189-0.572,0.568v26.11c0,0.572-0.382,0.955-0.953,0.955h-9.342
			c-0.569,0-0.949-0.383-0.949-0.955V49.63z"/>
	</g>
</g>
</svg>
