<?xml version="1.0" encoding="utf-8"?>
<!-- Generator: Adobe Illustrator 16.0.3, SVG Export Plug-In . SVG Version: 6.00 Build 0)  -->
<!DOCTYPE svg PUBLIC "-//W3C//DTD SVG 1.1//EN" "http://www.w3.org/Graphics/SVG/1.1/DTD/svg11.dtd">
<svg version="1.1" id="Layer_1" xmlns="http://www.w3.org/2000/svg" xmlns:xlink="http://www.w3.org/1999/xlink" x="0px" y="0px"
	 width="146.25px" height="95.5px" viewBox="0 0 146.25 95.5" enable-background="new 0 0 146.25 95.5" xml:space="preserve">
<g>
	<g>
		<g>
			<g>
				<path fill="#FFFFFF" d="M2.259,60.854h3.283c0.414,0,0.836,0.044,1.259,0.132c0.427,0.086,0.808,0.239,1.144,0.452
					c0.338,0.213,0.613,0.501,0.826,0.861c0.213,0.366,0.32,0.824,0.32,1.372c0,0.583-0.178,1.088-0.533,1.519
					c-0.354,0.43-0.83,0.712-1.424,0.845v0.033c0.717,0.083,1.309,0.36,1.779,0.832s0.707,1.112,0.707,1.922
					c0,0.456-0.096,0.873-0.289,1.25c-0.191,0.38-0.463,0.702-0.814,0.965c-0.352,0.266-0.781,0.47-1.289,0.617
					C6.72,71.803,6.15,71.87,5.521,71.87H2.259V60.854z M3.378,65.677h2.258c0.27,0,0.541-0.029,0.816-0.093
					c0.273-0.061,0.527-0.168,0.756-0.318c0.229-0.152,0.41-0.35,0.553-0.599C7.9,64.419,7.97,64.114,7.97,63.749
					c0-0.353-0.07-0.65-0.209-0.893c-0.143-0.246-0.33-0.442-0.57-0.599c-0.236-0.158-0.518-0.27-0.839-0.337
					C6.03,61.854,5.687,61.82,5.326,61.82H3.378V65.677z M3.378,70.907h2.086c0.404,0,0.793-0.035,1.16-0.118
					c0.367-0.076,0.689-0.202,0.965-0.372c0.275-0.171,0.496-0.396,0.662-0.668C8.416,69.473,8.5,69.143,8.5,68.76
					c0-0.726-0.246-1.267-0.738-1.626c-0.494-0.357-1.191-0.537-2.094-0.537H3.378V70.907z"/>
			</g>
			<g>
				<path fill="#FFFFFF" d="M19.33,72.153c-0.83,0-1.51-0.143-2.037-0.429c-0.529-0.284-0.949-0.646-1.262-1.084
					c-0.311-0.432-0.527-0.908-0.646-1.422c-0.119-0.513-0.178-0.998-0.178-1.454v-6.909h1.119v6.783
					c0,0.449,0.053,0.882,0.156,1.301c0.105,0.42,0.273,0.794,0.506,1.121c0.234,0.327,0.543,0.591,0.926,0.793
					c0.385,0.204,0.855,0.302,1.416,0.302s1.031-0.099,1.416-0.302c0.385-0.202,0.693-0.467,0.926-0.793
					c0.235-0.327,0.403-0.701,0.506-1.121c0.104-0.419,0.156-0.852,0.156-1.301v-6.783h1.119v6.909c0,0.457-0.059,0.941-0.178,1.454
					c-0.119,0.515-0.336,0.99-0.646,1.422c-0.31,0.439-0.732,0.801-1.27,1.084C20.826,72.01,20.15,72.153,19.33,72.153z"/>
			</g>
			<g>
				<path fill="#FFFFFF" d="M30.551,70.877h5.896v0.993h-7.018V60.854h6.832v0.996h-5.71v3.782h5.335v0.998h-5.335V70.877z"/>
			</g>
			<g>
				<path fill="#FFFFFF" d="M49.566,70.239h0.031v-9.384h1.12V71.87h-1.401l-6.411-9.474h-0.029v9.474h-1.122V60.854h1.4
					L49.566,70.239z"/>
			</g>
			<g>
				<path fill="#FFFFFF" d="M67.648,66.363c0,0.839-0.146,1.614-0.436,2.319c-0.291,0.706-0.693,1.313-1.207,1.827
					c-0.514,0.512-1.119,0.918-1.82,1.208c-0.701,0.291-1.459,0.437-2.279,0.437s-1.578-0.146-2.279-0.437
					c-0.702-0.29-1.309-0.696-1.822-1.208c-0.512-0.514-0.915-1.121-1.205-1.827c-0.289-0.705-0.437-1.479-0.437-2.319
					c0-0.84,0.147-1.613,0.437-2.319c0.29-0.704,0.693-1.314,1.205-1.828c0.514-0.512,1.12-0.915,1.822-1.206
					c0.701-0.291,1.459-0.436,2.279-0.436s1.578,0.145,2.279,0.436s1.307,0.693,1.82,1.206c0.513,0.514,0.916,1.125,1.207,1.828
					C67.502,64.75,67.648,65.523,67.648,66.363z M66.467,66.372c0-0.644-0.105-1.255-0.312-1.835
					c-0.209-0.578-0.511-1.088-0.902-1.527c-0.393-0.444-0.875-0.794-1.439-1.05c-0.566-0.259-1.201-0.391-1.906-0.391
					c-0.706,0-1.342,0.131-1.907,0.391c-0.566,0.256-1.046,0.606-1.439,1.05c-0.395,0.439-0.694,0.949-0.901,1.527
					c-0.209,0.58-0.311,1.191-0.311,1.835c0,0.643,0.102,1.252,0.311,1.832c0.207,0.583,0.507,1.087,0.901,1.521
					c0.394,0.436,0.873,0.784,1.439,1.043c0.565,0.259,1.201,0.387,1.907,0.387c0.705,0,1.34-0.127,1.906-0.387
					c0.564-0.259,1.047-0.608,1.439-1.043c0.392-0.434,0.693-0.938,0.902-1.521C66.361,67.624,66.467,67.015,66.467,66.372z"/>
			</g>
			<g>
				<path fill="#FFFFFF" d="M78.434,62.628c-0.242-0.332-0.545-0.599-0.92-0.8c-0.373-0.204-0.824-0.305-1.354-0.305
					c-0.27,0-0.545,0.041-0.826,0.124c-0.277,0.083-0.533,0.213-0.762,0.382c-0.229,0.17-0.412,0.388-0.553,0.644
					c-0.139,0.262-0.211,0.568-0.211,0.919c0,0.35,0.068,0.643,0.203,0.873c0.135,0.226,0.312,0.422,0.535,0.583
					c0.223,0.161,0.477,0.29,0.762,0.397c0.285,0.103,0.58,0.207,0.893,0.31c0.383,0.124,0.766,0.258,1.154,0.402
					c0.389,0.147,0.738,0.339,1.049,0.57c0.311,0.234,0.564,0.528,0.76,0.887c0.195,0.357,0.295,0.812,0.295,1.362
					c0,0.548-0.105,1.024-0.314,1.422c-0.209,0.402-0.482,0.731-0.818,0.989c-0.332,0.258-0.719,0.451-1.148,0.577
					c-0.43,0.121-0.863,0.187-1.299,0.187c-0.332,0-0.662-0.036-0.994-0.103c-0.332-0.067-0.648-0.168-0.951-0.302
					c-0.301-0.136-0.58-0.308-0.838-0.514c-0.262-0.208-0.49-0.448-0.686-0.716l0.963-0.716c0.24,0.393,0.572,0.724,1.006,0.986
					c0.43,0.267,0.936,0.399,1.516,0.399c0.281,0,0.566-0.042,0.859-0.132c0.287-0.089,0.549-0.223,0.783-0.406
					c0.232-0.18,0.426-0.404,0.576-0.669c0.148-0.265,0.225-0.572,0.225-0.925c0-0.382-0.076-0.705-0.225-0.958
					c-0.15-0.253-0.352-0.467-0.6-0.637c-0.248-0.172-0.535-0.316-0.855-0.429c-0.322-0.114-0.658-0.227-1.012-0.344
					c-0.365-0.113-0.721-0.244-1.074-0.387c-0.354-0.145-0.67-0.336-0.951-0.571c-0.277-0.23-0.504-0.521-0.674-0.86
					c-0.172-0.345-0.256-0.764-0.256-1.263c0-0.529,0.104-0.985,0.316-1.369c0.213-0.384,0.49-0.702,0.834-0.948
					c0.342-0.25,0.721-0.433,1.137-0.545c0.412-0.115,0.824-0.172,1.229-0.172c0.746,0,1.383,0.133,1.914,0.399
					c0.527,0.262,0.928,0.577,1.199,0.938L78.434,62.628z"/>
			</g>
			<g>
				<path fill="#FFFFFF" d="M91.629,71.87h-1.23l4.764-11.015h1.088l4.73,11.015h-1.246l-1.213-2.892h-5.695L91.629,71.87z
					 M93.246,67.952h4.855l-2.428-5.853L93.246,67.952z"/>
			</g>
			<g>
				<path fill="#FFFFFF" d="M106.83,71.87h-1.117V60.854h1.117V71.87z"/>
			</g>
			<g>
				<path fill="#FFFFFF" d="M113.992,71.87h-1.121V60.854h3.234c0.539,0,1.041,0.05,1.502,0.156
					c0.461,0.104,0.861,0.272,1.201,0.505c0.334,0.232,0.596,0.535,0.783,0.911c0.188,0.373,0.281,0.831,0.281,1.369
					c0,0.404-0.074,0.772-0.219,1.104c-0.146,0.332-0.344,0.618-0.592,0.865c-0.25,0.243-0.545,0.437-0.887,0.584
					c-0.344,0.144-0.717,0.238-1.121,0.281l3.223,5.239h-1.371l-3.051-5.149h-1.863V71.87z M113.992,65.757h1.943
					c0.9,0,1.596-0.164,2.084-0.491c0.488-0.326,0.73-0.817,0.73-1.47c0-0.363-0.064-0.668-0.201-0.918
					c-0.137-0.249-0.32-0.451-0.561-0.607c-0.238-0.155-0.529-0.271-0.871-0.342c-0.342-0.072-0.721-0.108-1.135-0.108h-1.99V65.757
					z"/>
			</g>
			<g>
				<path fill="#FFFFFF" d="M126.422,70.877h5.898v0.993h-7.018V60.854h6.83v0.996h-5.711v3.782h5.34v0.998h-5.34V70.877z"/>
			</g>
			<g>
				<path fill="#FFFFFF" d="M142.967,62.628c-0.238-0.332-0.545-0.599-0.92-0.8c-0.373-0.204-0.826-0.305-1.352-0.305
					c-0.271,0-0.545,0.041-0.824,0.124c-0.281,0.083-0.535,0.213-0.766,0.382c-0.227,0.17-0.41,0.388-0.551,0.644
					c-0.141,0.262-0.211,0.568-0.211,0.919c0,0.35,0.068,0.643,0.203,0.873c0.131,0.226,0.312,0.422,0.535,0.583
					c0.223,0.161,0.477,0.29,0.758,0.397c0.287,0.103,0.584,0.207,0.895,0.31c0.381,0.124,0.768,0.258,1.154,0.402
					c0.389,0.147,0.736,0.339,1.047,0.57c0.311,0.234,0.564,0.528,0.76,0.887c0.197,0.357,0.295,0.812,0.295,1.362
					c0,0.548-0.102,1.024-0.312,1.422c-0.213,0.402-0.482,0.731-0.816,0.989c-0.336,0.258-0.719,0.451-1.15,0.577
					c-0.43,0.121-0.861,0.187-1.295,0.187c-0.336,0-0.668-0.036-0.998-0.103c-0.334-0.067-0.646-0.168-0.947-0.302
					c-0.303-0.136-0.584-0.308-0.842-0.514c-0.26-0.208-0.488-0.448-0.688-0.716l0.969-0.716c0.236,0.393,0.57,0.724,1,0.986
					c0.434,0.267,0.938,0.399,1.52,0.399c0.277,0,0.564-0.042,0.854-0.132c0.293-0.089,0.557-0.223,0.789-0.406
					c0.23-0.18,0.426-0.404,0.576-0.669c0.148-0.265,0.225-0.572,0.225-0.925c0-0.382-0.076-0.705-0.225-0.958
					c-0.15-0.253-0.352-0.467-0.602-0.637c-0.248-0.172-0.535-0.316-0.854-0.429c-0.324-0.114-0.662-0.227-1.016-0.344
					c-0.361-0.113-0.717-0.244-1.072-0.387c-0.354-0.145-0.668-0.336-0.947-0.571c-0.283-0.23-0.508-0.521-0.678-0.86
					c-0.172-0.345-0.258-0.764-0.258-1.263c0-0.529,0.105-0.985,0.32-1.369c0.213-0.384,0.488-0.702,0.83-0.948
					c0.346-0.25,0.723-0.433,1.141-0.545c0.412-0.115,0.82-0.172,1.225-0.172c0.748,0,1.389,0.133,1.918,0.399
					c0.525,0.262,0.924,0.577,1.195,0.938L142.967,62.628z"/>
			</g>
		</g>
		<g>
			<g>
				<path fill="#FFFFFF" d="M47.011,80.875v12.09h-3.677v-12.09h-4.302v-3.14h12.283v3.14H47.011z"/>
			</g>
			<g>
				<path fill="#FFFFFF" d="M57.294,92.965V77.736h10.237v3.099h-6.687v2.88h6.324v2.948h-6.324v3.162h7.076v3.141H57.294z"/>
			</g>
			<g>
				<path fill="#FFFFFF" d="M85.559,92.694c-0.988,0.455-2.129,0.676-3.42,0.676c-1.176,0-2.262-0.189-3.26-0.579
					c-0.996-0.386-1.859-0.934-2.592-1.643c-0.73-0.712-1.305-1.562-1.721-2.553c-0.416-0.991-0.623-2.077-0.623-3.27
					c0-1.218,0.213-2.322,0.635-3.309c0.422-0.991,1.006-1.833,1.754-2.529c0.744-0.697,1.619-1.23,2.623-1.604
					c1.004-0.371,2.086-0.557,3.246-0.557c1.076,0,2.135,0.189,3.176,0.569c1.039,0.379,1.881,0.934,2.525,1.667l-2.494,2.496
					c-0.344-0.472-0.797-0.825-1.355-1.056c-0.559-0.226-1.135-0.342-1.721-0.342c-0.646,0-1.236,0.118-1.775,0.355
					c-0.537,0.232-1,0.564-1.387,0.978c-0.387,0.418-0.689,0.904-0.902,1.473c-0.217,0.569-0.324,1.188-0.324,1.859
					c0,0.69,0.107,1.322,0.324,1.894c0.213,0.572,0.51,1.065,0.893,1.475c0.379,0.411,0.834,0.726,1.365,0.957
					c0.531,0.227,1.111,0.345,1.742,0.345c0.732,0,1.369-0.145,1.914-0.433c0.545-0.283,0.982-0.659,1.312-1.117l2.559,2.41
					C87.379,91.63,86.549,92.243,85.559,92.694z"/>
			</g>
			<g>
				<path fill="#FFFFFF" d="M103.541,92.965v-6.369h-5.938v6.369h-3.676V77.736h3.676V83.5h5.938v-5.765h3.678v15.229H103.541z"/>
			</g>
		</g>
	</g>
	<g>
		<g>
			<g>
				<path fill="#FFFFFF" d="M30.037,52.304H16.468c-0.314,0-0.57-0.254-0.57-0.571c0-0.313,0.256-0.567,0.57-0.567h12.999V33.874
					c0-0.317,0.255-0.57,0.569-0.57h7.082v-3.487c0-0.315,0.257-0.569,0.571-0.569h0.659v-5.559c0-0.217,0.123-0.415,0.317-0.511
					l0.459-0.226l-0.537-0.267c-0.198-0.095-0.321-0.298-0.319-0.515l0.004-0.39c0.014-0.217,0.325-4.538,3.379-6.262v-1.892
					c0-0.315,0.257-0.569,0.571-0.569h0.018c0.122-0.271,0.325-0.5,0.583-0.656V9.858c0-0.056,0.006-0.109,0.022-0.158l0.2-1.653
					c0.035-0.286,0.278-0.5,0.566-0.5s0.532,0.215,0.564,0.5l0.212,1.711h-0.003c0.006,0.032,0.011,0.065,0.011,0.101v2.543
					c0.253,0.156,0.458,0.387,0.581,0.655h0.018c0.314,0,0.568,0.254,0.568,0.569v1.892c3.057,1.721,3.295,5.962,3.303,6.148
					l0.078,0.409c0.045,0.262-0.096,0.522-0.339,0.624l-0.508,0.216l0.485,0.284c0.176,0.1,0.283,0.29,0.283,0.491v5.559h0.67
					c0.314,0,0.568,0.254,0.568,0.569v3.487h6.489v-3.537c0-0.317,0.256-0.571,0.57-0.571h5.391v-4.912
					c0-0.317,0.254-0.571,0.569-0.571h0.993c0.303-1.394,1.411-2.507,2.806-2.813l0.225-1.728c0.035-0.284,0.277-0.498,0.564-0.498
					l0,0c0.287,0,0.527,0.212,0.564,0.495l0.23,1.732c1.395,0.309,2.498,1.42,2.799,2.812h0.996c0.314,0,0.57,0.254,0.57,0.571
					v4.912h5.391c0.314,0,0.57,0.254,0.57,0.571v8.24h0.393c0.314,0,0.57,0.254,0.57,0.57v4.807h0.648l1.107-38.053
					c0.004-0.142,0.061-0.278,0.158-0.379l2.553-2.655c0.215-0.222,0.605-0.222,0.822,0l2.555,2.655
					c0.094,0.098,0.15,0.225,0.158,0.361l2.373,38.434l1.676,0.018V24.499c0-0.317,0.256-0.571,0.57-0.571h9.648v-9.309
					c0-0.317,0.256-0.571,0.57-0.571s0.57,0.254,0.57,0.571v9.88c0,0.317-0.256,0.571-0.57,0.571h-9.65v19.271
					c0,0.153-0.059,0.299-0.168,0.407s-0.275,0.12-0.406,0.164l-2.781-0.031c-0.301-0.003-0.545-0.235-0.562-0.534L86.674,5.59
					l-2-2.076l-1.988,2.068L81.568,43.97c-0.01,0.309-0.262,0.555-0.57,0.555h-1.771c-0.314,0-0.57-0.254-0.57-0.571v-4.806h-0.393
					c-0.314,0-0.57-0.257-0.57-0.571v-8.242h-5.391c-0.314,0-0.57-0.254-0.57-0.568v-4.912h-0.922c-0.301,0-0.551-0.235-0.568-0.536
					c-0.078-1.238-1.074-2.254-2.316-2.354c-0.08-0.007-0.154-0.03-0.221-0.067c-0.064,0.038-0.135,0.061-0.209,0.067
					c-1.238,0.101-2.234,1.117-2.318,2.359c-0.021,0.298-0.268,0.532-0.568,0.532h-0.916v4.912c0,0.313-0.254,0.568-0.569,0.568
					h-5.391v3.539c0,0.317-0.255,0.571-0.569,0.571h-7.628c-0.316,0-0.569-0.254-0.569-0.571v-3.486h-0.669
					c-0.315,0-0.569-0.256-0.569-0.571v-5.8l-1.191-0.691c-0.188-0.109-0.298-0.312-0.283-0.529
					c0.013-0.215,0.148-0.404,0.347-0.489l1.141-0.481l-0.005-0.036c-0.011-0.109-0.241-4.113-2.985-5.414
					c-0.198-0.094-0.325-0.295-0.325-0.514v-1.68c-0.249-0.053-0.438-0.265-0.452-0.527c-0.008-0.155-0.122-0.287-0.281-0.326
					c-0.028-0.008-0.056-0.017-0.084-0.027c-0.027,0.011-0.055,0.02-0.081,0.027c-0.159,0.039-0.274,0.174-0.284,0.334
					c-0.017,0.256-0.205,0.469-0.451,0.519v1.68c0,0.219-0.127,0.42-0.326,0.514c-2.725,1.292-3.047,5.332-3.055,5.445l1.25,0.619
					c0.195,0.098,0.319,0.293,0.319,0.512c0,0.217-0.124,0.414-0.317,0.51l-1.174,0.583v5.772c0,0.315-0.256,0.571-0.57,0.571h-0.66
					v3.486c0,0.317-0.256,0.571-0.569,0.571h-7.083v17.288C30.607,52.05,30.351,52.304,30.037,52.304z"/>
			</g>
		</g>
		<g>
			<path fill="#FFFFFF" d="M45.1,21.131c0,0.732-0.601,1.336-1.336,1.336c-0.739,0-1.343-0.604-1.343-1.336
				c0-0.734,0.604-1.337,1.343-1.337C44.5,19.794,45.1,20.397,45.1,21.131z"/>
		</g>
		<g>
			<path fill="#FFFFFF" d="M69.15,32.128c0,0.735-0.6,1.335-1.336,1.335c-0.738,0-1.342-0.6-1.342-1.335
				c0-0.735,0.604-1.338,1.342-1.338C68.551,30.79,69.15,31.394,69.15,32.128z"/>
		</g>
		<g>
			<path fill="#FFFFFF" d="M48.298,27.27h-4.536c-0.315,0-0.569-0.254-0.569-0.569v-4.233c0-0.317,0.254-0.57,0.569-0.57
				c0.314,0,0.569,0.253,0.569,0.57v3.665h3.967c0.314,0,0.568,0.253,0.568,0.568S48.613,27.27,48.298,27.27z"/>
		</g>
		<g>
			<path fill="#FFFFFF" d="M67.812,32.296c-0.316,0-0.57-0.254-0.57-0.571v-4.14h-4.118c-0.315,0-0.569-0.254-0.569-0.571
				c0-0.316,0.254-0.57,0.569-0.57h4.688c0.314,0,0.568,0.254,0.568,0.57v4.711C68.381,32.042,68.127,32.296,67.812,32.296z"/>
		</g>
		<g>
			<path fill="#FFFFFF" d="M84.707,15.243c-0.004,0-0.008,0-0.012,0l-2.779-0.055c-0.314-0.008-0.564-0.267-0.559-0.581
				c0.006-0.314,0.297-0.5,0.582-0.559l2.197,0.044v-2.835c0-0.314,0.256-0.568,0.57-0.568s0.57,0.254,0.57,0.568v3.417
				c0,0.153-0.062,0.299-0.172,0.408C85,15.187,84.855,15.243,84.707,15.243z"/>
		</g>
		<g>
			<path fill="#FFFFFF" d="M130.062,52.304h-0.004l-13.502-0.033c-0.314,0-0.568-0.255-0.568-0.567V15.188h-13.352
				c-0.314,0-0.57-0.255-0.57-0.569c0-0.317,0.256-0.571,0.57-0.571h13.922c0.316,0,0.57,0.254,0.57,0.571v36.515l12.934,0.032
				c0.314,0,0.568,0.255,0.568,0.57C130.631,52.05,130.375,52.304,130.062,52.304z"/>
		</g>
		<g>
			<path fill="#FFFFFF" d="M116.559,33.673h-7.357c-0.314,0-0.57-0.253-0.57-0.57V21.774c0-0.317,0.256-0.571,0.57-0.571
				s0.57,0.254,0.57,0.571v10.76h6.787c0.316,0,0.57,0.254,0.57,0.569C117.129,33.42,116.875,33.673,116.559,33.673z"/>
		</g>
		<g>
			<path fill="#FFFFFF" d="M100.262,40.612c-0.312,0-0.57-0.253-0.57-0.57v-6.295h-7.273c-0.314,0-0.57-0.254-0.57-0.571
				c0-0.316,0.256-0.569,0.57-0.569h7.844c0.314,0,0.57,0.253,0.57,0.569v6.866C100.832,40.359,100.576,40.612,100.262,40.612z"/>
		</g>
		<g>
			<path fill="#FFFFFF" d="M86.045,9.92c0,0.735-0.6,1.336-1.334,1.336c-0.738,0-1.342-0.601-1.342-1.336
				c0-0.734,0.604-1.335,1.342-1.335C85.445,8.585,86.045,9.187,86.045,9.92z"/>
		</g>
		<g>
			<path fill="#FFFFFF" d="M101.602,40.581c0,0.737-0.602,1.34-1.336,1.34c-0.738,0-1.344-0.603-1.344-1.34
				c0-0.73,0.605-1.336,1.344-1.336C101,39.245,101.602,39.851,101.602,40.581z"/>
		</g>
		<g>
			<path fill="#FFFFFF" d="M110.541,21.155c0,0.734-0.6,1.336-1.334,1.336c-0.74,0-1.344-0.603-1.344-1.336
				c0-0.734,0.604-1.336,1.344-1.336C109.941,19.819,110.541,20.421,110.541,21.155z"/>
		</g>
		<g>
			<path fill="#FFFFFF" d="M16.886,51.733c0,0.735-0.6,1.338-1.336,1.338c-0.738,0-1.344-0.604-1.344-1.338
				c0-0.731,0.605-1.337,1.344-1.337C16.287,50.396,16.886,51.001,16.886,51.733z"/>
		</g>
		<g>
			<path fill="#FFFFFF" d="M132.045,51.733c0,0.735-0.6,1.338-1.336,1.338c-0.738,0-1.34-0.604-1.34-1.338
				c0-0.731,0.602-1.337,1.34-1.337C131.445,50.396,132.045,51.001,132.045,51.733z"/>
		</g>
	</g>
</g>
</svg>
