<?xml version="1.0" encoding="utf-8"?>
<!-- Generator: Adobe Illustrator 16.0.3, SVG Export Plug-In . SVG Version: 6.00 Build 0)  -->
<!DOCTYPE svg PUBLIC "-//W3C//DTD SVG 1.1//EN" "http://www.w3.org/Graphics/SVG/1.1/DTD/svg11.dtd">
<svg version="1.1" id="Layer_1" xmlns="http://www.w3.org/2000/svg" xmlns:xlink="http://www.w3.org/1999/xlink" x="0px" y="0px"
	 width="1174.245px" height="723.65px" viewBox="12.131 477.83 1174.245 723.65"
	 enable-background="new 12.131 477.83 1174.245 723.65" xml:space="preserve">
<g>
	<path fill="none" stroke="#2C5A8C" stroke-width="3" stroke-miterlimit="10" d="M347.445,853.47
		c-1.116-6.188-6.789-9.906-12.742-8.836c-5.952,1.066-9.952,6.557-8.836,12.742c1.396,7.856,7.77,17.158,13.998,16.045
		C346.143,872.26,348.841,861.329,347.445,853.47z"/>
	<path fill="none" stroke="#2C5A8C" stroke-width="3" stroke-miterlimit="10" d="M333.307,878.304
		c-0.465,0.648-1.069,1.116-1.77,1.438l-5.674,2.468c-2.695,1.16-4.465,3.857-4.372,6.837l0.097,6.557c0,0,5.58,2.372,22.137-0.604
		c16.556-2.977,20.974-7.159,20.974-7.159l-2.186-6.188c-0.979-2.791-3.534-4.697-6.511-4.884l-6.188-0.325
		c-0.791-0.047-1.534-0.278-2.139-0.744"/>
	<path fill="none" stroke="#2C5A8C" stroke-width="3" stroke-miterlimit="10" d="M369.815,854.26
		c-0.838-4.561-5.116-7.58-9.58-6.789c-4.465,0.79-7.438,5.162-6.604,9.673c0.931,5.162,5.066,10.976,10.139,10.092
		C368.931,866.306,370.742,859.426,369.815,854.26z"/>
	<path fill="none" stroke="#2C5A8C" stroke-width="3" stroke-miterlimit="10" d="M370.742,869.654
		c0.651,0.512,1.396,0.884,2.232,1.07l3.209,0.65c1.812,0.369,3.302,1.579,3.999,3.303l1.349,3.348c0,0-3.066,2.979-10.274,4.65"/>
</g>
<g>
	
		<polyline fill="none" stroke="#2C5A8C" stroke-width="3" stroke-linecap="round" stroke-linejoin="round" stroke-miterlimit="10" points="
		879.891,680.98 879.891,693.397 868.683,693.397 	"/>
	<path fill="none" stroke="#2C5A8C" stroke-width="3" stroke-linecap="round" stroke-linejoin="round" stroke-miterlimit="10" d="
		M879.844,693.397c-2.512-2.512-7.627-12.464-18.604-12.464c-10.323,0-18.693,8.371-18.693,18.695v1.256"/>
	
		<polyline fill="none" stroke="#2C5A8C" stroke-width="3" stroke-linecap="round" stroke-linejoin="round" stroke-miterlimit="10" points="
		842.547,718.323 842.547,705.861 853.755,705.861 	"/>
	<path fill="none" stroke="#2C5A8C" stroke-width="3" stroke-linecap="round" stroke-linejoin="round" stroke-miterlimit="10" d="
		M842.639,705.861c2.512,2.511,7.627,12.463,18.603,12.463c10.324,0,18.695-8.371,18.695-18.692v-1.259"/>
</g>
<path fill="none" stroke="#2C5A8C" stroke-width="3" stroke-linecap="round" stroke-linejoin="round" stroke-miterlimit="10" d="
	M676.335,852.261c0.229-0.979-0.372-1.907-1.352-2.143l-4.465-1.021c-0.465-0.093-0.837-0.372-1.116-0.79l-1.856-3.023
	c-0.233-0.418-0.651-0.694-1.116-0.79l-3.771-0.884c-0.465-0.093-0.93-0.047-1.349,0.232l-3.022,1.857
	c-0.419,0.232-0.884,0.325-1.349,0.232l-4.465-1.023c-0.979-0.229-1.906,0.372-2.142,1.352l-3.578,15.533
	c-0.233,0.977,0.369,1.904,1.349,2.14l22.462,5.162c0.978,0.229,1.907-0.372,2.14-1.352L676.335,852.261z"/>
<circle fill="none" stroke="#2C5A8C" stroke-width="3" stroke-linecap="round" stroke-linejoin="round" stroke-miterlimit="10" cx="661.593" cy="857.051" r="6.185"/>
<circle fill="#D9381E" stroke="#2C5A8C" stroke-width="3" stroke-miterlimit="10" cx="670.755" cy="852.773" r="0.883"/>
<path fill="none" stroke="#2C5A8C" stroke-width="3" stroke-linecap="round" stroke-linejoin="round" stroke-miterlimit="10" d="
	M1036.988,772.736c8.371,3.86,17.904,6.046,27.996,6.046v-0.047c33.021,0,59.76-23.159,59.76-51.761s-26.737-51.761-59.76-51.761
	c-33.019,0-59.76,23.159-59.76,51.761c0,5.767,1.116,11.348,3.116,16.51c1.953,5.022,5.021,9.58,8.371,13.951
	c7.065,9.209,5.949,26.788-3.488,37.205c9.627,0.604,18.975-2.278,26.415-7.906"/>
<g>
	<circle fill="none" stroke="#2C5A8C" stroke-width="3" stroke-miterlimit="10" cx="553.885" cy="611.733" r="33.577"/>
	
		<line fill="none" stroke="#2C5A8C" stroke-width="3" stroke-linecap="round" stroke-linejoin="round" stroke-miterlimit="10" x1="604.25" y1="662.098" x2="584.625" y2="642.519"/>
</g>
<g>
	
		<circle fill="none" stroke="#2C5A8C" stroke-width="3" stroke-linecap="round" stroke-linejoin="round" stroke-miterlimit="10" cx="728.326" cy="739.066" r="40.739"/>
	<path fill="none" stroke="#2C5A8C" stroke-width="3" stroke-linecap="round" stroke-linejoin="round" stroke-miterlimit="10" d="
		M713.586,776.969c2.276-7.209-0.049-15.114-5.952-19.858l-1.771-1.396"/>
	<path fill="none" stroke="#2C5A8C" stroke-width="3" stroke-linecap="round" stroke-linejoin="round" stroke-miterlimit="10" d="
		M749.07,704.049c-2.465,5.021-7.255,8.604-12.882,9.531l-5.349,0.887c-2.933,0.465-5.069,2.977-5.069,5.903
		c0,1.77,0.884,3.396,2.372,4.278c1.488,0.93,3.349,0.979,4.883,0.188l7.906-4c1.86-0.932,4.046-0.696,5.674,0.604
		c0.79,0.651,1.628,1.302,2.418,2c2.697,2.232,6.418,2.743,9.627,1.35l6.604-2.931"/>
	<path fill="none" stroke="#2C5A8C" stroke-width="3" stroke-linecap="round" stroke-linejoin="round" stroke-miterlimit="10" d="
		M702.844,736.322l2.186-2.14c3.723-3.58,4.65-9.161,2.325-13.769c-1.812-3.674-4.046-8.092-5.953-11.902"/>
	<path fill="none" stroke="#2C5A8C" stroke-width="3" stroke-linecap="round" stroke-linejoin="round" stroke-miterlimit="10" d="
		M702.844,736.322l-1.306,1.256c-2.093,2.047-3.209,4.886-3.066,7.812c0.14,2.931,1.535,5.628,3.812,7.488l3.534,2.836"/>
	<path fill="none" stroke="#2C5A8C" stroke-width="3" stroke-linecap="round" stroke-linejoin="round" stroke-miterlimit="10" d="
		M736.421,736.322c9.065,0,10.739,5.724,10.739,8.046c0,5.677-5.301,7.161-7.812,10.696c-3.813,5.348-2.884,13.812-2.884,13.812
		s-10.789-7.115-10.836-19.021C725.585,738.464,732.421,736.322,736.421,736.322z"/>
</g>
<path fill="none" stroke="#2C5A8C" stroke-width="3" stroke-linecap="round" stroke-linejoin="round" stroke-miterlimit="10" d="
	M464.079,845.427l-7.579,7.581l-1.905,1.903c-3.115,3.116-3.115,8.231,0,11.351c3.114,3.116,8.229,3.116,11.348,0l11.487-11.487
	c2.093-2.093,2.093-5.487,0-7.58s-5.487-2.093-7.581,0l-11.486,11.487c-1.021,1.021-1.021,2.743,0,3.767
	c1.023,1.024,2.744,1.023,3.77,0l8.139-8.139"/>
<g>
	<circle fill="none" stroke="#2C5A8C" stroke-width="3" stroke-miterlimit="10" cx="493.055" cy="962.433" r="14.277"/>
	<path fill="none" stroke="#2C5A8C" stroke-width="3" stroke-linecap="round" stroke-linejoin="round" stroke-miterlimit="10" d="
		M533.562,968.572c1.349-0.275,2.278-1.438,2.278-2.79v-6.743c0-1.349-0.979-2.512-2.278-2.791l-8.558-1.721
		c-1.023-0.186-1.813-0.93-2.142-1.906c-0.512-1.532-1.116-2.977-1.812-4.368c-0.465-0.934-0.418-2,0.187-2.887l4.79-7.161
		c0.744-1.114,0.604-2.648-0.372-3.58l-4.744-4.742c-0.977-0.979-2.464-1.116-3.58-0.372l-7.159,4.79
		c-0.84,0.558-1.953,0.648-2.887,0.186c-1.395-0.697-2.883-1.302-4.371-1.812c-0.977-0.325-1.721-1.162-1.904-2.142l-1.724-8.558
		c-0.275-1.349-1.438-2.278-2.79-2.278h-6.79c-1.349,0-2.511,0.979-2.79,2.278l-1.721,8.558c-0.187,1.022-0.931,1.813-1.907,2.142
		c-1.533,0.512-2.977,1.113-4.37,1.812c-0.932,0.466-2,0.419-2.885-0.186l-7.162-4.79c-1.112-0.744-2.647-0.604-3.58,0.372
		l-4.741,4.742c-0.979,0.978-1.116,2.466-0.372,3.58l3.903,5.812c1.07,1.628,1.258,3.721,0.469,5.487
		c-0.469,1.021-0.841,2.047-1.21,3.114c-0.325,0.979-1.162,1.723-2.142,1.905l-8.558,1.724c-1.352,0.276-2.278,1.439-2.278,2.791
		v6.74c0,1.352,0.979,2.515,2.278,2.79l8.558,1.724c1.022,0.187,1.813,0.931,2.142,1.904c0.512,1.534,1.113,2.979,1.812,4.371
		c0.465,0.934,0.418,2-0.187,2.884l-4.79,7.162c-0.744,1.115-0.604,2.65,0.372,3.58l4.741,4.744c0.979,0.979,2.468,1.116,3.58,0.372
		l7.162-4.79c0.838-0.559,1.953-0.651,2.884-0.187c1.396,0.695,2.886,1.303,4.371,1.812c0.979,0.326,1.724,1.163,1.907,2.142
		l1.721,8.559c0.279,1.349,1.441,2.277,2.79,2.277h6.743c1.352,0,2.515-0.979,2.791-2.277l1.724-8.559
		c0.186-1.022,0.93-1.812,1.903-2.142c1.535-0.511,2.979-1.115,4.371-1.812c0.931-0.468,2-0.419,2.884,0.187l7.162,4.79
		c1.116,0.744,2.65,0.604,3.581-0.372l4.743-4.744c0.977-0.977,1.116-2.465,0.372-3.58l-4.79-7.162
		c-0.558-0.837-0.651-1.95-0.188-2.884c0.696-1.395,1.304-2.883,1.812-4.371c0.325-0.977,1.162-1.721,2.139-1.904L533.562,968.572z"
		/>
</g>
<polygon fill="none" stroke="#2C5A8C" stroke-width="3" stroke-linecap="round" stroke-linejoin="round" stroke-miterlimit="10" points="
	822.595,1073.677 828.269,1116.972 871.194,1124.927 831.803,1143.716 837.477,1187.01 807.434,1155.342 768.043,1174.082 
	788.877,1135.76 758.836,1104.046 801.761,1112.043 "/>
<g>
	<path fill="none" stroke="#2C5A8C" stroke-width="3" stroke-miterlimit="10" d="M26.415,670.563"/>
	<g>
		<path fill="none" stroke="#2C5A8C" stroke-width="3" stroke-linecap="round" stroke-linejoin="round" stroke-miterlimit="10" d="
			M71.712,662.008c-3.162-1.677-6.79-2.604-10.604-2.604c-3.813,0-7.438,0.934-10.604,2.604"/>
		<path fill="none" stroke="#2C5A8C" stroke-width="3" stroke-linecap="round" stroke-linejoin="round" stroke-miterlimit="10" d="
			M81.385,692.885c1.675-3.162,2.604-6.79,2.604-10.604c0-3.812-0.93-7.438-2.604-10.603"/>
		<path fill="none" stroke="#2C5A8C" stroke-width="3" stroke-linecap="round" stroke-linejoin="round" stroke-miterlimit="10" d="
			M40.832,671.679c-1.675,3.162-2.604,6.789-2.604,10.603c0,3.814,0.932,7.441,2.604,10.604"/>
		<path fill="none" stroke="#2C5A8C" stroke-width="3" stroke-linecap="round" stroke-linejoin="round" stroke-miterlimit="10" d="
			M50.505,702.558c3.163,1.675,6.79,2.604,10.604,2.604s7.44-0.93,10.604-2.604"/>
	</g>
	<g>
		<path fill="none" stroke="#2C5A8C" stroke-width="3" stroke-linecap="round" stroke-linejoin="round" stroke-miterlimit="10" d="
			M55.714,669.679l-5.255-7.77c-0.466-0.694-1.163-1.163-2-1.302c-0.791-0.14-1.628,0.046-2.325,0.511
			c-1.162,0.837-2.324,1.771-3.396,2.837c-1.067,1.07-1.999,2.188-2.837,3.396c-0.465,0.65-0.648,1.488-0.511,2.325
			c0.139,0.79,0.604,1.534,1.302,2l7.769,5.255"/>
		<path fill="none" stroke="#2C5A8C" stroke-width="3" stroke-linecap="round" stroke-linejoin="round" stroke-miterlimit="10" d="
			M73.712,676.887l7.767-5.255c0.697-0.465,1.163-1.163,1.303-2c0.142-0.79-0.047-1.628-0.512-2.325
			c-0.837-1.163-1.769-2.325-2.837-3.396c-1.069-1.067-2.187-2-3.396-2.837c-0.65-0.465-1.488-0.648-2.325-0.512
			c-0.791,0.14-1.534,0.604-2,1.302l-5.255,7.77"/>
		<path fill="none" stroke="#2C5A8C" stroke-width="3" stroke-linecap="round" stroke-linejoin="round" stroke-miterlimit="10" d="
			M66.55,694.885l5.256,7.767c0.465,0.697,1.163,1.162,2,1.302c0.79,0.143,1.628-0.046,2.324-0.512
			c1.162-0.837,2.325-1.767,3.396-2.837c1.07-1.069,2-2.186,2.837-3.395c0.468-0.651,0.651-1.488,0.514-2.325
			c-0.142-0.791-0.604-1.535-1.304-2l-7.767-5.255"/>
		<path fill="none" stroke="#2C5A8C" stroke-width="3" stroke-linecap="round" stroke-linejoin="round" stroke-miterlimit="10" d="
			M48.505,687.723l-7.768,5.255c-0.696,0.466-1.161,1.163-1.303,2c-0.141,0.791,0.047,1.628,0.512,2.325
			c0.839,1.163,1.77,2.325,2.839,3.396c1.067,1.069,2.187,1.999,3.396,2.837c0.65,0.468,1.487,0.65,2.324,0.514
			c0.791-0.142,1.535-0.604,2-1.305l5.257-7.767"/>
	</g>
	
		<circle fill="none" stroke="#2C5A8C" stroke-width="3" stroke-linecap="round" stroke-linejoin="round" stroke-miterlimit="10" cx="61.109" cy="682.282" r="13.719"/>
</g>
<g>
	<path fill="none" stroke="#2C5A8C" stroke-width="3" stroke-linecap="round" stroke-linejoin="round" stroke-miterlimit="10" d="
		M468.497,1082.468c-1.721-6.278-8.229-9.999-14.51-8.278l-62.643,17.114c-6.278,1.721-9.999,8.229-8.278,14.51l13.998,51.249
		c1.721,6.278,8.23,9.999,14.51,8.278l62.646-17.114c6.275-1.721,9.999-8.23,8.275-14.51L468.497,1082.468z"/>
	
		<polyline fill="none" stroke="#2C5A8C" stroke-width="3" stroke-linecap="round" stroke-linejoin="round" stroke-miterlimit="10" points="
		394.463,1102.695 434.318,1125.436 457.106,1085.582 	"/>
</g>
<g>
	<path fill="none" stroke="#2C5A8C" stroke-width="3" stroke-linecap="round" stroke-linejoin="round" stroke-miterlimit="10" d="
		M45.157,1149.433l15.438,24.416c1.209,1.906,3.768,2.511,5.674,1.302l24.416-15.438c1.905-1.209,2.511-3.771,1.302-5.676
		l-15.438-24.416"/>
	<path fill="none" stroke="#2C5A8C" stroke-width="3" stroke-linecap="round" stroke-linejoin="round" stroke-miterlimit="10" d="
		M75.618,1120.413l-38.367,24.229l-4.418-6.977c-1.209-1.906-0.65-4.467,1.303-5.676l31.392-19.855
		c1.907-1.209,4.467-0.65,5.676,1.303L75.618,1120.413z"/>
	
		<line fill="none" stroke="#2C5A8C" stroke-width="3" stroke-linecap="round" stroke-linejoin="round" stroke-miterlimit="10" x1="55.621" y1="1142.829" x2="68.828" y2="1163.713"/>
	
		<line fill="none" stroke="#2C5A8C" stroke-width="3" stroke-linecap="round" stroke-linejoin="round" stroke-miterlimit="10" x1="66.085" y1="1136.179" x2="79.292" y2="1157.107"/>
	<path fill="none" stroke="#2C5A8C" stroke-width="3" stroke-linecap="round" stroke-linejoin="round" stroke-miterlimit="10" d="
		M44.599,1125.39l-1.116-1.721c-1.812-2.887-0.978-6.697,1.907-8.561c2.883-1.812,6.695-0.977,8.557,1.907l1.116,1.721"/>
</g>
<g>
	
		<circle fill="none" stroke="#2C5A8C" stroke-width="3" stroke-linecap="round" stroke-linejoin="round" stroke-miterlimit="10" cx="898.586" cy="859.097" r="41.995"/>
	<path fill="none" stroke="#2C5A8C" stroke-width="3" stroke-linecap="round" stroke-linejoin="round" stroke-miterlimit="10" d="
		M866.914,815.384c-3.812-1.352-7.998-1.627-12.186-0.372c-10.23,3.116-15.998,13.952-12.882,24.184
		c0.884,2.933,2.511,5.487,4.464,7.58"/>
	<path fill="none" stroke="#2C5A8C" stroke-width="3" stroke-linecap="round" stroke-linejoin="round" stroke-miterlimit="10" d="
		M900.49,805.151c2.372-3.256,5.77-5.812,9.906-7.069c10.229-3.113,21.066,2.651,24.184,12.885c0.886,2.931,0.979,5.953,0.514,8.79"
		/>
	
		<polyline fill="none" stroke="#2C5A8C" stroke-width="3" stroke-linecap="round" stroke-linejoin="round" stroke-miterlimit="10" points="
		883.89,866.956 902.633,861.237 895.052,836.544 	"/>
	
		<line fill="none" stroke="#2C5A8C" stroke-width="3" stroke-linecap="round" stroke-linejoin="round" stroke-miterlimit="10" x1="876.865" y1="909.649" x2="883.007" y2="898.069"/>
	
		<line fill="none" stroke="#2C5A8C" stroke-width="3" stroke-linecap="round" stroke-linejoin="round" stroke-miterlimit="10" x1="944.813" y1="888.907" x2="933.233" y2="882.722"/>
</g>
<g>
	<path fill="none" stroke="#2C5A8C" stroke-width="3" stroke-linecap="round" stroke-linejoin="round" stroke-miterlimit="10" d="
		M586.672,1126.552l27.299,10.229c-2.046,5.487,0.744,11.58,6.229,13.673c5.488,2.048,11.58-0.741,13.673-6.229l27.302,10.229
		l16.739-44.688c1.023-2.744-0.369-5.813-3.112-6.837l-64.553-24.229c-2.741-1.021-5.812,0.372-6.837,3.116L586.672,1126.552z"/>
	<path fill="none" stroke="#2C5A8C" stroke-width="3" stroke-linecap="round" stroke-linejoin="round" stroke-miterlimit="10" d="
		M657.451,1164.407l-3.721,9.953c-1.021,2.743-4.093,4.14-6.837,3.115l-64.55-24.229c-2.744-1.021-4.142-4.093-3.116-6.836
		l3.721-9.952"/>
	
		<line fill="none" stroke="#2C5A8C" stroke-width="3" stroke-linecap="round" stroke-linejoin="round" stroke-miterlimit="10" x1="614.619" y1="1097.347" x2="659.313" y2="1114.135"/>
	
		<line fill="none" stroke="#2C5A8C" stroke-width="3" stroke-linecap="round" stroke-linejoin="round" stroke-miterlimit="10" x1="610.901" y1="1107.302" x2="655.594" y2="1124.043"/>
	
		<line fill="none" stroke="#2C5A8C" stroke-width="3" stroke-linecap="round" stroke-linejoin="round" stroke-miterlimit="10" x1="607.18" y1="1117.204" x2="651.87" y2="1133.993"/>
</g>
<g>
	<path fill="none" stroke="#2C5A8C" stroke-width="3" stroke-linecap="round" stroke-linejoin="round" stroke-miterlimit="10" d="
		M1052.567,589.456c2.372-3.438,1.488-8.092-1.906-10.464l-68.178-47.018c-3.441-2.372-8.092-1.488-10.464,1.907l-25.625,37.202
		c-2.372,3.44-1.488,8.094,1.907,10.466l68.177,47.018c3.44,2.372,8.093,1.488,10.464-1.907L1052.567,589.456z"/>
	<path fill="none" stroke="#2C5A8C" stroke-width="3" stroke-linecap="round" stroke-linejoin="round" stroke-miterlimit="10" d="
		M988.666,536.209l14.978-21.674c10.604-15.394,31.717-19.3,47.11-8.647c15.394,10.604,19.3,31.717,8.646,47.107l-14.975,21.675"/>
	<path fill="none" stroke="#2C5A8C" stroke-width="3" stroke-linecap="round" stroke-linejoin="round" stroke-miterlimit="10" d="
		M1009.642,532.394l6.418-9.302c5.906-8.56,17.626-10.696,26.183-4.79c8.56,5.906,10.696,17.626,4.79,26.183l-6.418,9.302"/>
</g>
<path fill="none" stroke="#2C5A8C" stroke-width="3" stroke-linecap="round" stroke-linejoin="round" stroke-miterlimit="10" d="
	M967.927,946.761c-26.556,26.555-46.506,53.062-65.713,85.338c-9.905-9.906-20.931-18.742-32.74-26.275"/>
<g>
	<path fill="none" stroke="#2C5A8C" stroke-width="3" stroke-miterlimit="10" d="M918.723,718.789"/>
	<g>
		<path fill="none" stroke="#2C5A8C" stroke-width="3" stroke-linecap="round" stroke-linejoin="round" stroke-miterlimit="10" d="
			M947.65,712.139l16.556-16.56c2.188-2.186,5.724-2.186,7.953,0c2.142,2.143,2.142,5.677,0,7.813l-16.646,16.646"/>
		
			<polyline fill="none" stroke="#2C5A8C" stroke-width="3" stroke-linecap="round" stroke-linejoin="round" stroke-miterlimit="10" points="
			944.531,715.209 940.023,727.578 952.393,723.068 		"/>
	</g>
	<path fill="none" stroke="#2C5A8C" stroke-width="3" stroke-linecap="round" stroke-linejoin="round" stroke-miterlimit="10" d="
		M944.531,715.209c3.906,0.932,6.979,3.952,7.859,7.858"/>
</g>
<g>
	
		<line fill="none" stroke="#2C5A8C" stroke-width="3" stroke-linecap="round" stroke-linejoin="round" stroke-miterlimit="10" x1="746.186" y1="905.742" x2="734.885" y2="931.785"/>
	<path fill="none" stroke="#2C5A8C" stroke-width="3" stroke-linecap="round" stroke-linejoin="round" stroke-miterlimit="10" d="
		M773.576,907.231l3.724-8.65c2.092-4.883,2.186-10.417,0.229-15.347l-1.256-3.209c-1.953-4.93-1.859-10.464,0.232-15.347
		l4.558-10.56c1.116-2.559-0.047-5.485-2.604-6.604l-16.836-7.301c-2.558-1.116-5.484,0.046-6.604,2.604l-4.558,10.561
		c-2.096,4.883-6.096,8.74-11.022,10.693l-3.209,1.255c-4.93,1.954-8.929,5.813-11.021,10.696l-3.724,8.65L773.576,907.231z"/>
</g>
<g>
	<path fill="none" stroke="#2C5A8C" stroke-width="3" stroke-linecap="round" stroke-linejoin="round" stroke-miterlimit="10" d="
		M610.669,523.049l6.93,1.255l2.511-13.812c0.465-2.559-1.209-4.977-3.767-5.438l-25.349-4.65c-2.558-0.465-4.977,1.209-5.438,3.768
		l-2.513,13.812l6.931,1.256"/>
	
		<polyline fill="none" stroke="#2C5A8C" stroke-width="3" stroke-linecap="round" stroke-linejoin="round" stroke-miterlimit="10" points="
		594.156,496.215 594.993,491.608 615.738,495.424 614.9,500.026 	"/>
	
		<rect x="589.797" y="514.14" transform="matrix(0.9836 0.1803 -0.1803 0.9836 103.8227 -99.7134)" fill="none" stroke="#2C5A8C" stroke-width="3" stroke-linecap="round" stroke-linejoin="round" stroke-miterlimit="10" width="21.066" height="14.046"/>
	
		<line fill="none" stroke="#2C5A8C" stroke-width="3" stroke-linecap="round" stroke-linejoin="round" stroke-miterlimit="10" x1="588.904" y1="511.931" x2="614.247" y2="516.581"/>
</g>
<g>
	<path fill="none" stroke="#2C5A8C" stroke-width="3" stroke-linecap="round" stroke-linejoin="round" stroke-miterlimit="10" d="
		M574.859,836.031c-5.721,5.723-14.975,5.723-20.695,0l-56.923-56.924c-5.721-5.72-5.721-14.975,0-20.694l46.602-46.6
		c5.721-5.72,14.975-5.72,20.692,0l56.923,56.924c5.724,5.72,5.724,14.978,0,20.694L574.859,836.031z"/>
	
		<polyline fill="none" stroke="#2C5A8C" stroke-width="3" stroke-linecap="round" stroke-linejoin="round" stroke-miterlimit="10" points="
		507.612,768.737 549,768.737 549,789.431 	"/>
	
		<polyline fill="none" stroke="#2C5A8C" stroke-width="3" stroke-linecap="round" stroke-linejoin="round" stroke-miterlimit="10" points="
		528.306,789.431 580.021,789.431 580.021,810.176 	"/>
	
		<circle fill="none" stroke="#2C5A8C" stroke-width="3" stroke-linecap="round" stroke-linejoin="round" stroke-miterlimit="10" cx="554.161" cy="742.879" r="7.301"/>
</g>
<g>
	<path fill="none" stroke="#2C5A8C" stroke-width="3" stroke-linecap="round" stroke-linejoin="round" stroke-miterlimit="10" d="
		M61.481,501.327c0.56-3.812,4.095-6.464,7.906-5.856l89.615,13.161c3.812,0.558,6.465,4.093,5.858,7.903l-3.021,20.694
		L58.411,522.023L61.481,501.327z"/>
	<path fill="none" stroke="#2C5A8C" stroke-width="3" stroke-linecap="round" stroke-linejoin="round" stroke-miterlimit="10" d="
		M159.841,550.995l-8.093,55.156c-0.56,3.813-4.094,6.465-7.904,5.859l-89.617-13.16c-3.812-0.56-6.464-4.093-5.857-7.906
		l8.092-55.156"/>
	
		<line fill="none" stroke="#2C5A8C" stroke-width="3" stroke-linecap="round" stroke-linejoin="round" stroke-miterlimit="10" x1="76.083" y1="545.74" x2="75.061" y2="552.625"/>
	
		<line fill="none" stroke="#2C5A8C" stroke-width="3" stroke-linecap="round" stroke-linejoin="round" stroke-miterlimit="10" x1="117.427" y1="551.834" x2="116.405" y2="558.719"/>
	
		<line fill="none" stroke="#2C5A8C" stroke-width="3" stroke-linecap="round" stroke-linejoin="round" stroke-miterlimit="10" x1="138.122" y1="554.856" x2="137.099" y2="561.739"/>
	
		<line fill="none" stroke="#2C5A8C" stroke-width="3" stroke-linecap="round" stroke-linejoin="round" stroke-miterlimit="10" x1="72.037" y1="573.319" x2="71.015" y2="580.201"/>
	
		<line fill="none" stroke="#2C5A8C" stroke-width="3" stroke-linecap="round" stroke-linejoin="round" stroke-miterlimit="10" x1="92.686" y1="576.388" x2="91.709" y2="583.271"/>
	
		<line fill="none" stroke="#2C5A8C" stroke-width="3" stroke-linecap="round" stroke-linejoin="round" stroke-miterlimit="10" x1="113.381" y1="579.411" x2="112.358" y2="586.297"/>
	
		<line fill="none" stroke="#2C5A8C" stroke-width="3" stroke-linecap="round" stroke-linejoin="round" stroke-miterlimit="10" x1="134.076" y1="582.434" x2="133.053" y2="589.317"/>
	<path fill="none" stroke="#2C5A8C" stroke-width="3" stroke-linecap="round" stroke-linejoin="round" stroke-miterlimit="10" d="
		M102.638,556.672c-0.559,3.812-4.093,6.465-7.905,5.857c-3.812-0.559-6.465-4.093-5.858-7.905l1.021-6.884
		c0.56-3.812,4.093-6.465,7.906-5.857c3.812,0.559,6.464,4.093,5.858,7.903L102.638,556.672z"/>
</g>
<g>
	
		<line fill="none" stroke="#2C5A8C" stroke-width="3" stroke-linecap="round" stroke-linejoin="round" stroke-miterlimit="10" x1="243.226" y1="585.506" x2="243.226" y2="609.361"/>
	
		<line fill="none" stroke="#2C5A8C" stroke-width="3" stroke-linecap="round" stroke-linejoin="round" stroke-miterlimit="10" x1="231.32" y1="597.408" x2="255.178" y2="597.408"/>
</g>
<g>
	<path fill="none" stroke="#2C5A8C" stroke-width="3" stroke-linecap="round" stroke-linejoin="round" stroke-miterlimit="10" d="
		M1071.168,1041.772l84.178,32.74c2.695,1.021,4.79,3.163,5.812,5.857c1.023,2.697,0.838,5.675-0.511,8.231l-15.812,30.321
		c-4.418,8.464-14.14,12.693-23.302,10.092l-62.271-17.396c-9.162-2.559-15.303-11.207-14.696-20.739l4.418-68.317
		c0.325-4.743-2.744-9.068-7.348-10.37l-13.626-3.812"/>
	
		<circle fill="none" stroke="#2C5A8C" stroke-width="3" stroke-linecap="round" stroke-linejoin="round" stroke-miterlimit="10" cx="1053.358" cy="1141.621" r="10.092"/>
	
		<circle fill="none" stroke="#2C5A8C" stroke-width="3" stroke-linecap="round" stroke-linejoin="round" stroke-miterlimit="10" cx="1112.094" cy="1157.898" r="10.091"/>
</g>
<g>
	
		<line fill="none" stroke="#2C5A8C" stroke-width="3" stroke-linecap="round" stroke-linejoin="round" stroke-miterlimit="10" x1="793.156" y1="547.554" x2="793.156" y2="592.99"/>
	
		<line fill="none" stroke="#2C5A8C" stroke-width="3" stroke-linecap="round" stroke-linejoin="round" stroke-miterlimit="10" x1="823.432" y1="547.554" x2="823.432" y2="592.99"/>
	
		<line fill="none" stroke="#2C5A8C" stroke-width="3" stroke-linecap="round" stroke-linejoin="round" stroke-miterlimit="10" x1="808.272" y1="547.554" x2="808.272" y2="592.99"/>
	
		<line fill="none" stroke="#2C5A8C" stroke-width="3" stroke-linecap="round" stroke-linejoin="round" stroke-miterlimit="10" x1="861.334" y1="547.554" x2="861.334" y2="592.99"/>
	
		<line fill="none" stroke="#2C5A8C" stroke-width="3" stroke-linecap="round" stroke-linejoin="round" stroke-miterlimit="10" x1="846.175" y1="547.554" x2="846.175" y2="592.99"/>
	
		<line fill="none" stroke="#2C5A8C" stroke-width="3" stroke-linecap="round" stroke-linejoin="round" stroke-miterlimit="10" x1="876.493" y1="547.554" x2="876.493" y2="592.99"/>
	
		<line fill="none" stroke="#2C5A8C" stroke-width="3" stroke-linecap="round" stroke-linejoin="round" stroke-miterlimit="10" x1="785.574" y1="502.072" x2="808.272" y2="502.072"/>
	
		<line fill="none" stroke="#2C5A8C" stroke-width="3" stroke-linecap="round" stroke-linejoin="round" stroke-miterlimit="10" x1="861.334" y1="502.072" x2="884.074" y2="502.072"/>
	<path fill="none" stroke="#2C5A8C" stroke-width="3" stroke-linecap="round" stroke-linejoin="round" stroke-miterlimit="10" d="
		M846.175,502.072"/>
	
		<polyline fill="none" stroke="#2C5A8C" stroke-width="3" stroke-linecap="round" stroke-linejoin="round" stroke-miterlimit="10" points="
		823.432,479.33 834.824,490.724 846.175,479.33 	"/>
	<path fill="none" stroke="#2C5A8C" stroke-width="3" stroke-linecap="round" stroke-linejoin="round" stroke-miterlimit="10" d="
		M846.175,502.072v7.58c0,4.188,3.395,7.581,7.58,7.581h30.319v15.161h-98.5v-15.161h30.322c4.188,0,7.58-3.396,7.58-7.581v-7.58
		H846.175"/>
</g>
<g>
	
		<polygon fill="none" stroke="#2C5A8C" stroke-width="3" stroke-linecap="round" stroke-linejoin="round" stroke-miterlimit="10" points="
		1118.512,613.221 1115.906,618.476 1110.653,621.129 1115.906,623.778 1118.512,629.032 1121.16,623.778 1126.418,621.129 
		1121.16,618.476 	"/>
	
		<polygon fill="none" stroke="#2C5A8C" stroke-width="3" stroke-linecap="round" stroke-linejoin="round" stroke-miterlimit="10" points="
		1139.577,615.871 1136.975,623.778 1129.069,626.385 1136.975,629.032 1139.577,636.939 1142.23,629.032 1150.136,626.385 
		1142.23,623.778 	"/>
	
		<polygon fill="none" stroke="#2C5A8C" stroke-width="3" stroke-linecap="round" stroke-linejoin="round" stroke-miterlimit="10" points="
		1131.674,597.408 1129.069,605.315 1121.16,607.968 1129.069,610.616 1131.674,618.476 1134.323,610.616 1142.23,607.968 
		1134.323,605.315 	"/>
</g>
<g>
	
		<line fill="none" stroke="#2C5A8C" stroke-width="3" stroke-linecap="round" stroke-linejoin="round" stroke-miterlimit="10" x1="361.906" y1="958.297" x2="361.906" y2="958.297"/>
	<path fill="none" stroke="#2C5A8C" stroke-width="3" stroke-linecap="round" stroke-linejoin="round" stroke-miterlimit="10" d="
		M320.426,963.506l3.395-3.396c2.419-2.418,6.372-2.418,8.79,0c0.604,0.604,1.302,1.302,2,2c2.418,2.418,6.371,2.418,8.789,0
		l11.162-11.161c4.046-4.047,10.603-4.047,14.695,0c4.046,4.046,4.046,10.604,0,14.695l-11.161,11.161
		c-2.419,2.419-2.419,6.372,0,8.79l2,2c2.418,2.418,2.418,6.371,0,8.789l-3.396,3.396"/>
	
		<line fill="none" stroke="#2C5A8C" stroke-width="3" stroke-linecap="round" stroke-linejoin="round" stroke-miterlimit="10" x1="317.821" y1="989.453" x2="306.148" y2="1001.129"/>
	
		<line fill="none" stroke="#2C5A8C" stroke-width="3" stroke-linecap="round" stroke-linejoin="round" stroke-miterlimit="10" x1="330.797" y1="1002.428" x2="319.121" y2="1014.101"/>
	<path fill="none" stroke="#2C5A8C" stroke-width="3" stroke-linecap="round" stroke-linejoin="round" stroke-miterlimit="10" d="
		M315.217,968.665c-7.022,7.021-14.836,13.114-23.347,18.187l41.528,41.529c5.022-8.56,11.114-16.416,18.09-23.396L315.217,968.665z
		"/>
</g>
<g>
	<path fill="none" stroke="#2C5A8C" stroke-width="3" stroke-linecap="round" stroke-linejoin="round" stroke-miterlimit="10" d="
		M400.091,684.189c7.812-0.837,15.438,2.977,19.482,9.72c11.068,18.37,17.998,38.975,20.23,60.318
		c0.837,7.812-2.979,15.438-9.72,19.485c-18.37,11.065-38.976,17.998-60.318,20.229c-7.813,0.837-15.44-2.977-19.486-9.72
		c-11.065-18.37-17.997-38.975-20.229-60.318c-0.837-7.812,2.977-15.438,9.72-19.484
		C358.141,693.35,378.741,686.424,400.091,684.189z"/>
	<path fill="none" stroke="#2C5A8C" stroke-width="3" stroke-linecap="round" stroke-linejoin="round" stroke-miterlimit="10" d="
		M374.279,760.459c11.859,5.533,25.95,0.789,32.043-10.741"/>
	
		<circle fill="none" stroke="#2C5A8C" stroke-width="3" stroke-linecap="round" stroke-linejoin="round" stroke-miterlimit="10" cx="359.304" cy="747.623" r="3.395"/>
	
		<circle fill="none" stroke="#2C5A8C" stroke-width="3" stroke-linecap="round" stroke-linejoin="round" stroke-miterlimit="10" cx="410.553" cy="730.462" r="3.395"/>
</g>
<g>
	<path fill="none" stroke="#2C5A8C" stroke-width="3" stroke-linecap="round" stroke-linejoin="round" stroke-miterlimit="10" d="
		M50.505,1004.94c1.907-3.721,0.419-8.325-3.302-10.231c-3.723-1.904-8.324-0.419-10.23,3.305
		c-2.418,4.743-2.604,12.092,1.349,14.091C42.181,1014.101,48.087,1009.73,50.505,1004.94z"/>
	<path fill="none" stroke="#2C5A8C" stroke-width="3" stroke-linecap="round" stroke-linejoin="round" stroke-miterlimit="10" d="
		M47.203,1009.311c2.649-3.069,1.812-5.255-0.095-7.255c-1.256-1.352-2.047-3.162-1.163-4.837c-0.837,1.675-2.789,2.093-4.604,1.857
		c-2.743-0.322-5.021,0.232-5.952,4.188"/>
	<path fill="none" stroke="#2C5A8C" stroke-width="3" stroke-linecap="round" stroke-linejoin="round" stroke-miterlimit="10" d="
		M37.019,998.057c-2.187,4.278-5.858,6.743-5.858,6.743l4.323,3.438"/>
	<path fill="none" stroke="#2C5A8C" stroke-width="3" stroke-linecap="round" stroke-linejoin="round" stroke-miterlimit="10" d="
		M50.505,1004.94c-2.188,4.278-2,8.696-2,8.696l-5.301-1.488"/>
	<path fill="none" stroke="#2C5A8C" stroke-width="3" stroke-linecap="round" stroke-linejoin="round" stroke-miterlimit="10" d="
		M33.485,1012.101c-0.466,0.14-0.978,0.187-1.486,0.094l-4.886-1.07c-1.579-0.322-3.209,0.232-4.276,1.488l-1.487,1.814
		c0,0,1.396,4.371,11.067,9.301c9.674,4.93,14.045,3.534,14.045,3.534l0.56-2.188c0.372-1.532-0.095-3.16-1.21-4.229l-3.812-3.581
		c-0.372-0.325-0.604-0.743-0.744-1.209v-0.046"/>
</g>
<g>
	<path fill="none" stroke="#2C5A8C" stroke-width="3" stroke-linecap="round" stroke-linejoin="round" stroke-miterlimit="10" d="
		M722.887,529.838c-10.418,24.32-16.463,46.878-20.559,73.015c-9.112-3.906-18.603-6.743-28.319-8.604"/>
	<path fill="none" stroke="#2C5A8C" stroke-width="3" stroke-linecap="round" stroke-linejoin="round" stroke-miterlimit="10" d="
		M704.843,547.046l-42.927,17.206c-4.741,1.904-7.021,7.302-5.16,12.046l18.928,47.2c1.907,4.744,7.302,7.022,12.045,5.162
		l47.204-18.928c4.742-1.907,7.021-7.302,5.162-12.045l-16.37-40.786"/>
</g>
<g>
	<path fill="none" stroke="#2C5A8C" stroke-width="3" stroke-miterlimit="10" d="M228.065,842.402
		c2.884-7.021-0.419-15.068-7.439-17.998c-7.021-2.883-15.066,0.419-17.997,7.441c-1.351,3.255-5.674,13.672-7.021,16.975
		c-2.884,7.022,0.418,15.067,7.439,17.997c7.021,2.884,15.066-0.418,17.998-7.44C222.438,856.074,226.716,845.656,228.065,842.402z"
		/>
	<path fill="none" stroke="#2C5A8C" stroke-width="3" stroke-linecap="round" stroke-linejoin="round" stroke-miterlimit="10" d="
		M231.32,858.588l-1.767,4.229c-4.838,11.72-18.277,17.254-29.95,12.417c-11.719-4.837-17.253-18.276-12.417-29.95l1.77-4.229"/>
	
		<line fill="none" stroke="#2C5A8C" stroke-width="3" stroke-linecap="round" stroke-linejoin="round" stroke-miterlimit="10" x1="177.373" y1="881.004" x2="211.276" y2="895"/>
	
		<line fill="none" stroke="#2C5A8C" stroke-width="3" stroke-linecap="round" stroke-linejoin="round" stroke-miterlimit="10" x1="199.603" y1="875.281" x2="194.348" y2="888.024"/>
</g>
<line fill="none" stroke="#2C5A8C" stroke-width="3" stroke-linecap="round" stroke-linejoin="round" stroke-miterlimit="10" x1="708.656" y1="626.056" x2="708.656" y2="628.288"/>
<g>
	<path fill="none" stroke="#2C5A8C" stroke-width="3" stroke-linecap="round" stroke-linejoin="round" stroke-miterlimit="10" d="
		M1153.903,936.018"/>
	<path fill="none" stroke="#2C5A8C" stroke-width="3" stroke-linecap="round" stroke-linejoin="round" stroke-miterlimit="10" d="
		M1177.99,934.672c0,0-13.531-26.186-48.18-26.186c-34.649,0-48.182,25.812-48.182,25.812"/>
	<path fill="none" stroke="#2C5A8C" stroke-width="3" stroke-linecap="round" stroke-linejoin="round" stroke-miterlimit="10" d="
		M1078.192,932.576c3.441,3.534,10.324,3.441,10.324,3.441s6.883,0,10.324-3.441c3.531,3.441,10.321,3.441,10.321,3.441
		s6.839,0,10.324-3.441c3.488,3.441,10.324,3.441,10.324,3.441s6.79,0,10.324-3.441c3.438,3.534,10.321,3.441,10.321,3.441
		s6.886,0.093,10.324-3.441c3.441,3.534,10.324,3.441,10.324,3.441s6.79-0.093,10.324-3.441"/>
	
		<line fill="none" stroke="#2C5A8C" stroke-width="3" stroke-linecap="round" stroke-linejoin="round" stroke-miterlimit="10" x1="1119.257" y1="914.256" x2="1110.324" y2="881.004"/>
	<path fill="none" stroke="#2C5A8C" stroke-width="3" stroke-linecap="round" stroke-linejoin="round" stroke-miterlimit="10" d="
		M1141.812,865.469c0,0-4.372-0.979-9.859,2.694c-5.485,3.678-8.322,9.305-8.322,9.305s-6.048-1.86-14.141,0.324
		c-8.092,2.187-12.417,6.789-12.417,6.789s-6.557-3.722-11.766-4c-5.209-0.276-9.952,2.65-9.952,2.65
		c-2.558-9.58,6.371-30.229,26.136-35.484C1121.16,842.494,1139.158,855.47,1141.812,865.469z"/>
	<path fill="none" stroke="#2C5A8C" stroke-width="3" stroke-linecap="round" stroke-linejoin="round" stroke-miterlimit="10" d="
		M1101.445,847.75c0,0-11.673,9.579-4.372,36.785"/>
	<path fill="none" stroke="#2C5A8C" stroke-width="3" stroke-linecap="round" stroke-linejoin="round" stroke-miterlimit="10" d="
		M1123.628,877.469c-7.304-27.206-22.229-29.671-22.229-29.671"/>
	
		<circle fill="none" stroke="#2C5A8C" stroke-width="3" stroke-linecap="round" stroke-linejoin="round" stroke-miterlimit="10" cx="1157.344" cy="853.424" r="6.883"/>
	
		<line fill="none" stroke="#2C5A8C" stroke-width="3" stroke-linecap="round" stroke-linejoin="round" stroke-miterlimit="10" x1="1157.344" y1="874.072" x2="1157.344" y2="880.954"/>
	
		<line fill="none" stroke="#2C5A8C" stroke-width="3" stroke-linecap="round" stroke-linejoin="round" stroke-miterlimit="10" x1="1184.875" y1="853.426" x2="1177.99" y2="853.426"/>
	
		<line fill="none" stroke="#2C5A8C" stroke-width="3" stroke-linecap="round" stroke-linejoin="round" stroke-miterlimit="10" x1="1142.74" y1="838.821" x2="1137.905" y2="833.938"/>
	
		<line fill="none" stroke="#2C5A8C" stroke-width="3" stroke-linecap="round" stroke-linejoin="round" stroke-miterlimit="10" x1="1176.828" y1="872.909" x2="1171.948" y2="868.027"/>
	
		<line fill="none" stroke="#2C5A8C" stroke-width="3" stroke-linecap="round" stroke-linejoin="round" stroke-miterlimit="10" x1="1176.828" y1="833.938" x2="1171.948" y2="838.821"/>
</g>
<g>
	<path fill="none" stroke="#2C5A8C" stroke-width="3" stroke-linecap="round" stroke-linejoin="round" stroke-miterlimit="10" d="
		M635.363,992.758c1.352,2.977,4.837,4.275,7.77,2.93l29.528-13.301c2.979-1.352,4.278-4.837,2.933-7.77l-10.882-24.137
		l-40.229,18.138C624.434,968.618,632.898,987.314,635.363,992.758z"/>
	<path fill="none" stroke="#2C5A8C" stroke-width="3" stroke-linecap="round" stroke-linejoin="round" stroke-miterlimit="10" d="
		M622.016,963.27l-1.209-2.697c-0.651-1.485,0-3.209,1.487-3.905l16.092-7.256c1.484-0.648,3.208,0,3.905,1.488l1.209,2.697"/>
</g>
<g>
	<path fill="none" stroke="#2C5A8C" stroke-width="3" stroke-linecap="round" stroke-linejoin="round" stroke-miterlimit="10" d="
		M1169.064,522.58c-0.558-0.837-1.488-1.302-2.465-1.302l-2.093,0.047l4.139-8.93c1.907-4.093,0.14-8.976-3.999-10.882
		l-26.415-12.278c-3.907-1.812-8.511-0.139-10.324,3.771l-12.275,26.415c-1.906,4.093-0.143,8.976,4,10.883l26.043,12.091
		c4.093,1.907,8.976,0.14,10.883-3.999l4.139-8.93l1.305,1.628c0.604,0.791,1.582,1.163,2.559,1.067
		c0.977-0.14,1.859-0.743,2.277-1.628l2.42-5.255C1169.716,524.488,1169.62,523.421,1169.064,522.58z"/>
	
		<circle fill="none" stroke="#2C5A8C" stroke-width="3" stroke-linecap="round" stroke-linejoin="round" stroke-miterlimit="10" cx="1142.184" cy="515.93" r="16.556"/>
	
		<polygon fill="none" stroke="#2C5A8C" stroke-width="3" stroke-linecap="round" stroke-linejoin="round" stroke-miterlimit="10" points="
		1152.041,512.35 1140.696,511.931 1132.278,519.558 1143.625,519.93 	"/>
	
		<circle fill="none" stroke="#2C5A8C" stroke-width="3" stroke-linecap="round" stroke-linejoin="round" stroke-miterlimit="10" cx="1135.531" cy="497.746" r="2.837"/>
	
		<line fill="none" stroke="#2C5A8C" stroke-width="3" stroke-linecap="round" stroke-linejoin="round" stroke-miterlimit="10" x1="1140.696" y1="511.931" x2="1143.625" y2="519.93"/>
</g>
<g>
	<path fill="none" stroke="#2C5A8C" stroke-width="3" stroke-linecap="round" stroke-linejoin="round" stroke-miterlimit="10" d="
		M131.797,876.769c2.791,6.977-0.649,14.836-7.58,17.626L54.83,921.973c-6.978,2.79-14.835-0.651-17.626-7.58l-22.604-56.784
		c-2.79-6.976,0.65-14.835,7.58-17.626l69.436-27.577c6.976-2.791,14.835,0.65,17.626,7.58L131.797,876.769z"/>
	
		<line fill="none" stroke="#2C5A8C" stroke-width="3" stroke-linecap="round" stroke-linejoin="round" stroke-miterlimit="10" x1="49.808" y1="909.323" x2="47.296" y2="903.048"/>
	
		<line fill="none" stroke="#2C5A8C" stroke-width="3" stroke-linecap="round" stroke-linejoin="round" stroke-miterlimit="10" x1="62.41" y1="904.347" x2="59.9" y2="898.023"/>
	
		<line fill="none" stroke="#2C5A8C" stroke-width="3" stroke-linecap="round" stroke-linejoin="round" stroke-miterlimit="10" x1="119.148" y1="881.795" x2="116.683" y2="875.469"/>
	
		<line fill="none" stroke="#2C5A8C" stroke-width="3" stroke-linecap="round" stroke-linejoin="round" stroke-miterlimit="10" x1="106.545" y1="886.768" x2="104.033" y2="880.49"/>
	
		<line fill="none" stroke="#2C5A8C" stroke-width="3" stroke-linecap="round" stroke-linejoin="round" stroke-miterlimit="10" x1="23.531" y1="824.823" x2="56.923" y2="826.174"/>
	
		<line fill="none" stroke="#2C5A8C" stroke-width="3" stroke-linecap="round" stroke-linejoin="round" stroke-miterlimit="10" x1="80.269" y1="802.267" x2="56.923" y2="826.174"/>
	<path fill="none" stroke="#2C5A8C" stroke-width="3" stroke-linecap="round" stroke-linejoin="round" stroke-miterlimit="10" d="
		M86.082,831.334c5.768-1.439,11.812,1.068,14.882,6.188c2.513,4.186,4.325,8.742,5.35,13.486c1.255,5.767-1.35,11.626-6.465,14.603
		c-14.695,8.561-30.555,14.836-47.062,18.695c-5.723,1.349-11.675-1.162-14.696-6.188c-2.511-4.186-4.324-8.74-5.396-13.484
		c-1.256-5.813,1.396-11.769,6.56-14.695C53.901,841.611,69.665,835.334,86.082,831.334z"/>
</g>
<g>
	<path fill="none" stroke="#2C5A8C" stroke-width="3" stroke-linecap="round" stroke-linejoin="round" stroke-miterlimit="10" d="
		M443.898,611.034v7.396c0,4.093-3.302,7.395-7.394,7.395h-7.396c-4.093,0-7.395-3.302-7.395-7.395v-7.396"/>
	<path fill="none" stroke="#2C5A8C" stroke-width="3" stroke-linecap="round" stroke-linejoin="round" stroke-miterlimit="10" d="
		M421.669,596.199h22.229c12.187-11.065,29.625-24.273,29.625-44.46c0-22.509-18.229-37.062-40.739-37.062
		c-22.509,0-40.736,14.556-40.736,37.062C392.045,571.83,409.484,585.038,421.669,596.199z"/>
	<path fill="none" stroke="#2C5A8C" stroke-width="3" stroke-linecap="round" stroke-linejoin="round" stroke-miterlimit="10" d="
		M436.505,596.199c5.72-16.975,14.835-39.67,14.835-51.854c0-16.369-8.278-29.624-18.513-29.624
		c-10.229,0-18.509,13.255-18.509,29.624c0,12.139,9.115,34.927,14.835,51.854H436.505z"/>
	<path fill="none" stroke="#2C5A8C" stroke-width="3" stroke-linecap="round" stroke-linejoin="round" stroke-miterlimit="10" d="
		M377.209,536.905c-8.188,0-14.836,6.65-14.836,14.835c-8.187,0-14.837,6.65-14.837,14.836c0,8.188,6.649,14.835,14.837,14.835
		c8.187,0,22.229,0,22.229,0"/>
</g>
<g>
	<path fill="none" stroke="#2C5A8C" stroke-width="3" stroke-linecap="round" stroke-linejoin="round" stroke-miterlimit="10" d="
		M284.942,1114.275c0,1.116-0.931,2.046-2.047,2.046h-4.092c-1.116,0-2.048-0.93-2.048-2.046v-4.093
		c0-1.116,0.932-2.046,2.048-2.046h4.092c1.116,0,2.047,0.93,2.047,2.046V1114.275z"/>
	
		<line fill="none" stroke="#2C5A8C" stroke-width="3" stroke-linecap="round" stroke-linejoin="round" stroke-miterlimit="10" x1="293.173" y1="1112.229" x2="309.59" y2="1112.229"/>
	<path fill="none" stroke="#2C5A8C" stroke-width="3" stroke-linecap="round" stroke-linejoin="round" stroke-miterlimit="10" d="
		M284.942,1130.692c0,1.116-0.931,2.046-2.047,2.046h-4.092c-1.116,0-2.048-0.93-2.048-2.046v-4.093
		c0-1.116,0.932-2.047,2.048-2.047h4.092c1.116,0,2.047,0.931,2.047,2.047V1130.692z"/>
	
		<line fill="none" stroke="#2C5A8C" stroke-width="3" stroke-linecap="round" stroke-linejoin="round" stroke-miterlimit="10" x1="293.173" y1="1128.645" x2="309.59" y2="1128.645"/>
	<path fill="none" stroke="#2C5A8C" stroke-width="3" stroke-linecap="round" stroke-linejoin="round" stroke-miterlimit="10" d="
		M317.821,1136.877c0,4.56-3.674,8.23-8.229,8.23h-32.881c-4.56,0-8.231-3.674-8.231-8.23v-32.88c0-4.558,3.675-8.229,8.231-8.229
		h32.88c4.558,0,8.229,3.675,8.229,8.229L317.821,1136.877L317.821,1136.877z"/>
	<path fill="none" stroke="#2C5A8C" stroke-width="3" stroke-linecap="round" stroke-linejoin="round" stroke-miterlimit="10" d="
		M268.525,1103.997h-4.093c-4.559,0-8.229,3.677-8.229,8.231v36.972c0,4.561,3.674,8.231,8.229,8.231h36.926
		c4.56,0,8.231-3.674,8.231-8.231v-4.093"/>
</g>
<path fill="none" stroke="#2C5A8C" stroke-width="3" stroke-linecap="round" stroke-linejoin="round" stroke-miterlimit="10" d="
	M312.799,524.115c0,0-21.766,1.534-27.718-5.767c-3.305-4.046-2.698-9.999,1.35-13.254c2.836-2.326,6.648-2.651,9.766-1.304
	c-0.742-3.351,0.372-7.021,3.209-9.35c4.048-3.302,9.999-2.697,13.254,1.35C318.656,503.141,312.799,524.115,312.799,524.115z"/>
<g>
	
		<line fill="none" stroke="#2C5A8C" stroke-width="3" stroke-linecap="round" stroke-linejoin="round" stroke-miterlimit="10" x1="979.877" y1="1140.782" x2="999.084" y2="1131.621"/>
	
		<polyline fill="none" stroke="#2C5A8C" stroke-width="3" stroke-linecap="round" stroke-linejoin="round" stroke-miterlimit="10" points="
		984.901,1126.599 999.084,1131.621 994.063,1145.806 	"/>
	<path fill="none" stroke="#2C5A8C" stroke-width="3" stroke-linecap="round" stroke-linejoin="round" stroke-miterlimit="10" d="
		M950.673,1172.314c-0.419,1.163-1.116,2.186-2.048,2.977l-9.396,7.952c-3.021,2.562-4.371,6.604-3.487,10.464l1.303,5.677
		c0,0,10.648,3.768,34.646-7.627c24.044-11.396,27.812-22.044,27.812-22.044l-3.396-4.325c-2.372-3.069-6.278-4.558-10.092-3.952
		l-12.604,2.046c-1.159,0.188-2.372,0.095-3.484-0.323l-0.097-0.049"/>
	<path fill="none" stroke="#2C5A8C" stroke-width="3" stroke-linecap="round" stroke-linejoin="round" stroke-miterlimit="10" d="
		M962.3,1128.508c-4.418-9.304-15.533-13.256-24.788-8.838c-9.303,4.418-13.254,15.532-8.836,24.787
		c5.627,11.812,19.578,23.066,29.392,18.416C967.601,1158.363,967.88,1140.365,962.3,1128.508z"/>
</g>
<g>
	
		<polygon fill="none" stroke="#2C5A8C" stroke-width="3" stroke-linecap="round" stroke-linejoin="round" stroke-miterlimit="10" points="
		159.19,1133.017 173.792,1147.668 164.305,1149.108 157.701,1142.552 	"/>
	<path fill="none" stroke="#2C5A8C" stroke-width="3" stroke-linecap="round" stroke-linejoin="round" stroke-miterlimit="10" d="
		M156.26,1144.736l-2.42,2.419c-0.649,0.65-0.649,1.767,0,2.418l3.396,3.396c0.65,0.648,1.769,0.648,2.418,0l2.418-2.418"/>
	<path fill="none" stroke="#2C5A8C" stroke-width="3" stroke-linecap="round" stroke-linejoin="round" stroke-miterlimit="10" d="
		M167.933,1135.947c1.628,0,2.93,1.303,2.93,2.933"/>
	<path fill="none" stroke="#2C5A8C" stroke-width="3" stroke-linecap="round" stroke-linejoin="round" stroke-miterlimit="10" d="
		M167.933,1131.574c4.046,0,7.301,3.256,7.301,7.303"/>
</g>
<g>
	<path fill="none" stroke="#2C5A8C" stroke-width="3" stroke-linecap="round" stroke-linejoin="round" stroke-miterlimit="10" d="
		M763.998,1036.936c-0.791,1.999-2.743,3.348-4.932,3.348h-6.837c-2.187,0-4.093-1.302-4.93-3.348
		c-2.188-5.534-3.352-11.396-3.352-17.347v-2.697c0-1.303,1.07-2.326,2.326-2.326h18.695c1.302,0,2.325,1.07,2.325,2.326v2.697
		C767.346,1025.543,766.231,1031.402,763.998,1036.936z"/>
	<path fill="none" stroke="#2C5A8C" stroke-width="3" stroke-linecap="round" stroke-linejoin="round" stroke-miterlimit="10" d="
		M767.346,1023.913"/>
	<path fill="none" stroke="#2C5A8C" stroke-width="3" stroke-linecap="round" stroke-linejoin="round" stroke-miterlimit="10" d="
		M770.834,1014.566h1.16c2.604,0,4.697,2.093,4.697,4.697c0,2.604-2.093,4.697-4.697,4.697h-1.16"/>
	<path fill="none" stroke="#2C5A8C" stroke-width="3" stroke-linecap="round" stroke-linejoin="round" stroke-miterlimit="10" d="
		M755.674,1009.869c0.742-2.276,0.742-4.741,0-7.021"/>
	<path fill="none" stroke="#2C5A8C" stroke-width="3" stroke-linecap="round" stroke-linejoin="round" stroke-miterlimit="10" d="
		M751.532,1009.869c0,0-0.047-0.094-0.093-0.187c-0.65-1.441-0.604-3.069,0.093-4.465"/>
	<path fill="none" stroke="#2C5A8C" stroke-width="3" stroke-linecap="round" stroke-linejoin="round" stroke-miterlimit="10" d="
		M760.323,1009.869c0,0,0.046-0.094,0.094-0.187c0.649-1.441,0.604-3.069-0.094-4.465"/>
</g>
<path fill="none" stroke="#2C5A8C" stroke-width="3" stroke-linecap="round" stroke-linejoin="round" stroke-miterlimit="10" d="
	M526.909,1066.141c-0.559,0.326-1.256,0.279-1.812-0.093l-2.371-1.813l-6.465,3.209v3.069c0,0.93,0.419,1.812,1.067,2.418
	c0.65,0.604,1.627,0.884,2.514,0.791c5.162-0.651,9.999-2.979,13.72-6.697c3.72-3.721,6.046-8.557,6.696-13.719
	c0.093-0.934-0.188-1.86-0.79-2.512c-0.604-0.652-1.488-1.069-2.419-1.069h-3.069l-3.209,6.464l1.814,2.372
	c0.371,0.512,0.418,1.255,0.093,1.812C531.237,1062.746,529.281,1064.746,526.909,1066.141z"/>
<g>
	
		<line fill="none" stroke="#2C5A8C" stroke-width="3" stroke-linecap="round" stroke-linejoin="round" stroke-miterlimit="10" x1="193.418" y1="671.028" x2="172.025" y2="775.154"/>
	
		<line fill="none" stroke="#2C5A8C" stroke-width="3" stroke-linecap="round" stroke-linejoin="round" stroke-miterlimit="10" x1="221.926" y1="671.028" x2="200.533" y2="775.154"/>
	
		<line fill="none" stroke="#2C5A8C" stroke-width="3" stroke-linecap="round" stroke-linejoin="round" stroke-miterlimit="10" x1="157.748" y1="705.721" x2="243.319" y2="705.721"/>
	
		<line fill="none" stroke="#2C5A8C" stroke-width="3" stroke-linecap="round" stroke-linejoin="round" stroke-miterlimit="10" x1="150.586" y1="742.228" x2="236.203" y2="742.228"/>
</g>
<path fill="none" stroke="#2C5A8C" stroke-width="3" stroke-linecap="round" stroke-linejoin="round" stroke-miterlimit="10" d="
	M222.995,1082.186l-45.994-33.764l-45.994,33.109l17.579-51.621l-45.994-31.063h56.878l17.578-52.601l17.579,52.601h56.876
	l-45.994,30.88L222.995,1082.186z"/>
</svg>
