<?xml version="1.0" encoding="utf-8"?>
<!-- Generator: Adobe Illustrator 16.0.3, SVG Export Plug-In . SVG Version: 6.00 Build 0)  -->
<!DOCTYPE svg PUBLIC "-//W3C//DTD SVG 1.1//EN" "http://www.w3.org/Graphics/SVG/1.1/DTD/svg11.dtd">
<svg version="1.1" id="Layer_1" xmlns="http://www.w3.org/2000/svg" xmlns:xlink="http://www.w3.org/1999/xlink" x="0px" y="0px"
	 width="210.182px" height="58.418px" viewBox="0 0 210.182 58.418" enable-background="new 0 0 210.182 58.418"
	 xml:space="preserve">
<g>
	<polygon fill="#005C80" points="43.884,58.418 210.182,58.418 210.182,30.701 43.884,30.701 43.884,58.418 	"/>
	<path fill="#FFFFFF" d="M197.266,45.859l3.379,5.359h2.721v-1.221l-1.082-0.18l-2.859-4.459l2.322-2.699l1.197-0.16v-1.398h-3.998
		v1.357l1.061,0.141L197.266,45.859L197.266,45.859z M197.166,36.662h-3.502v1.318l1.221,0.26v12.979h2.281V36.662L197.166,36.662z"
		/>
	<path fill="#FFFFFF" d="M189.393,51.219h3.48V50.02l-1.221-0.16v-6.42c0-1.758-0.9-2.6-2.398-2.6c-1.221,0-2.24,0.561-3.16,1.439
		l-0.262-1.18h-3.117v1.4l1.221,0.26v8.459h2.277v-7.68c0.58-0.459,1.4-0.84,2.08-0.84c0.799,0,1.1,0.4,1.1,1.48V51.219
		L189.393,51.219z"/>
	<path fill="#FFFFFF" d="M178.461,49.16c-0.381,0.418-0.941,0.76-1.721,0.76c-0.861,0-1.281-0.441-1.281-1.641
		c0-1.461,0.641-1.84,2.34-1.84h0.662V49.16L178.461,49.16z M181.818,49.979c-0.898,0.021-1.078-0.139-1.078-0.939v-5.02
		c0-2.299-1.121-3.18-3.281-3.18c-1.58,0-2.9,0.461-3.979,1.139l0.66,1.42c0.92-0.459,1.82-0.758,2.84-0.758
		c1.201,0,1.48,0.639,1.48,1.76v0.779h-0.682c-3.279,0-4.619,0.939-4.619,3.238c0,2.143,1.18,3.061,2.939,3.061
		c1.26,0,1.961-0.541,2.541-1.139c0.199,0.818,0.84,1.139,1.717,1.139c0.623,0,1.221-0.18,1.602-0.379L181.818,49.979
		L181.818,49.979z"/>
	<path fill="#FFFFFF" d="M164.855,49.738v-4.938h1.859c1.66,0,2.277,0.799,2.277,2.398c0,1.74-0.639,2.539-2.379,2.539H164.855
		L164.855,49.738z M164.855,43.34v-4.459h1.578c1.559,0,1.98,0.84,1.98,2.279s-0.34,2.18-1.881,2.18H164.855L164.855,43.34z
		 M161.035,37.381v1.281l1.379,0.238v10.879l-1.379,0.219v1.221h6.139c2.559,0,4.34-1.1,4.34-3.84c0-2.18-1.199-3.219-2.66-3.5
		c1.32-0.379,2.039-1.34,2.039-2.82c0-2.117-1.039-3.678-4.098-3.678H161.035L161.035,37.381z"/>
	<path fill="#FFFFFF" d="M155.643,42.619l-1.4,4.68c-0.26,0.9-0.459,1.76-0.559,2.52h-0.021c-0.1-0.779-0.299-1.721-0.52-2.52
		l-1.359-4.658l1.039-0.16V41.1h-4.26v1.4l0.902,0.141l2.779,8.578h0.719c-0.441,1.4-1.26,2.18-3.18,2.459l0.541,1.68
		c2.16-0.439,3.42-1.199,4.359-4.158l2.758-8.539l0.9-0.16v-1.4h-3.799v1.381L155.643,42.619L155.643,42.619z"/>
	<path fill="#FFFFFF" d="M141.889,45.26c0.121-2.299,0.662-3.039,1.779-3.039c1.32,0,1.621,0.799,1.621,3.039H141.889L141.889,45.26
		z M147.59,45.76c0-3.639-1.4-4.92-3.9-4.92c-2.58,0-4.199,1.541-4.199,5.299c0,3.801,1.539,5.34,4.418,5.34
		c1.541,0,2.58-0.398,3.58-1.201l-0.658-1.199c-0.801,0.5-1.461,0.822-2.6,0.822c-1.762,0-2.32-0.902-2.342-3.24h5.701V45.76
		L147.59,45.76z"/>
	<path fill="#FFFFFF" d="M138.131,49.75c-0.213,0.07-0.453,0.115-0.646,0.115c-0.453,0-0.621-0.27-0.621-0.875V36.662h-3.52v1.318
		l1.24,0.26v10.539c0,1.604,0.52,2.699,2.234,2.699c0.662,0,1.227-0.16,1.646-0.387L138.131,49.75L138.131,49.75z"/>
	<path fill="#FFFFFF" d="M132.824,49.75c-0.215,0.07-0.455,0.115-0.648,0.115c-0.453,0-0.621-0.27-0.621-0.875V36.662h-3.52v1.318
		l1.24,0.26v10.539c0,1.604,0.52,2.699,2.234,2.699c0.662,0,1.227-0.16,1.646-0.387L132.824,49.75L132.824,49.75z"/>
	<path fill="#FFFFFF" d="M124.074,49.16c-0.379,0.418-0.939,0.76-1.719,0.76c-0.859,0-1.279-0.441-1.279-1.641
		c0-1.461,0.641-1.84,2.34-1.84h0.658V49.16L124.074,49.16z M127.436,49.979c-0.9,0.021-1.08-0.139-1.08-0.939v-5.02
		c0-2.299-1.121-3.18-3.279-3.18c-1.58,0-2.9,0.461-3.979,1.139l0.658,1.42c0.92-0.459,1.82-0.758,2.84-0.758
		c1.199,0,1.479,0.639,1.479,1.76v0.779h-0.678c-3.281,0-4.621,0.939-4.621,3.238c0,2.143,1.18,3.061,2.941,3.061
		c1.26,0,1.959-0.541,2.539-1.139c0.199,0.818,0.84,1.139,1.719,1.139c0.621,0,1.221-0.18,1.6-0.379L127.436,49.979L127.436,49.979z
		"/>
	<path fill="#FFFFFF" d="M117.922,38.861l1.119-0.199v-1.281h-4.359v1.281l1.359,0.199l-1.939,7.199
		c-0.439,1.619-0.52,2.117-0.619,2.857h-0.041c-0.119-0.76-0.199-1.238-0.619-2.838l-1.941-7.219l1.34-0.199v-1.281h-5.059v1.281
		l1.121,0.199l3.699,12.357h2.299L117.922,38.861L117.922,38.861z"/>
	<path fill="#FFFFFF" d="M102.516,51.219h3.479V50.02l-1.219-0.16v-6.42c0-1.758-0.9-2.6-2.401-2.6
		c-1.219,0-2.239,0.561-3.159,1.439l-0.26-1.18h-3.119v1.4l1.22,0.26v8.459h2.28v-7.68c0.58-0.459,1.4-0.84,2.079-0.84
		c0.802,0,1.1,0.4,1.1,1.48V51.219L102.516,51.219z"/>
	<path fill="#FFFFFF" d="M90.282,50.059c-1.439,0-1.899-1.061-1.899-3.92c0-2.838,0.439-3.857,1.88-3.857
		c1.459,0,1.919,1.039,1.919,3.857C92.182,48.998,91.742,50.059,90.282,50.059L90.282,50.059z M90.263,40.84
		c-2.62,0-4.319,1.48-4.319,5.279c0,3.82,1.719,5.359,4.338,5.359c2.641,0,4.34-1.52,4.34-5.32
		C94.622,42.361,92.902,40.84,90.263,40.84L90.263,40.84z"/>
	<path fill="#FFFFFF" d="M83.933,49.119c-0.64,0.422-1.381,0.779-2.28,0.779c-1.519,0-2.239-0.779-2.239-3.859
		c0-2.898,0.58-3.779,1.9-3.779c0.46,0,0.879,0.08,1.139,0.279l0.3,1.561h1.56v-2.299c-0.72-0.621-1.72-0.961-3.041-0.961
		c-2.479,0-4.299,1.42-4.299,5.299c0,3.721,1.66,5.34,4.219,5.34c1.52,0,2.581-0.459,3.421-1.18L83.933,49.119L83.933,49.119z"/>
	<polygon fill="#FFFFFF" points="74.85,41.1 71.351,41.1 71.351,42.5 72.57,42.76 72.57,51.219 74.85,51.219 74.85,41.1 	"/>
	<path fill="#FFFFFF" d="M70.343,49.75c-0.213,0.07-0.454,0.115-0.647,0.115c-0.451,0-0.622-0.27-0.622-0.875V36.662h-3.519v1.318
		l1.241,0.26v10.539c0,1.604,0.519,2.699,2.234,2.699c0.661,0,1.226-0.16,1.645-0.387L70.343,49.75L70.343,49.75z"/>
	<polygon fill="#FFFFFF" points="64.283,41.1 60.782,41.1 60.782,42.5 62.003,42.76 62.003,51.219 64.283,51.219 64.283,41.1 	"/>
	<path fill="#FFFFFF" d="M55.812,42.9c-1.72-0.602-2.319-1.039-2.319-2.359c0-1.201,0.679-1.879,2.08-1.879
		c0.521,0,0.979,0.078,1.379,0.279l0.481,1.82h1.539V37.84c-0.86-0.459-2.06-0.719-3.32-0.719c-2.6,0-4.299,1.24-4.299,3.777
		c0,2.303,0.979,3.402,3.58,4.301c1.56,0.541,2.379,1.061,2.379,2.5c0,1.262-0.62,2.26-2.419,2.26c-0.661,0-1.081-0.061-1.58-0.32
		l-0.501-1.98h-1.539v2.961c0.819,0.539,2.12,0.859,3.758,0.859c3.32,0,4.58-1.859,4.58-4.039
		C59.611,44.68,58.172,43.699,55.812,42.9L55.812,42.9z"/>
	<g>
		<defs>
			<polygon id="SVGID_1_" points="43.884,28.392 71.6,28.392 71.6,0.676 43.884,0.676 43.884,28.392 			"/>
		</defs>
		<clipPath id="SVGID_2_">
			<use xlink:href="#SVGID_1_"  overflow="visible"/>
		</clipPath>
		<g clip-path="url(#SVGID_2_)">
			<defs>
				<rect id="SVGID_3_" x="43.884" y="0.676" width="27.716" height="27.716"/>
			</defs>
			<clipPath id="SVGID_4_">
				<use xlink:href="#SVGID_3_"  overflow="visible"/>
			</clipPath>
			<g clip-path="url(#SVGID_4_)">
				
					<image overflow="visible" width="64" height="62" xlink:href="70000B39B2C2290A.png"  transform="matrix(0.48 0 0 -0.48 42.4849 29.7598)">
				</image>
			</g>
		</g>
	</g>
	<g>
		<defs>
			<path id="SVGID_5_" d="M54.531,3.282h-0.007h-0.004h-0.004c-0.044,0.001-0.088,0.014-0.13,0.036l0,0l-2.47,1.448
				c-0.128,0.076-0.175,0.239-0.105,0.37l0,0l5.014,9.454l-5.061,9.313c-0.071,0.131-0.026,0.296,0.101,0.371l0,0l2.461,1.474
				c0.045,0.028,0.094,0.04,0.144,0.04l0,0c0.082,0,0.16-0.035,0.214-0.102l0,0l9.01-10.92c0.084-0.101,0.086-0.249,0.002-0.352l0,0
				L54.741,3.382C54.688,3.318,54.61,3.284,54.531,3.282L54.531,3.282z"/>
		</defs>
		<clipPath id="SVGID_6_">
			<use xlink:href="#SVGID_5_"  overflow="visible"/>
		</clipPath>
		<g clip-path="url(#SVGID_6_)">
			<defs>
				<rect id="SVGID_7_" x="51.691" y="3.282" width="12.086" height="22.506"/>
			</defs>
			<clipPath id="SVGID_8_">
				<use xlink:href="#SVGID_7_"  overflow="visible"/>
			</clipPath>
			<g clip-path="url(#SVGID_8_)">
				
					<image overflow="visible" width="32" height="51" xlink:href="70000B39B2C2290E.jpg"  transform="matrix(0.48 0 0 -0.48 50.6411 26.8809)">
				</image>
			</g>
		</g>
	</g>
	<g>
		<defs>
			<polygon id="SVGID_9_" points="53.708,4.951 60.31,14.59 63.478,14.59 54.525,3.558 53.708,4.951 			"/>
		</defs>
		<clipPath id="SVGID_10_">
			<use xlink:href="#SVGID_9_"  overflow="visible"/>
		</clipPath>
		<g clip-path="url(#SVGID_10_)">
			<defs>
				<rect id="SVGID_11_" x="53.708" y="3.558" width="9.769" height="11.032"/>
			</defs>
			<clipPath id="SVGID_12_">
				<use xlink:href="#SVGID_11_"  overflow="visible"/>
			</clipPath>
			<g clip-path="url(#SVGID_12_)">
				
					<image overflow="visible" width="28" height="27" xlink:href="70000B39B2C22909.jpg"  transform="matrix(0.48 0 0 -0.48 52.5273 15.8813)">
				</image>
			</g>
		</g>
	</g>
	<g>
		<defs>
			<polygon id="SVGID_13_" points="52.055,5.006 57.139,14.59 60.31,14.59 53.708,4.951 52.055,5.006 			"/>
		</defs>
		<clipPath id="SVGID_14_">
			<use xlink:href="#SVGID_13_"  overflow="visible"/>
		</clipPath>
		<g clip-path="url(#SVGID_14_)">
			<defs>
				<rect id="SVGID_15_" x="52.055" y="4.951" width="8.255" height="9.639"/>
			</defs>
			<clipPath id="SVGID_16_">
				<use xlink:href="#SVGID_15_"  overflow="visible"/>
			</clipPath>
			<g transform="matrix(1 0 0 1 0 -9.536743e-07)" clip-path="url(#SVGID_16_)">
				
					<image overflow="visible" width="24" height="24" xlink:href="70000B39B2C2290A.jpg"  transform="matrix(0.48 0 0 -0.48 50.7939 15.7632)">
				</image>
			</g>
		</g>
	</g>
	<g>
		<defs>
			<polygon id="SVGID_17_" points="52.055,5.006 54.121,5.554 54.525,3.558 52.055,5.006 			"/>
		</defs>
		<clipPath id="SVGID_18_">
			<use xlink:href="#SVGID_17_"  overflow="visible"/>
		</clipPath>
		<g clip-path="url(#SVGID_18_)">
			<defs>
				<rect id="SVGID_19_" x="52.055" y="3.558" width="2.47" height="1.997"/>
			</defs>
			<clipPath id="SVGID_20_">
				<use xlink:href="#SVGID_19_"  overflow="visible"/>
			</clipPath>
			<g clip-path="url(#SVGID_20_)">
				
					<image overflow="visible" width="12" height="8" xlink:href="70000B39B2C22908.jpg"  transform="matrix(0.48 0 0 -0.48 50.73 6.812)">
				</image>
			</g>
		</g>
	</g>
	<g>
		<defs>
			<polygon id="SVGID_21_" points="60.31,14.59 57.14,14.59 52.007,24.035 53.647,24.181 60.31,14.59 			"/>
		</defs>
		<clipPath id="SVGID_22_">
			<use xlink:href="#SVGID_21_"  overflow="visible"/>
		</clipPath>
		<g clip-path="url(#SVGID_22_)">
			<defs>
				<rect id="SVGID_23_" x="52.007" y="14.59" width="8.303" height="9.591"/>
			</defs>
			<clipPath id="SVGID_24_">
				<use xlink:href="#SVGID_23_"  overflow="visible"/>
			</clipPath>
			<g clip-path="url(#SVGID_24_)">
				
					<image overflow="visible" width="24" height="24" xlink:href="70000B39B2C22916.jpg"  transform="matrix(0.48 0 0 -0.48 50.7812 25.563)">
				</image>
			</g>
		</g>
	</g>
	<g>
		<defs>
			<polygon id="SVGID_25_" points="63.478,14.59 60.31,14.59 53.647,24.181 54.468,25.51 63.478,14.59 			"/>
		</defs>
		<clipPath id="SVGID_26_">
			<use xlink:href="#SVGID_25_"  overflow="visible"/>
		</clipPath>
		<g clip-path="url(#SVGID_26_)">
			<defs>
				<rect id="SVGID_27_" x="53.647" y="14.59" width="9.831" height="10.92"/>
			</defs>
			<clipPath id="SVGID_28_">
				<use xlink:href="#SVGID_27_"  overflow="visible"/>
			</clipPath>
			<g clip-path="url(#SVGID_28_)">
				
					<image overflow="visible" width="28" height="27" xlink:href="70000B39B2C22919.jpg"  transform="matrix(0.48 0 0 -0.48 52.5112 26.8687)">
				</image>
			</g>
		</g>
	</g>
	<polygon fill="#78787A" points="52.006,24.035 54.467,25.51 54.155,23.45 52.006,24.035 	"/>
	<polygon fill="#00A1E3" points="0,28.392 41.574,28.392 41.574,0.676 0,0.676 0,28.392 	"/>
	<path fill="#FFFFFF" d="M30.958,20.572c-0.774,0-1.504-0.43-1.979-0.881v-6.127c0.581-0.537,1.248-0.881,2.085-0.881
		c1.419,0,1.848,1.075,1.848,3.849C32.914,19.433,32.441,20.572,30.958,20.572L30.958,20.572z M31.862,10.833
		c-1.205,0-2.215,0.645-2.882,1.376v-5.87h-3.741v1.419l1.29,0.28v13.953h1.849l0.302-1.097c0.667,0.731,1.698,1.376,2.924,1.376
		c2.3,0,3.913-1.162,3.913-5.87C35.517,12.016,33.882,10.833,31.862,10.833L31.862,10.833z"/>
	<path fill="#FFFFFF" d="M22.385,12.746l-1.419,4.817c-0.236,0.816-0.452,1.698-0.581,2.537h-0.021
		c-0.151-0.86-0.281-1.613-0.56-2.516l-1.483-4.816l1.076-0.172v-1.483h-4.58v1.506l0.923,0.149l3.139,9.224h2.322l3.139-9.203
		l0.99-0.17v-1.506h-4.128v1.483L22.385,12.746L22.385,12.746z"/>
	<path fill="#FFFFFF" d="M10.831,15.326c-1.549-0.409-2.064-0.795-2.064-1.676c0-0.86,0.602-1.334,1.678-1.334
		c0.516,0,0.881,0.065,1.205,0.216l0.386,1.591h1.613v-2.644c-0.796-0.409-1.829-0.646-3.226-0.646
		c-2.516,0-3.783,1.376-3.783,3.161c0,2.128,1.246,2.923,3.074,3.418c1.527,0.409,2.106,0.795,2.106,1.849
		c0,0.99-0.516,1.506-1.827,1.506c-0.688,0-0.946-0.065-1.397-0.281L8.25,18.809H6.574v2.667c0.795,0.451,1.978,0.795,3.44,0.795
		c2.451,0,4.041-1.097,4.041-3.311C14.055,16.551,12.723,15.842,10.831,15.326L10.831,15.326z"/>
</g>
</svg>
