<?xml version="1.0" encoding="utf-8"?>
<!-- Generator: Adobe Illustrator 16.0.3, SVG Export Plug-In . SVG Version: 6.00 Build 0)  -->
<!DOCTYPE svg PUBLIC "-//W3C//DTD SVG 1.1//EN" "http://www.w3.org/Graphics/SVG/1.1/DTD/svg11.dtd">
<svg version="1.1" id="Layer_1" xmlns="http://www.w3.org/2000/svg" xmlns:xlink="http://www.w3.org/1999/xlink" x="0px" y="0px"
	 width="35px" height="35px" viewBox="0 0 35 35" enable-background="new 0 0 35 35" xml:space="preserve">
<g>
	<path fill="#FFFFFF" d="M10.995,32.027h0.025C24.22,32.02,31.438,21.081,31.438,11.593c0-0.311-0.006-0.62-0.02-0.928
		C32.819,9.652,34.036,8.388,35,6.948c-1.287,0.571-2.669,0.957-4.123,1.13c1.483-0.889,2.622-2.296,3.157-3.973
		c-1.386,0.824-2.922,1.421-4.561,1.743c-1.309-1.395-3.175-2.268-5.24-2.268c-3.97,0-7.182,3.215-7.182,7.182
		c0,0.563,0.063,1.111,0.186,1.636C11.269,12.099,5.976,9.239,2.435,4.895c-0.618,1.061-0.973,2.293-0.973,3.61
		c0,2.492,1.268,4.69,3.195,5.979c-1.177-0.037-2.284-0.361-3.252-0.898c-0.001,0.03-0.001,0.06-0.001,0.09
		c0,3.479,2.475,6.382,5.761,7.042c-0.603,0.163-1.237,0.251-1.892,0.251c-0.463,0-0.912-0.044-1.351-0.127
		c0.914,2.852,3.566,4.929,6.709,4.986c-2.459,1.927-5.556,3.075-8.92,3.075c-0.579,0-1.15-0.035-1.711-0.101v0.001
		C3.174,30.838,6.944,32.025,10.995,32.027z"/>
	<polygon fill="#FFFFFF" points="35.061,6.91 35.059,6.911 35.061,6.91 	"/>
</g>
</svg>
