<?xml version="1.0" encoding="utf-8"?>
<!-- Generator: Adobe Illustrator 16.0.0, SVG Export Plug-In . SVG Version: 6.00 Build 0)  -->
<!DOCTYPE svg PUBLIC "-//W3C//DTD SVG 1.1//EN" "http://www.w3.org/Graphics/SVG/1.1/DTD/svg11.dtd">
<svg version="1.1" id="Layer_1" xmlns="http://www.w3.org/2000/svg" xmlns:xlink="http://www.w3.org/1999/xlink" x="0px" y="0px"
	 width="443.59px" height="147.436px" viewBox="0 0 443.59 147.436" enable-background="new 0 0 443.59 147.436"
	 xml:space="preserve">
<g>
	<polygon fill="#050013" points="31.99,32.814 45.79,68.241 60.202,30.241 74.009,68.241 88.663,32.814 97.345,32.814 
		73.661,89.179 60.032,51.627 45.826,89.209 23.304,32.814 	"/>
	<path fill="#00ADEE" d="M126.676,59.075c0-7.459,2.733-13.866,8.207-19.221c5.444-5.355,11.99-8.035,19.635-8.035
		c7.552,0,14.027,2.699,19.424,8.101c5.425,5.408,8.136,11.892,8.136,19.467c0,7.619-2.719,14.081-8.171,19.387
		c-5.466,5.34-12.066,8.005-19.803,8.005c-6.843,0-12.987-2.364-18.425-7.107C129.68,74.435,126.676,67.567,126.676,59.075
		 M134.745,59.163c0,5.845,1.965,10.665,5.904,14.443c3.913,3.768,8.432,5.651,13.555,5.651c5.567,0,10.259-1.926,14.073-5.758
		c3.827-3.886,5.735-8.62,5.735-14.205c0-5.646-1.885-10.378-5.661-14.192c-3.75-3.85-8.401-5.774-13.941-5.774
		c-5.514,0-10.166,1.925-13.972,5.774C136.644,48.896,134.745,53.588,134.745,59.163"/>
	<polygon fill="#050013" points="233.301,32.814 233.301,78.303 248.883,78.303 248.883,85.818 225.303,85.818 225.303,32.814 	"/>
	<path fill="#A5CD39" d="M292.208,59.075c0-7.459,2.73-13.866,8.199-19.221c5.449-5.355,11.994-8.035,19.643-8.035
		c7.551,0,14.023,2.699,19.43,8.101c5.418,5.408,8.129,11.892,8.129,19.467c0,7.619-2.723,14.081-8.17,19.387
		c-5.467,5.34-12.068,8.005-19.805,8.005c-6.846,0-12.988-2.364-18.436-7.107C295.2,74.435,292.208,67.567,292.208,59.075
		 M300.276,59.163c0,5.845,1.965,10.665,5.9,14.443c3.91,3.768,8.436,5.651,13.561,5.651c5.555,0,10.252-1.926,14.074-5.758
		c3.824-3.886,5.734-8.62,5.734-14.205c0-5.646-1.889-10.378-5.666-14.192c-3.758-3.85-8.398-5.774-13.934-5.774
		c-5.518,0-10.176,1.925-13.975,5.774C302.174,48.896,300.276,53.588,300.276,59.163"/>
	<polygon fill="#050013" points="399.479,58.11 384.887,32.814 393.979,32.814 404.114,50.766 414.749,32.814 423.913,32.814 
		408.641,58.11 424.674,85.818 415.708,85.818 403.971,65.531 391.891,85.818 382.825,85.818 	"/>
	<path fill="#050013" d="M138.88,121.705c0,2.7-0.707,4.738-2.123,6.121c-1.415,1.383-3.496,2.072-6.233,2.072h-3.848v-16.077h4.343
		c2.562,0,4.515,0.675,5.855,2.013C138.212,117.176,138.88,119.132,138.88,121.705z M137.66,121.751c0-2.3-0.587-4.029-1.754-5.192
		c-1.169-1.163-2.888-1.745-5.15-1.745h-2.96v14.095h2.659C135.258,128.908,137.66,126.519,137.66,121.751z"/>
	<path fill="#050013" d="M143.694,122.894v7.005h-1.12v-16.077h3.825c1.992,0,3.466,0.368,4.42,1.109
		c0.952,0.733,1.43,1.841,1.43,3.321c0,1.078-0.283,1.993-0.853,2.727c-0.57,0.741-1.433,1.277-2.592,1.6l4.368,7.32h-1.342
		l-4.147-7.005H143.694z M143.694,121.924h3.069c1.354,0,2.406-0.3,3.154-0.903c0.748-0.608,1.123-1.497,1.123-2.68
		c0-1.22-0.367-2.108-1.103-2.671c-0.732-0.558-1.926-0.837-3.584-0.837h-2.66V121.924z"/>
	<path fill="#050013" d="M155.952,129.898v-16.077h1.124v16.077H155.952z"/>
	<path fill="#050013" d="M171.124,113.821h1.222l-6.016,16.077h-0.987l-5.992-16.077h1.2l4.046,10.942
		c0.615,1.648,1.03,2.89,1.24,3.715c0.147-0.55,0.438-1.402,0.868-2.562L171.124,113.821z"/>
	<path fill="#050013" d="M174.62,129.898v-16.077h1.124v16.077H174.62z"/>
	<path fill="#050013" d="M191.982,129.898h-1.134l-9.521-14.275h-0.087c0.087,1.706,0.132,2.988,0.132,3.852v10.424h-1.076v-16.077
		h1.121l9.508,14.25h0.066c-0.066-1.323-0.1-2.573-0.1-3.762v-10.488h1.091V129.898z"/>
	<path fill="#050013" d="M202.856,121.79h5.925v7.338c-1.553,0.658-3.303,0.99-5.246,0.99c-2.537,0-4.477-0.714-5.83-2.149
		c-1.354-1.431-2.029-3.457-2.029-6.087c0-1.634,0.334-3.087,1.005-4.35c0.672-1.264,1.633-2.239,2.88-2.93
		c1.251-0.684,2.688-1.03,4.307-1.03c1.751,0,3.321,0.321,4.718,0.965l-0.453,1.012c-1.396-0.646-2.834-0.967-4.331-0.967
		c-2.121,0-3.799,0.653-5.039,1.961c-1.246,1.307-1.866,3.074-1.866,5.292c0,2.422,0.59,4.24,1.771,5.459
		c1.177,1.221,2.913,1.834,5.2,1.834c1.48,0,2.737-0.209,3.771-0.627v-5.654h-4.781V121.79z"/>
	<path fill="#050013" d="M218.665,129.898v-16.077h1.12v16.077H218.665z"/>
	<path fill="#050013" d="M236.024,129.898h-1.129l-9.525-14.275h-0.088c0.088,1.706,0.135,2.988,0.135,3.852v10.424h-1.08v-16.077
		h1.125l9.508,14.25h0.066c-0.066-1.323-0.102-2.573-0.102-3.762v-10.488h1.09V129.898z"/>
	<path fill="#050013" d="M252.262,129.898h-1.133l-9.521-14.275h-0.088c0.088,1.706,0.135,2.988,0.135,3.852v10.424h-1.078v-16.077
		h1.123l9.506,14.25h0.066c-0.066-1.323-0.096-2.573-0.096-3.762v-10.488h1.086V129.898z"/>
	<path fill="#050013" d="M270.325,121.835c0,2.556-0.637,4.572-1.908,6.058c-1.277,1.48-3.037,2.226-5.277,2.226
		c-2.236,0-3.994-0.745-5.27-2.226c-1.271-1.485-1.91-3.507-1.91-6.075c0-2.558,0.643-4.569,1.93-6.045
		c1.287-1.466,3.039-2.2,5.268-2.2c2.242,0,4.004,0.739,5.27,2.215C269.692,117.264,270.325,119.28,270.325,121.835z
		 M257.18,121.835c0,2.305,0.51,4.087,1.537,5.342c1.025,1.257,2.494,1.885,4.422,1.885c1.934,0,3.414-0.624,4.434-1.87
		c1.021-1.244,1.533-3.024,1.533-5.356c0-2.312-0.512-4.086-1.533-5.323c-1.02-1.229-2.496-1.854-4.416-1.854
		c-1.914,0-3.389,0.627-4.426,1.868C257.696,117.778,257.18,119.545,257.18,121.835z"/>
	<path fill="#050013" d="M283.518,113.821h1.221l-6.014,16.077h-0.992l-5.988-16.077h1.195l4.049,10.942
		c0.617,1.648,1.031,2.89,1.246,3.715c0.143-0.55,0.434-1.402,0.869-2.562L283.518,113.821z"/>
	<path fill="#050013" d="M294.754,124.222h-6.529l-2.246,5.677h-1.24l6.469-16.142h0.715l6.33,16.142h-1.266L294.754,124.222z
		 M288.633,123.21h5.75l-2.191-5.795c-0.178-0.448-0.402-1.082-0.658-1.888c-0.193,0.705-0.412,1.342-0.648,1.913L288.633,123.21z"
		/>
	<path fill="#050013" d="M304.715,129.898h-1.133v-15.021h-5.217v-1.057h11.572v1.057h-5.223V129.898z"/>
	<path fill="#050013" d="M312.323,129.898v-16.077h1.125v16.077H312.323z"/>
	<path fill="#050013" d="M331.51,121.835c0,2.556-0.639,4.572-1.914,6.058c-1.279,1.48-3.033,2.226-5.275,2.226
		c-2.236,0-3.992-0.745-5.268-2.226c-1.271-1.485-1.91-3.507-1.91-6.075c0-2.558,0.643-4.569,1.926-6.045
		c1.285-1.466,3.041-2.2,5.273-2.2c2.24,0,3.996,0.739,5.262,2.215C330.875,117.264,331.51,119.28,331.51,121.835z M318.364,121.835
		c0,2.305,0.512,4.087,1.535,5.342c1.025,1.257,2.498,1.885,4.422,1.885c1.936,0,3.412-0.624,4.438-1.87
		c1.021-1.244,1.531-3.024,1.531-5.356c0-2.312-0.51-4.086-1.531-5.323c-1.025-1.229-2.498-1.854-4.416-1.854
		c-1.916,0-3.391,0.627-4.428,1.868C318.877,117.778,318.364,119.545,318.364,121.835z"/>
	<path fill="#050013" d="M346.891,129.898h-1.133l-9.521-14.275h-0.086c0.086,1.706,0.127,2.988,0.127,3.852v10.424h-1.072v-16.077
		h1.117l9.514,14.25h0.064c-0.064-1.323-0.102-2.573-0.102-3.762v-10.488h1.092V129.898z"/>
</g>
</svg>
